# MagicaVoxel @ Ephtracy

# group
o 

# material
mtllib Coin.mtl
usemtl palette

# normals
vn -1 0 0
vn 1 0 0
vn 0 0 1
vn 0 0 -1
vn 0 -1 0
vn 0 1 0

# texcoords
vt 0.00976562 0.5
vt 0.0175781 0.5
vt 0.0214844 0.5
vt 0.0449219 0.5

# verts
v -0.5 0.2 0
v -0.5 0.2 -0.1
v -0.5 0.6 0
v -0.5 0.6 -0.1
v -0.5 0.8 0
v -0.5 0.8 -0.1
v -0.4 0.1 0
v -0.4 0.1 -0.1
v -0.4 0.2 0
v -0.4 0.2 -0.1
v -0.4 0.8 0
v -0.4 0.8 -0.1
v -0.4 0.9 0
v -0.4 0.9 -0.1
v -0.3 0 0
v -0.3 0 -0.1
v -0.3 0.1 0
v -0.3 0.1 -0.1
v -0.3 0.9 0
v -0.3 0.9 -0.1
v -0.3 1 0
v -0.3 1 -0.1
v 0.3 0 0
v 0.3 0 -0.1
v 0.3 0.1 0
v 0.3 0.1 -0.1
v 0.3 0.9 0
v 0.3 0.9 -0.1
v 0.3 1 0
v 0.3 1 -0.1
v 0.4 0.1 0
v 0.4 0.1 -0.1
v 0.4 0.2 0
v 0.4 0.2 -0.1
v 0.4 0.8 0
v 0.4 0.8 -0.1
v 0.4 0.9 0
v 0.4 0.9 -0.1
v 0.5 0.2 0
v 0.5 0.2 -0.1
v 0.5 0.4 0
v 0.5 0.4 -0.1
v 0.5 0.7 0
v 0.5 0.7 -0.1
v 0.5 0.8 0
v 0.5 0.8 -0.1
v -0.5 0.2 0
v -0.5 0.6 0
v -0.5 0.8 0
v -0.4 0.1 0
v -0.4 0.2 0
v -0.4 0.3 0
v -0.4 0.6 0
v -0.4 0.7 0
v -0.4 0.8 0
v -0.4 0.9 0
v -0.3 0 0
v -0.3 0.1 0
v -0.3 0.2 0
v -0.3 0.3 0
v -0.3 0.7 0
v -0.3 0.8 0
v -0.3 0.9 0
v -0.3 1 0
v -0.2 0 0
v -0.2 0.1 0
v -0.2 0.2 0
v -0.2 0.3 0
v -0.2 0.7 0
v -0.2 0.8 0
v -0.2 0.9 0
v -0.1 0.9 0
v -0.1 1 0
v 0.1 0 0
v 0.1 0.1 0
v 0.2 0.1 0
v 0.2 0.2 0
v 0.2 0.3 0
v 0.2 0.7 0
v 0.2 0.8 0
v 0.2 0.9 0
v 0.2 1 0
v 0.3 0 0
v 0.3 0.1 0
v 0.3 0.2 0
v 0.3 0.3 0
v 0.3 0.7 0
v 0.3 0.8 0
v 0.3 0.9 0
v 0.3 1 0
v 0.4 0.1 0
v 0.4 0.2 0
v 0.4 0.3 0
v 0.4 0.4 0
v 0.4 0.7 0
v 0.4 0.8 0
v 0.4 0.9 0
v 0.5 0.2 0
v 0.5 0.4 0
v 0.5 0.7 0
v 0.5 0.8 0
v -0.5 0.2 -0.1
v -0.5 0.6 -0.1
v -0.5 0.8 -0.1
v -0.4 0.1 -0.1
v -0.4 0.2 -0.1
v -0.4 0.3 -0.1
v -0.4 0.6 -0.1
v -0.4 0.7 -0.1
v -0.4 0.8 -0.1
v -0.4 0.9 -0.1
v -0.3 0 -0.1
v -0.3 0.1 -0.1
v -0.3 0.2 -0.1
v -0.3 0.3 -0.1
v -0.3 0.7 -0.1
v -0.3 0.8 -0.1
v -0.3 0.9 -0.1
v -0.3 1 -0.1
v -0.2 0 -0.1
v -0.2 0.1 -0.1
v -0.2 0.2 -0.1
v -0.2 0.3 -0.1
v -0.2 0.7 -0.1
v -0.2 0.8 -0.1
v -0.2 0.9 -0.1
v -0.1 0.9 -0.1
v -0.1 1 -0.1
v 0.1 0 -0.1
v 0.1 0.1 -0.1
v 0.2 0.1 -0.1
v 0.2 0.2 -0.1
v 0.2 0.3 -0.1
v 0.2 0.7 -0.1
v 0.2 0.8 -0.1
v 0.2 0.9 -0.1
v 0.2 1 -0.1
v 0.3 0 -0.1
v 0.3 0.1 -0.1
v 0.3 0.2 -0.1
v 0.3 0.3 -0.1
v 0.3 0.7 -0.1
v 0.3 0.8 -0.1
v 0.3 0.9 -0.1
v 0.3 1 -0.1
v 0.4 0.1 -0.1
v 0.4 0.2 -0.1
v 0.4 0.3 -0.1
v 0.4 0.4 -0.1
v 0.4 0.7 -0.1
v 0.4 0.8 -0.1
v 0.4 0.9 -0.1
v 0.5 0.2 -0.1
v 0.5 0.4 -0.1
v 0.5 0.7 -0.1
v 0.5 0.8 -0.1
v -0.3 0 0
v -0.2 0 0
v 0.1 0 0
v 0.3 0 0
v -0.3 0 -0.1
v -0.2 0 -0.1
v 0.1 0 -0.1
v 0.3 0 -0.1
v -0.4 0.1 0
v -0.3 0.1 0
v 0.3 0.1 0
v 0.4 0.1 0
v -0.4 0.1 -0.1
v -0.3 0.1 -0.1
v 0.3 0.1 -0.1
v 0.4 0.1 -0.1
v -0.5 0.2 0
v -0.4 0.2 0
v 0.4 0.2 0
v 0.5 0.2 0
v -0.5 0.2 -0.1
v -0.4 0.2 -0.1
v 0.4 0.2 -0.1
v 0.5 0.2 -0.1
v -0.5 0.8 0
v -0.4 0.8 0
v 0.4 0.8 0
v 0.5 0.8 0
v -0.5 0.8 -0.1
v -0.4 0.8 -0.1
v 0.4 0.8 -0.1
v 0.5 0.8 -0.1
v -0.4 0.9 0
v -0.3 0.9 0
v 0.3 0.9 0
v 0.4 0.9 0
v -0.4 0.9 -0.1
v -0.3 0.9 -0.1
v 0.3 0.9 -0.1
v 0.4 0.9 -0.1
v -0.3 1 0
v -0.1 1 0
v 0.2 1 0
v 0.3 1 0
v -0.3 1 -0.1
v -0.1 1 -0.1
v 0.2 1 -0.1
v 0.3 1 -0.1

# faces
f 3/1/1 2/1/1 1/1/1
f 4/1/1 2/1/1 3/1/1
f 5/2/1 4/2/1 3/2/1
f 6/2/1 4/2/1 5/2/1
f 9/2/1 8/2/1 7/2/1
f 10/2/1 8/2/1 9/2/1
f 13/2/1 12/2/1 11/2/1
f 14/2/1 12/2/1 13/2/1
f 17/2/1 16/2/1 15/2/1
f 18/2/1 16/2/1 17/2/1
f 21/2/1 20/2/1 19/2/1
f 22/2/1 20/2/1 21/2/1
f 23/2/2 24/2/2 25/2/2
f 25/2/2 24/2/2 26/2/2
f 27/2/2 28/2/2 29/2/2
f 29/2/2 28/2/2 30/2/2
f 31/2/2 32/2/2 33/2/2
f 33/2/2 32/2/2 34/2/2
f 35/2/2 36/2/2 37/2/2
f 37/2/2 36/2/2 38/2/2
f 39/2/2 40/2/2 41/2/2
f 41/2/2 40/2/2 42/2/2
f 41/1/2 42/1/2 43/1/2
f 43/1/2 42/1/2 44/1/2
f 43/2/2 44/2/2 45/2/2
f 45/2/2 44/2/2 46/2/2
f 51/1/3 48/1/3 47/1/3
f 52/1/3 48/1/3 51/1/3
f 53/2/3 49/2/3 48/2/3
f 53/1/3 48/1/3 52/1/3
f 54/2/3 49/2/3 53/2/3
f 55/2/3 49/2/3 54/2/3
f 58/2/3 51/2/3 50/2/3
f 59/1/3 52/1/3 51/1/3
f 59/2/3 51/2/3 58/2/3
f 60/4/3 53/4/3 52/4/3
f 60/1/3 52/1/3 59/1/3
f 60/4/3 54/4/3 53/4/3
f 61/2/3 56/2/3 55/2/3
f 61/4/3 54/4/3 60/4/3
f 61/2/3 55/2/3 54/2/3
f 62/2/3 56/2/3 61/2/3
f 63/2/3 56/2/3 62/2/3
f 65/2/3 58/2/3 57/2/3
f 66/1/3 59/1/3 58/1/3
f 66/2/3 58/2/3 65/2/3
f 67/4/3 60/4/3 59/4/3
f 67/1/3 59/1/3 66/1/3
f 68/3/3 61/3/3 60/3/3
f 68/4/3 60/4/3 67/4/3
f 69/4/3 62/4/3 61/4/3
f 69/3/3 61/3/3 68/3/3
f 70/2/3 64/2/3 63/2/3
f 70/4/3 62/4/3 69/4/3
f 70/2/3 63/2/3 62/2/3
f 71/2/3 64/2/3 70/2/3
f 72/4/3 71/4/3 70/4/3
f 72/2/3 64/2/3 71/2/3
f 73/2/3 64/2/3 72/2/3
f 74/1/3 66/1/3 65/1/3
f 75/4/3 67/4/3 66/4/3
f 75/1/3 66/1/3 74/1/3
f 76/2/3 75/2/3 74/2/3
f 76/4/3 67/4/3 75/4/3
f 77/3/3 69/3/3 68/3/3
f 77/4/3 67/4/3 76/4/3
f 77/3/3 68/3/3 67/3/3
f 77/3/3 70/3/3 69/3/3
f 78/3/3 70/3/3 77/3/3
f 79/3/3 70/3/3 78/3/3
f 80/4/3 72/4/3 70/4/3
f 80/3/3 70/3/3 79/3/3
f 81/1/3 73/1/3 72/1/3
f 81/4/3 72/4/3 80/4/3
f 82/1/3 73/1/3 81/1/3
f 83/2/3 76/2/3 74/2/3
f 83/2/3 77/2/3 76/2/3
f 84/2/3 77/2/3 83/2/3
f 85/4/3 78/4/3 77/4/3
f 85/2/3 77/2/3 84/2/3
f 86/3/3 79/3/3 78/3/3
f 86/4/3 78/4/3 85/4/3
f 87/4/3 80/4/3 79/4/3
f 87/3/3 79/3/3 86/3/3
f 88/1/3 81/1/3 80/1/3
f 88/4/3 80/4/3 87/4/3
f 89/2/3 82/2/3 81/2/3
f 89/1/3 81/1/3 88/1/3
f 90/2/3 82/2/3 89/2/3
f 91/2/3 86/2/3 85/2/3
f 91/2/3 85/2/3 84/2/3
f 92/2/3 86/2/3 91/2/3
f 93/4/3 87/4/3 86/4/3
f 93/2/3 86/2/3 92/2/3
f 94/4/3 87/4/3 93/4/3
f 95/1/3 88/1/3 87/1/3
f 95/4/3 87/4/3 94/4/3
f 96/2/3 89/2/3 88/2/3
f 96/1/3 88/1/3 95/1/3
f 97/2/3 89/2/3 96/2/3
f 98/2/3 94/2/3 93/2/3
f 98/2/3 93/2/3 92/2/3
f 99/1/3 95/1/3 94/1/3
f 99/2/3 94/2/3 98/2/3
f 100/2/3 96/2/3 95/2/3
f 100/1/3 95/1/3 99/1/3
f 101/2/3 96/2/3 100/2/3
f 102/1/4 103/1/4 106/1/4
f 106/1/4 103/1/4 107/1/4
f 103/2/4 104/2/4 108/2/4
f 107/1/4 103/1/4 108/1/4
f 108/2/4 104/2/4 109/2/4
f 109/2/4 104/2/4 110/2/4
f 105/2/4 106/2/4 113/2/4
f 106/1/4 107/1/4 114/1/4
f 113/2/4 106/2/4 114/2/4
f 107/4/4 108/4/4 115/4/4
f 114/1/4 107/1/4 115/1/4
f 108/4/4 109/4/4 115/4/4
f 110/2/4 111/2/4 116/2/4
f 115/4/4 109/4/4 116/4/4
f 109/2/4 110/2/4 116/2/4
f 116/2/4 111/2/4 117/2/4
f 117/2/4 111/2/4 118/2/4
f 112/2/4 113/2/4 120/2/4
f 113/1/4 114/1/4 121/1/4
f 120/2/4 113/2/4 121/2/4
f 114/4/4 115/4/4 122/4/4
f 121/1/4 114/1/4 122/1/4
f 115/3/4 116/3/4 123/3/4
f 122/4/4 115/4/4 123/4/4
f 116/4/4 117/4/4 124/4/4
f 123/3/4 116/3/4 124/3/4
f 118/2/4 119/2/4 125/2/4
f 124/4/4 117/4/4 125/4/4
f 117/2/4 118/2/4 125/2/4
f 125/2/4 119/2/4 126/2/4
f 125/4/4 126/4/4 127/4/4
f 126/2/4 119/2/4 127/2/4
f 127/2/4 119/2/4 128/2/4
f 120/1/4 121/1/4 129/1/4
f 121/4/4 122/4/4 130/4/4
f 129/1/4 121/1/4 130/1/4
f 129/2/4 130/2/4 131/2/4
f 130/4/4 122/4/4 131/4/4
f 123/3/4 124/3/4 132/3/4
f 131/4/4 122/4/4 132/4/4
f 122/3/4 123/3/4 132/3/4
f 124/3/4 125/3/4 132/3/4
f 132/3/4 125/3/4 133/3/4
f 133/3/4 125/3/4 134/3/4
f 125/4/4 127/4/4 135/4/4
f 134/3/4 125/3/4 135/3/4
f 127/1/4 128/1/4 136/1/4
f 135/4/4 127/4/4 136/4/4
f 136/1/4 128/1/4 137/1/4
f 129/2/4 131/2/4 138/2/4
f 131/2/4 132/2/4 138/2/4
f 138/2/4 132/2/4 139/2/4
f 132/4/4 133/4/4 140/4/4
f 139/2/4 132/2/4 140/2/4
f 133/3/4 134/3/4 141/3/4
f 140/4/4 133/4/4 141/4/4
f 134/4/4 135/4/4 142/4/4
f 141/3/4 134/3/4 142/3/4
f 135/1/4 136/1/4 143/1/4
f 142/4/4 135/4/4 143/4/4
f 136/2/4 137/2/4 144/2/4
f 143/1/4 136/1/4 144/1/4
f 144/2/4 137/2/4 145/2/4
f 140/2/4 141/2/4 146/2/4
f 139/2/4 140/2/4 146/2/4
f 146/2/4 141/2/4 147/2/4
f 141/4/4 142/4/4 148/4/4
f 147/2/4 141/2/4 148/2/4
f 148/4/4 142/4/4 149/4/4
f 142/1/4 143/1/4 150/1/4
f 149/4/4 142/4/4 150/4/4
f 143/2/4 144/2/4 151/2/4
f 150/1/4 143/1/4 151/1/4
f 151/2/4 144/2/4 152/2/4
f 148/2/4 149/2/4 153/2/4
f 147/2/4 148/2/4 153/2/4
f 149/1/4 150/1/4 154/1/4
f 153/2/4 149/2/4 154/2/4
f 150/2/4 151/2/4 155/2/4
f 154/1/4 150/1/4 155/1/4
f 155/2/4 151/2/4 156/2/4
f 161/2/5 158/2/5 157/2/5
f 162/1/5 159/1/5 158/1/5
f 162/2/5 158/2/5 161/2/5
f 163/2/5 160/2/5 159/2/5
f 163/1/5 159/1/5 162/1/5
f 164/2/5 160/2/5 163/2/5
f 169/2/5 166/2/5 165/2/5
f 170/2/5 166/2/5 169/2/5
f 171/2/5 168/2/5 167/2/5
f 172/2/5 168/2/5 171/2/5
f 177/1/5 174/1/5 173/1/5
f 178/1/5 174/1/5 177/1/5
f 179/2/5 176/2/5 175/2/5
f 180/2/5 176/2/5 179/2/5
f 181/2/6 182/2/6 185/2/6
f 185/2/6 182/2/6 186/2/6
f 183/2/6 184/2/6 187/2/6
f 187/2/6 184/2/6 188/2/6
f 189/2/6 190/2/6 193/2/6
f 193/2/6 190/2/6 194/2/6
f 191/2/6 192/2/6 195/2/6
f 195/2/6 192/2/6 196/2/6
f 197/2/6 198/2/6 201/2/6
f 198/1/6 199/1/6 202/1/6
f 201/2/6 198/2/6 202/2/6
f 199/2/6 200/2/6 203/2/6
f 202/1/6 199/1/6 203/1/6
f 203/2/6 200/2/6 204/2/6
