# MagicaVoxel @ Ephtracy

# group
o 

# material
mtllib Missile.mtl
usemtl palette

# normals
vn -1 0 0
vn 1 0 0
vn 0 0 1
vn 0 0 -1
vn 0 -1 0
vn 0 1 0

# texcoords
vt 0.845703 0.5
vt 0.958984 0.5
vt 0.994141 0.5

# verts
v -0.8 0.6 0
v -0.8 0.6 -0.1
v -0.8 0.7 0
v -0.8 0.7 -0.1
v -0.7 0.5 0
v -0.7 0.5 -0.1
v -0.7 0.6 0.1
v -0.7 0.6 0
v -0.7 0.6 -0.1
v -0.7 0.6 -0.2
v -0.7 0.7 0.1
v -0.7 0.7 0
v -0.7 0.7 -0.1
v -0.7 0.7 -0.2
v -0.7 0.8 0
v -0.7 0.8 -0.1
v -0.5 0.5 0.1
v -0.5 0.5 0
v -0.5 0.5 -0.1
v -0.5 0.5 -0.2
v -0.5 0.6 0.2
v -0.5 0.6 0.1
v -0.5 0.6 0
v -0.5 0.6 -0.1
v -0.5 0.6 -0.2
v -0.5 0.6 -0.3
v -0.5 0.7 0.2
v -0.5 0.7 0.1
v -0.5 0.7 0
v -0.5 0.7 -0.1
v -0.5 0.7 -0.2
v -0.5 0.7 -0.3
v -0.5 0.8 0.1
v -0.5 0.8 0
v -0.5 0.8 -0.1
v -0.5 0.8 -0.2
v -0.4 0.6 0.4
v -0.4 0.6 0.2
v -0.4 0.6 -0.3
v -0.4 0.6 -0.5
v -0.4 0.7 0.4
v -0.4 0.7 0.2
v -0.4 0.7 -0.3
v -0.4 0.7 -0.5
v -0.3 0.6 0.4
v -0.3 0.6 0.3
v -0.3 0.6 -0.4
v -0.3 0.6 -0.5
v -0.3 0.7 0.4
v -0.3 0.7 0.3
v -0.3 0.7 -0.4
v -0.3 0.7 -0.5
v -0.2 0.6 0.3
v -0.2 0.6 0.2
v -0.2 0.6 -0.3
v -0.2 0.6 -0.4
v -0.2 0.7 0.3
v -0.2 0.7 0.2
v -0.2 0.7 -0.3
v -0.2 0.7 -0.4
v 0.1 0.6 0.2
v 0.1 0.6 0.1
v 0.1 0.6 -0.2
v 0.1 0.6 -0.3
v 0.1 0.7 0.2
v 0.1 0.7 0.1
v 0.1 0.7 -0.2
v 0.1 0.7 -0.3
v 0.2 0.5 0.1
v 0.2 0.5 -0.2
v 0.2 0.8 0.1
v 0.2 0.8 -0.2
v -0.4 0.6 0.4
v -0.4 0.7 0.4
v -0.3 0.6 0.4
v -0.3 0.7 0.4
v -0.3 0.6 0.3
v -0.3 0.7 0.3
v -0.2 0.6 0.3
v -0.2 0.7 0.3
v -0.5 0.6 0.2
v -0.5 0.7 0.2
v -0.4 0.6 0.2
v -0.4 0.7 0.2
v -0.2 0.6 0.2
v -0.2 0.7 0.2
v 0.1 0.6 0.2
v 0.1 0.7 0.2
v -0.7 0.6 0.1
v -0.7 0.7 0.1
v -0.5 0.5 0.1
v -0.5 0.6 0.1
v -0.5 0.7 0.1
v -0.5 0.8 0.1
v -0.4 0.5 0.1
v -0.4 0.6 0.1
v -0.4 0.7 0.1
v -0.4 0.8 0.1
v 0.1 0.6 0.1
v 0.1 0.7 0.1
v 0.2 0.5 0.1
v 0.2 0.8 0.1
v -0.8 0.6 0
v -0.8 0.7 0
v -0.7 0.5 0
v -0.7 0.6 0
v -0.7 0.7 0
v -0.7 0.8 0
v -0.5 0.5 0
v -0.5 0.6 0
v -0.5 0.7 0
v -0.5 0.8 0
v -0.8 0.6 -0.1
v -0.8 0.7 -0.1
v -0.7 0.5 -0.1
v -0.7 0.6 -0.1
v -0.7 0.7 -0.1
v -0.7 0.8 -0.1
v -0.5 0.5 -0.1
v -0.5 0.6 -0.1
v -0.5 0.7 -0.1
v -0.5 0.8 -0.1
v -0.7 0.6 -0.2
v -0.7 0.7 -0.2
v -0.5 0.5 -0.2
v -0.5 0.6 -0.2
v -0.5 0.7 -0.2
v -0.5 0.8 -0.2
v -0.4 0.5 -0.2
v -0.4 0.6 -0.2
v -0.4 0.7 -0.2
v -0.4 0.8 -0.2
v 0.1 0.6 -0.2
v 0.1 0.7 -0.2
v 0.2 0.5 -0.2
v 0.2 0.8 -0.2
v -0.5 0.6 -0.3
v -0.5 0.7 -0.3
v -0.4 0.6 -0.3
v -0.4 0.7 -0.3
v -0.2 0.6 -0.3
v -0.2 0.7 -0.3
v 0.1 0.6 -0.3
v 0.1 0.7 -0.3
v -0.3 0.6 -0.4
v -0.3 0.7 -0.4
v -0.2 0.6 -0.4
v -0.2 0.7 -0.4
v -0.4 0.6 -0.5
v -0.4 0.7 -0.5
v -0.3 0.6 -0.5
v -0.3 0.7 -0.5
v -0.5 0.5 0.1
v -0.4 0.5 0.1
v 0.2 0.5 0.1
v -0.7 0.5 0
v -0.5 0.5 0
v -0.7 0.5 -0.1
v -0.5 0.5 -0.1
v -0.5 0.5 -0.2
v -0.4 0.5 -0.2
v 0.2 0.5 -0.2
v -0.4 0.6 0.4
v -0.3 0.6 0.4
v -0.3 0.6 0.3
v -0.2 0.6 0.3
v -0.5 0.6 0.2
v -0.4 0.6 0.2
v -0.2 0.6 0.2
v 0.1 0.6 0.2
v -0.7 0.6 0.1
v -0.5 0.6 0.1
v -0.4 0.6 0.1
v 0.1 0.6 0.1
v -0.8 0.6 0
v -0.7 0.6 0
v -0.5 0.6 0
v -0.8 0.6 -0.1
v -0.7 0.6 -0.1
v -0.5 0.6 -0.1
v -0.7 0.6 -0.2
v -0.5 0.6 -0.2
v -0.4 0.6 -0.2
v 0.1 0.6 -0.2
v -0.5 0.6 -0.3
v -0.4 0.6 -0.3
v -0.2 0.6 -0.3
v 0.1 0.6 -0.3
v -0.3 0.6 -0.4
v -0.2 0.6 -0.4
v -0.4 0.6 -0.5
v -0.3 0.6 -0.5
v -0.4 0.7 0.4
v -0.3 0.7 0.4
v -0.3 0.7 0.3
v -0.2 0.7 0.3
v -0.5 0.7 0.2
v -0.4 0.7 0.2
v -0.2 0.7 0.2
v 0.1 0.7 0.2
v -0.7 0.7 0.1
v -0.5 0.7 0.1
v -0.4 0.7 0.1
v 0.1 0.7 0.1
v -0.8 0.7 0
v -0.7 0.7 0
v -0.5 0.7 0
v -0.8 0.7 -0.1
v -0.7 0.7 -0.1
v -0.5 0.7 -0.1
v -0.7 0.7 -0.2
v -0.5 0.7 -0.2
v -0.4 0.7 -0.2
v 0.1 0.7 -0.2
v -0.5 0.7 -0.3
v -0.4 0.7 -0.3
v -0.2 0.7 -0.3
v 0.1 0.7 -0.3
v -0.3 0.7 -0.4
v -0.2 0.7 -0.4
v -0.4 0.7 -0.5
v -0.3 0.7 -0.5
v -0.5 0.8 0.1
v -0.4 0.8 0.1
v 0.2 0.8 0.1
v -0.7 0.8 0
v -0.5 0.8 0
v -0.7 0.8 -0.1
v -0.5 0.8 -0.1
v -0.5 0.8 -0.2
v -0.4 0.8 -0.2
v 0.2 0.8 -0.2

# faces
f 3/1/1 2/1/1 1/1/1
f 4/1/1 2/1/1 3/1/1
f 8/1/1 6/1/1 5/1/1
f 9/1/1 6/1/1 8/1/1
f 11/1/1 8/1/1 7/1/1
f 12/1/1 8/1/1 11/1/1
f 13/1/1 10/1/1 9/1/1
f 14/1/1 10/1/1 13/1/1
f 15/1/1 13/1/1 12/1/1
f 16/1/1 13/1/1 15/1/1
f 22/2/1 18/2/1 17/2/1
f 23/2/1 18/2/1 22/2/1
f 24/2/1 20/2/1 19/2/1
f 25/2/1 20/2/1 24/2/1
f 27/2/1 22/2/1 21/2/1
f 28/2/1 22/2/1 27/2/1
f 31/2/1 26/2/1 25/2/1
f 32/2/1 26/2/1 31/2/1
f 33/2/1 29/2/1 28/2/1
f 34/2/1 29/2/1 33/2/1
f 35/2/1 31/2/1 30/2/1
f 36/2/1 31/2/1 35/2/1
f 41/3/1 38/3/1 37/3/1
f 42/3/1 38/3/1 41/3/1
f 43/3/1 40/3/1 39/3/1
f 44/3/1 40/3/1 43/3/1
f 45/3/2 46/3/2 49/3/2
f 49/3/2 46/3/2 50/3/2
f 47/3/2 48/3/2 51/3/2
f 51/3/2 48/3/2 52/3/2
f 53/3/2 54/3/2 57/3/2
f 57/3/2 54/3/2 58/3/2
f 55/3/2 56/3/2 59/3/2
f 59/3/2 56/3/2 60/3/2
f 61/3/2 62/3/2 65/3/2
f 65/3/2 62/3/2 66/3/2
f 63/3/2 64/3/2 67/3/2
f 67/3/2 64/3/2 68/3/2
f 69/3/2 70/3/2 71/3/2
f 71/3/2 70/3/2 72/3/2
f 75/3/3 74/3/3 73/3/3
f 76/3/3 74/3/3 75/3/3
f 79/3/3 78/3/3 77/3/3
f 80/3/3 78/3/3 79/3/3
f 83/2/3 82/2/3 81/2/3
f 84/2/3 82/2/3 83/2/3
f 87/3/3 86/3/3 85/3/3
f 88/3/3 86/3/3 87/3/3
f 92/1/3 90/1/3 89/1/3
f 93/1/3 90/1/3 92/1/3
f 95/2/3 92/2/3 91/2/3
f 96/2/3 92/2/3 95/2/3
f 97/2/3 94/2/3 93/2/3
f 98/2/3 94/2/3 97/2/3
f 99/3/3 96/3/3 95/3/3
f 100/3/3 98/3/3 97/3/3
f 101/3/3 99/3/3 95/3/3
f 101/3/3 100/3/3 99/3/3
f 102/3/3 98/3/3 100/3/3
f 102/3/3 100/3/3 101/3/3
f 106/1/3 104/1/3 103/1/3
f 107/1/3 104/1/3 106/1/3
f 109/1/3 106/1/3 105/1/3
f 110/1/3 106/1/3 109/1/3
f 111/1/3 108/1/3 107/1/3
f 112/1/3 108/1/3 111/1/3
f 113/1/4 114/1/4 116/1/4
f 116/1/4 114/1/4 117/1/4
f 115/1/4 116/1/4 119/1/4
f 119/1/4 116/1/4 120/1/4
f 117/1/4 118/1/4 121/1/4
f 121/1/4 118/1/4 122/1/4
f 123/1/4 124/1/4 126/1/4
f 126/1/4 124/1/4 127/1/4
f 125/2/4 126/2/4 129/2/4
f 129/2/4 126/2/4 130/2/4
f 127/2/4 128/2/4 131/2/4
f 131/2/4 128/2/4 132/2/4
f 129/3/4 130/3/4 133/3/4
f 131/3/4 132/3/4 134/3/4
f 129/3/4 133/3/4 135/3/4
f 133/3/4 134/3/4 135/3/4
f 134/3/4 132/3/4 136/3/4
f 135/3/4 134/3/4 136/3/4
f 137/2/4 138/2/4 139/2/4
f 139/2/4 138/2/4 140/2/4
f 141/3/4 142/3/4 143/3/4
f 143/3/4 142/3/4 144/3/4
f 145/3/4 146/3/4 147/3/4
f 147/3/4 146/3/4 148/3/4
f 149/3/4 150/3/4 151/3/4
f 151/3/4 150/3/4 152/3/4
f 157/2/5 154/2/5 153/2/5
f 158/1/5 157/1/5 156/1/5
f 159/2/5 154/2/5 157/2/5
f 159/1/5 157/1/5 158/1/5
f 160/2/5 154/2/5 159/2/5
f 161/3/5 155/3/5 154/3/5
f 161/2/5 154/2/5 160/2/5
f 162/3/5 155/3/5 161/3/5
f 165/3/5 164/3/5 163/3/5
f 168/3/5 165/3/5 163/3/5
f 168/3/5 166/3/5 165/3/5
f 169/3/5 166/3/5 168/3/5
f 172/2/5 168/2/5 167/2/5
f 173/3/5 170/3/5 169/3/5
f 173/3/5 169/3/5 168/3/5
f 173/2/5 168/2/5 172/2/5
f 174/3/5 170/3/5 173/3/5
f 176/1/5 172/1/5 171/1/5
f 177/1/5 172/1/5 176/1/5
f 178/1/5 176/1/5 175/1/5
f 179/1/5 176/1/5 178/1/5
f 181/1/5 180/1/5 179/1/5
f 182/1/5 180/1/5 181/1/5
f 185/2/5 183/2/5 182/2/5
f 186/3/5 184/3/5 183/3/5
f 186/2/5 183/2/5 185/2/5
f 187/3/5 184/3/5 186/3/5
f 188/3/5 184/3/5 187/3/5
f 189/3/5 187/3/5 186/3/5
f 190/3/5 187/3/5 189/3/5
f 191/3/5 189/3/5 186/3/5
f 192/3/5 189/3/5 191/3/5
f 193/3/6 194/3/6 195/3/6
f 193/3/6 195/3/6 198/3/6
f 195/3/6 196/3/6 198/3/6
f 198/3/6 196/3/6 199/3/6
f 197/2/6 198/2/6 202/2/6
f 199/3/6 200/3/6 203/3/6
f 198/3/6 199/3/6 203/3/6
f 202/2/6 198/2/6 203/2/6
f 203/3/6 200/3/6 204/3/6
f 201/1/6 202/1/6 206/1/6
f 206/1/6 202/1/6 207/1/6
f 205/1/6 206/1/6 208/1/6
f 208/1/6 206/1/6 209/1/6
f 209/1/6 210/1/6 211/1/6
f 211/1/6 210/1/6 212/1/6
f 212/2/6 213/2/6 215/2/6
f 213/3/6 214/3/6 216/3/6
f 215/2/6 213/2/6 216/2/6
f 216/3/6 214/3/6 217/3/6
f 217/3/6 214/3/6 218/3/6
f 216/3/6 217/3/6 219/3/6
f 219/3/6 217/3/6 220/3/6
f 216/3/6 219/3/6 221/3/6
f 221/3/6 219/3/6 222/3/6
f 223/2/6 224/2/6 227/2/6
f 226/1/6 227/1/6 228/1/6
f 227/2/6 224/2/6 229/2/6
f 228/1/6 227/1/6 229/1/6
f 229/2/6 224/2/6 230/2/6
f 224/3/6 225/3/6 231/3/6
f 230/2/6 224/2/6 231/2/6
f 231/3/6 225/3/6 232/3/6
