# MagicaVoxel @ Ephtracy

# group
o 

# material
mtllib player1.mtl
usemtl palette

# normals
vn -1 0 0
vn 1 0 0
vn 0 0 1
vn 0 0 -1
vn 0 -1 0
vn 0 1 0

# texcoords
vt 0.0332031 0.5
vt 0.0410156 0.5
vt 0.0605469 0.5
vt 0.0683594 0.5
vt 0.205078 0.5
vt 0.369141 0.5
vt 0.603516 0.5
vt 0.623047 0.5
vt 0.658203 0.5
vt 0.767578 0.5
vt 0.958984 0.5
vt 0.994141 0.5

# verts
v -0.4 0.8 0.1
v -0.4 0.8 -0.2
v -0.4 1.2 0.1
v -0.4 1.2 -0.2
v -0.3 0.3 0
v -0.3 0.3 -0.1
v -0.3 0.5 0
v -0.3 0.5 -0.1
v -0.3 0.6 0.1
v -0.3 0.6 0
v -0.3 0.7 0.2
v -0.3 0.7 0.1
v -0.3 0.7 0
v -0.3 0.7 -0.1
v -0.3 0.7 -0.2
v -0.3 0.8 0.1
v -0.3 0.8 -0.2
v -0.3 0.8 -0.3
v -0.3 1.2 0.2
v -0.3 1.2 0.1
v -0.3 1.2 -0.2
v -0.3 1.2 -0.3
v -0.3 1.3 0.1
v -0.3 1.3 -0.2
v -0.2 0 0
v -0.2 0 -0.1
v -0.2 0.1 0
v -0.2 0.1 -0.1
v -0.2 0.3 0.1
v -0.2 0.3 0
v -0.2 0.3 -0.1
v -0.2 0.3 -0.2
v -0.2 0.4 0.1
v -0.2 0.4 0
v -0.2 0.4 -0.1
v -0.2 0.4 -0.2
v -0.2 0.5 0
v -0.2 0.5 -0.1
v -0.2 0.6 0.1
v -0.2 0.6 0
v -0.2 0.7 -0.1
v -0.2 0.7 -0.2
v -0.2 0.7 -0.3
v -0.2 0.8 -0.2
v -0.2 0.8 -0.3
v -0.2 1.2 0.2
v -0.2 1.2 0.1
v -0.2 1.2 -0.2
v -0.2 1.2 -0.3
v -0.2 1.3 0.2
v -0.2 1.3 0.1
v -0.2 1.3 -0.2
v -0.2 1.3 -0.3
v -0.2 1.4 0
v -0.2 1.4 -0.1
v -0.2 1.6 0
v -0.2 1.6 -0.1
v -0.1 1.3 0
v -0.1 1.3 -0.1
v -0.1 1.4 0
v -0.1 1.4 -0.1
v 0 0.8 0.2
v 0 0.8 0.1
v 0 0.9 0.2
v 0 0.9 0.1
v 0.1 0 0
v 0.1 0 -0.1
v 0.1 0.1 0
v 0.1 0.1 -0.1
v 0.1 0.3 0
v 0.1 0.3 -0.1
v 0.2 0.9 0.2
v 0.2 0.9 0.1
v 0.2 1 0.2
v 0.2 1 0.1
v -0.2 0.8 0.2
v -0.2 0.8 0.1
v -0.2 0.9 0.2
v -0.2 0.9 0.1
v -0.1 0 0
v -0.1 0 -0.1
v -0.1 0.1 0
v -0.1 0.1 -0.1
v -0.1 0.3 0
v -0.1 0.3 -0.1
v -0.1 0.7 0.2
v -0.1 0.7 0.1
v -0.1 0.8 0.2
v -0.1 0.8 0.1
v -0.1 1.5 0
v -0.1 1.5 -0.1
v -0.1 1.6 0
v -0.1 1.6 -0.1
v 0 1.3 0
v 0 1.3 -0.1
v 0 1.5 0
v 0 1.5 -0.1
v 0.1 0.8 0.2
v 0.1 0.8 0.1
v 0.1 0.9 0.1
v 0.1 1 0.2
v 0.1 1 0.1
v 0.2 0 0
v 0.2 0 -0.1
v 0.2 0.1 0
v 0.2 0.1 -0.1
v 0.2 0.3 0.1
v 0.2 0.3 0
v 0.2 0.3 -0.1
v 0.2 0.3 -0.2
v 0.2 0.4 0.1
v 0.2 0.4 0
v 0.2 0.4 -0.1
v 0.2 0.4 -0.2
v 0.2 0.5 0
v 0.2 0.5 -0.1
v 0.2 0.7 0.1
v 0.2 0.7 0
v 0.2 0.7 -0.1
v 0.2 0.7 -0.2
v 0.2 0.7 -0.3
v 0.2 0.8 -0.2
v 0.2 0.8 -0.3
v 0.2 1.2 0.2
v 0.2 1.2 0.1
v 0.2 1.2 -0.2
v 0.2 1.2 -0.3
v 0.2 1.3 0.2
v 0.2 1.3 0.1
v 0.2 1.3 -0.2
v 0.2 1.3 -0.3
v 0.3 0.3 0
v 0.3 0.3 -0.1
v 0.3 0.5 0
v 0.3 0.5 -0.1
v 0.3 0.7 0.1
v 0.3 0.7 0
v 0.3 0.7 -0.1
v 0.3 0.7 -0.2
v 0.3 0.8 0.1
v 0.3 0.8 0
v 0.3 0.8 -0.1
v 0.3 0.8 -0.2
v 0.3 0.8 -0.3
v 0.3 0.9 0.2
v 0.3 0.9 0.1
v 0.3 0.9 0
v 0.3 0.9 -0.1
v 0.3 1.2 0.2
v 0.3 1.2 0.1
v 0.3 1.2 -0.2
v 0.3 1.2 -0.3
v 0.3 1.3 0.1
v 0.3 1.3 -0.2
v 0.4 0.8 -0.1
v 0.4 0.8 -0.2
v 0.4 0.9 0.1
v 0.4 0.9 -0.1
v 0.4 1.2 0.1
v 0.4 1.2 -0.2
v -0.3 0.7 0.2
v -0.3 1.2 0.2
v -0.2 0.8 0.2
v -0.2 0.9 0.2
v -0.2 1.2 0.2
v -0.2 1.3 0.2
v -0.1 0.7 0.2
v -0.1 0.8 0.2
v 0 0.8 0.2
v 0 0.9 0.2
v 0.1 0.8 0.2
v 0.1 1 0.2
v 0.2 0.9 0.2
v 0.2 1 0.2
v 0.2 1.2 0.2
v 0.2 1.3 0.2
v 0.3 0.9 0.2
v 0.3 1.2 0.2
v -0.4 0.8 0.1
v -0.4 1.2 0.1
v -0.3 0.6 0.1
v -0.3 0.7 0.1
v -0.3 0.8 0.1
v -0.3 1.2 0.1
v -0.3 1.3 0.1
v -0.2 0.3 0.1
v -0.2 0.4 0.1
v -0.2 0.6 0.1
v -0.2 0.7 0.1
v -0.2 0.8 0.1
v -0.2 0.9 0.1
v -0.2 1.2 0.1
v -0.2 1.3 0.1
v -0.1 0.7 0.1
v -0.1 0.8 0.1
v -0.1 0.9 0.1
v 0 0.8 0.1
v 0 0.9 0.1
v 0.1 0.7 0.1
v 0.1 0.8 0.1
v 0.1 0.9 0.1
v 0.1 1 0.1
v 0.2 0.3 0.1
v 0.2 0.4 0.1
v 0.2 0.7 0.1
v 0.2 0.8 0.1
v 0.2 0.9 0.1
v 0.2 1 0.1
v 0.2 1.2 0.1
v 0.2 1.3 0.1
v 0.3 0.7 0.1
v 0.3 0.8 0.1
v 0.3 0.9 0.1
v 0.3 1.2 0.1
v 0.3 1.3 0.1
v 0.4 0.9 0.1
v 0.4 1.2 0.1
v -0.3 0.3 0
v -0.3 0.5 0
v -0.3 0.6 0
v -0.2 0 0
v -0.2 0.1 0
v -0.2 0.3 0
v -0.2 0.4 0
v -0.2 0.5 0
v -0.2 0.6 0
v -0.2 1.4 0
v -0.2 1.6 0
v -0.1 0 0
v -0.1 0.1 0
v -0.1 0.3 0
v -0.1 1.3 0
v -0.1 1.4 0
v -0.1 1.5 0
v -0.1 1.6 0
v 0 1.3 0
v 0 1.5 0
v 0.1 0 0
v 0.1 0.1 0
v 0.1 0.3 0
v 0.2 0 0
v 0.2 0.1 0
v 0.2 0.3 0
v 0.2 0.4 0
v 0.2 0.5 0
v 0.2 0.7 0
v 0.3 0.3 0
v 0.3 0.5 0
v 0.3 0.7 0
v 0.3 0.8 -0.1
v 0.3 0.9 -0.1
v 0.4 0.8 -0.1
v 0.4 0.9 -0.1
v -0.3 0.3 -0.1
v -0.3 0.5 -0.1
v -0.3 0.7 -0.1
v -0.2 0 -0.1
v -0.2 0.1 -0.1
v -0.2 0.3 -0.1
v -0.2 0.4 -0.1
v -0.2 0.5 -0.1
v -0.2 0.7 -0.1
v -0.2 1.4 -0.1
v -0.2 1.6 -0.1
v -0.1 0 -0.1
v -0.1 0.1 -0.1
v -0.1 0.3 -0.1
v -0.1 1.3 -0.1
v -0.1 1.4 -0.1
v -0.1 1.5 -0.1
v -0.1 1.6 -0.1
v 0 1.3 -0.1
v 0 1.5 -0.1
v 0.1 0 -0.1
v 0.1 0.1 -0.1
v 0.1 0.3 -0.1
v 0.2 0 -0.1
v 0.2 0.1 -0.1
v 0.2 0.3 -0.1
v 0.2 0.4 -0.1
v 0.2 0.5 -0.1
v 0.2 0.7 -0.1
v 0.3 0.3 -0.1
v 0.3 0.5 -0.1
v 0.3 0.7 -0.1
v -0.4 0.8 -0.2
v -0.4 1.2 -0.2
v -0.3 0.7 -0.2
v -0.3 0.8 -0.2
v -0.3 1.2 -0.2
v -0.3 1.3 -0.2
v -0.2 0.3 -0.2
v -0.2 0.4 -0.2
v -0.2 0.7 -0.2
v -0.2 0.8 -0.2
v -0.2 1.2 -0.2
v -0.2 1.3 -0.2
v 0.2 0.3 -0.2
v 0.2 0.4 -0.2
v 0.2 0.7 -0.2
v 0.2 0.8 -0.2
v 0.2 1.2 -0.2
v 0.2 1.3 -0.2
v 0.3 0.7 -0.2
v 0.3 0.8 -0.2
v 0.3 1.2 -0.2
v 0.3 1.3 -0.2
v 0.4 0.8 -0.2
v 0.4 1.2 -0.2
v -0.3 0.8 -0.3
v -0.3 1.2 -0.3
v -0.2 0.7 -0.3
v -0.2 0.8 -0.3
v -0.2 1.2 -0.3
v -0.2 1.3 -0.3
v 0.2 0.7 -0.3
v 0.2 0.8 -0.3
v 0.2 1.2 -0.3
v 0.2 1.3 -0.3
v 0.3 0.8 -0.3
v 0.3 1.2 -0.3
v -0.2 0 0
v -0.1 0 0
v 0.1 0 0
v 0.2 0 0
v -0.2 0 -0.1
v -0.1 0 -0.1
v 0.1 0 -0.1
v 0.2 0 -0.1
v -0.2 0.3 0.1
v 0.2 0.3 0.1
v -0.3 0.3 0
v -0.2 0.3 0
v -0.1 0.3 0
v 0.1 0.3 0
v 0.2 0.3 0
v 0.3 0.3 0
v -0.3 0.3 -0.1
v -0.2 0.3 -0.1
v -0.1 0.3 -0.1
v 0.1 0.3 -0.1
v 0.2 0.3 -0.1
v 0.3 0.3 -0.1
v -0.2 0.3 -0.2
v 0.2 0.3 -0.2
v -0.3 0.6 0.1
v -0.2 0.6 0.1
v -0.3 0.6 0
v -0.2 0.6 0
v -0.3 0.7 0.2
v -0.1 0.7 0.2
v -0.3 0.7 0.1
v -0.2 0.7 0.1
v -0.1 0.7 0.1
v 0.2 0.7 0.1
v 0.3 0.7 0.1
v 0.2 0.7 0
v 0.3 0.7 0
v -0.3 0.7 -0.1
v -0.2 0.7 -0.1
v 0.2 0.7 -0.1
v 0.3 0.7 -0.1
v -0.3 0.7 -0.2
v -0.2 0.7 -0.2
v 0.2 0.7 -0.2
v 0.3 0.7 -0.2
v -0.2 0.7 -0.3
v 0.2 0.7 -0.3
v 0 0.8 0.2
v 0.1 0.8 0.2
v -0.4 0.8 0.1
v -0.3 0.8 0.1
v 0 0.8 0.1
v 0.1 0.8 0.1
v 0.3 0.8 -0.1
v 0.4 0.8 -0.1
v -0.4 0.8 -0.2
v -0.3 0.8 -0.2
v -0.2 0.8 -0.2
v 0.2 0.8 -0.2
v 0.3 0.8 -0.2
v 0.4 0.8 -0.2
v -0.3 0.8 -0.3
v -0.2 0.8 -0.3
v 0.2 0.8 -0.3
v 0.3 0.8 -0.3
v -0.2 0.9 0.2
v 0 0.9 0.2
v 0.2 0.9 0.2
v 0.3 0.9 0.2
v -0.2 0.9 0.1
v -0.1 0.9 0.1
v 0 0.9 0.1
v 0.2 0.9 0.1
v 0.3 0.9 0.1
v 0.4 0.9 0.1
v 0.3 0.9 0
v 0.3 0.9 -0.1
v 0.4 0.9 -0.1
v 0.1 1 0.2
v 0.2 1 0.2
v 0.1 1 0.1
v 0.2 1 0.1
v -0.2 1.4 0
v -0.1 1.4 0
v -0.2 1.4 -0.1
v -0.1 1.4 -0.1
v -0.2 0.8 0.2
v -0.1 0.8 0.2
v -0.2 0.8 0.1
v -0.1 0.8 0.1
v -0.3 1.2 0.2
v -0.2 1.2 0.2
v 0.2 1.2 0.2
v 0.3 1.2 0.2
v -0.4 1.2 0.1
v -0.3 1.2 0.1
v -0.2 1.2 0.1
v 0.2 1.2 0.1
v 0.3 1.2 0.1
v 0.4 1.2 0.1
v -0.4 1.2 -0.2
v -0.3 1.2 -0.2
v -0.2 1.2 -0.2
v 0.2 1.2 -0.2
v 0.3 1.2 -0.2
v 0.4 1.2 -0.2
v -0.3 1.2 -0.3
v -0.2 1.2 -0.3
v 0.2 1.2 -0.3
v 0.3 1.2 -0.3
v -0.2 1.3 0.2
v 0.2 1.3 0.2
v -0.3 1.3 0.1
v -0.2 1.3 0.1
v 0.2 1.3 0.1
v 0.3 1.3 0.1
v -0.1 1.3 0
v 0 1.3 0
v -0.1 1.3 -0.1
v 0 1.3 -0.1
v -0.3 1.3 -0.2
v -0.2 1.3 -0.2
v 0.2 1.3 -0.2
v 0.3 1.3 -0.2
v -0.2 1.3 -0.3
v 0.2 1.3 -0.3
v -0.1 1.5 0
v 0 1.5 0
v -0.1 1.5 -0.1
v 0 1.5 -0.1
v -0.2 1.6 0
v -0.1 1.6 0
v -0.2 1.6 -0.1
v -0.1 1.6 -0.1

# faces
f 3/2/1 2/2/1 1/2/1
f 4/2/1 2/2/1 3/2/1
f 7/1/1 6/1/1 5/1/1
f 8/1/1 6/1/1 7/1/1
f 10/11/1 8/11/1 7/11/1
f 12/2/1 10/2/1 9/2/1
f 13/11/1 8/11/1 10/11/1
f 13/2/1 10/2/1 12/2/1
f 14/11/1 8/11/1 13/11/1
f 16/2/1 14/2/1 13/2/1
f 16/2/1 15/2/1 14/2/1
f 16/2/1 13/2/1 12/2/1
f 16/2/1 12/2/1 11/2/1
f 17/2/1 15/2/1 16/2/1
f 19/2/1 16/2/1 11/2/1
f 20/2/1 16/2/1 19/2/1
f 21/2/1 18/2/1 17/2/1
f 22/2/1 18/2/1 21/2/1
f 23/2/1 21/2/1 20/2/1
f 24/2/1 21/2/1 23/2/1
f 27/6/1 26/6/1 25/6/1
f 28/6/1 26/6/1 27/6/1
f 30/9/1 28/9/1 27/9/1
f 31/9/1 28/9/1 30/9/1
f 33/9/1 30/9/1 29/9/1
f 34/9/1 30/9/1 33/9/1
f 35/9/1 32/9/1 31/9/1
f 36/9/1 32/9/1 35/9/1
f 37/11/1 34/11/1 33/11/1
f 38/11/1 36/11/1 35/11/1
f 39/11/1 37/11/1 33/11/1
f 40/11/1 37/11/1 39/11/1
f 41/11/1 36/11/1 38/11/1
f 42/11/1 36/11/1 41/11/1
f 44/2/1 43/2/1 42/2/1
f 45/2/1 43/2/1 44/2/1
f 50/2/1 47/2/1 46/2/1
f 51/2/1 47/2/1 50/2/1
f 52/2/1 49/2/1 48/2/1
f 53/2/1 49/2/1 52/2/1
f 56/2/1 55/2/1 54/2/1
f 57/2/1 55/2/1 56/2/1
f 60/2/1 59/2/1 58/2/1
f 61/2/1 59/2/1 60/2/1
f 64/2/1 63/2/1 62/2/1
f 65/2/1 63/2/1 64/2/1
f 68/6/1 67/6/1 66/6/1
f 69/6/1 67/6/1 68/6/1
f 70/9/1 69/9/1 68/9/1
f 71/9/1 69/9/1 70/9/1
f 74/2/1 73/2/1 72/2/1
f 75/2/1 73/2/1 74/2/1
f 76/2/2 77/2/2 78/2/2
f 78/2/2 77/2/2 79/2/2
f 80/6/2 81/6/2 82/6/2
f 82/6/2 81/6/2 83/6/2
f 82/9/2 83/9/2 84/9/2
f 84/9/2 83/9/2 85/9/2
f 86/2/2 87/2/2 88/2/2
f 88/2/2 87/2/2 89/2/2
f 90/2/2 91/2/2 92/2/2
f 92/2/2 91/2/2 93/2/2
f 94/2/2 95/2/2 96/2/2
f 96/2/2 95/2/2 97/2/2
f 98/2/2 99/2/2 100/2/2
f 98/2/2 100/2/2 101/2/2
f 101/2/2 100/2/2 102/2/2
f 103/6/2 104/6/2 105/6/2
f 105/6/2 104/6/2 106/6/2
f 105/9/2 106/9/2 108/9/2
f 108/9/2 106/9/2 109/9/2
f 107/9/2 108/9/2 111/9/2
f 111/9/2 108/9/2 112/9/2
f 109/9/2 110/9/2 113/9/2
f 113/9/2 110/9/2 114/9/2
f 111/11/2 112/11/2 115/11/2
f 113/11/2 114/11/2 116/11/2
f 111/11/2 115/11/2 117/11/2
f 117/11/2 115/11/2 118/11/2
f 116/11/2 114/11/2 119/11/2
f 119/11/2 114/11/2 120/11/2
f 120/2/2 121/2/2 122/2/2
f 122/2/2 121/2/2 123/2/2
f 124/2/2 125/2/2 128/2/2
f 128/2/2 125/2/2 129/2/2
f 126/2/2 127/2/2 130/2/2
f 130/2/2 127/2/2 131/2/2
f 132/1/2 133/1/2 134/1/2
f 134/1/2 133/1/2 135/1/2
f 134/11/2 135/11/2 137/11/2
f 137/11/2 135/11/2 138/11/2
f 136/3/2 137/3/2 140/3/2
f 137/1/2 138/1/2 141/1/2
f 140/3/2 137/3/2 141/3/2
f 138/2/2 139/2/2 142/2/2
f 141/1/2 138/1/2 142/1/2
f 142/2/2 139/2/2 143/2/2
f 140/2/2 141/2/2 146/2/2
f 141/1/2 142/1/2 147/1/2
f 146/2/2 141/2/2 147/2/2
f 147/1/2 142/1/2 148/1/2
f 145/2/2 146/2/2 149/2/2
f 149/2/2 146/2/2 150/2/2
f 143/2/2 144/2/2 151/2/2
f 151/2/2 144/2/2 152/2/2
f 150/2/2 151/2/2 153/2/2
f 153/2/2 151/2/2 154/2/2
f 155/2/2 156/2/2 158/2/2
f 157/2/2 158/2/2 159/2/2
f 158/2/2 156/2/2 160/2/2
f 159/2/2 158/2/2 160/2/2
f 163/2/3 162/2/3 161/2/3
f 164/2/3 162/2/3 163/2/3
f 165/2/3 162/2/3 164/2/3
f 167/2/3 163/2/3 161/2/3
f 168/2/3 163/2/3 167/2/3
f 170/2/3 166/2/3 165/2/3
f 170/2/3 165/2/3 164/2/3
f 171/2/3 170/2/3 169/2/3
f 172/2/3 166/2/3 170/2/3
f 172/2/3 170/2/3 171/2/3
f 174/2/3 166/2/3 172/2/3
f 175/2/3 166/2/3 174/2/3
f 176/2/3 166/2/3 175/2/3
f 177/2/3 174/2/3 173/2/3
f 177/2/3 175/2/3 174/2/3
f 178/2/3 175/2/3 177/2/3
f 183/2/3 180/2/3 179/2/3
f 184/2/3 180/2/3 183/2/3
f 188/2/3 182/2/3 181/2/3
f 189/2/3 182/2/3 188/2/3
f 192/2/3 185/2/3 184/2/3
f 193/2/3 185/2/3 192/2/3
f 194/11/3 188/11/3 187/11/3
f 194/11/3 189/11/3 188/11/3
f 195/12/3 191/12/3 190/12/3
f 196/12/3 191/12/3 195/12/3
f 197/1/3 195/1/3 194/1/3
f 197/1/3 196/1/3 195/1/3
f 198/1/3 196/1/3 197/1/3
f 199/11/3 194/11/3 187/11/3
f 199/1/3 197/1/3 194/1/3
f 200/1/3 197/1/3 199/1/3
f 203/9/3 187/9/3 186/9/3
f 204/11/3 199/11/3 187/11/3
f 204/9/3 187/9/3 203/9/3
f 205/3/3 200/3/3 199/3/3
f 205/11/3 199/11/3 204/11/3
f 206/12/3 201/12/3 200/12/3
f 206/3/3 200/3/3 205/3/3
f 207/1/3 202/1/3 201/1/3
f 207/12/3 201/12/3 206/12/3
f 208/1/3 202/1/3 207/1/3
f 211/3/3 206/3/3 205/3/3
f 212/2/3 207/2/3 206/2/3
f 212/3/3 206/3/3 211/3/3
f 213/2/3 207/2/3 212/2/3
f 214/2/3 210/2/3 209/2/3
f 215/2/3 210/2/3 214/2/3
f 216/2/3 214/2/3 213/2/3
f 217/2/3 214/2/3 216/2/3
f 223/1/3 219/1/3 218/1/3
f 224/1/3 219/1/3 223/1/3
f 225/11/3 220/11/3 219/11/3
f 225/1/3 219/1/3 224/1/3
f 226/11/3 220/11/3 225/11/3
f 229/6/3 222/6/3 221/6/3
f 230/9/3 223/9/3 222/9/3
f 230/6/3 222/6/3 229/6/3
f 231/9/3 223/9/3 230/9/3
f 233/2/3 228/2/3 227/2/3
f 234/2/3 228/2/3 233/2/3
f 235/2/3 228/2/3 234/2/3
f 236/2/3 234/2/3 233/2/3
f 236/2/3 233/2/3 232/2/3
f 237/2/3 234/2/3 236/2/3
f 241/6/3 239/6/3 238/6/3
f 242/9/3 240/9/3 239/9/3
f 242/6/3 239/6/3 241/6/3
f 243/9/3 240/9/3 242/9/3
f 247/1/3 245/1/3 244/1/3
f 247/1/3 244/1/3 243/1/3
f 248/11/3 246/11/3 245/11/3
f 248/1/3 245/1/3 247/1/3
f 249/11/3 246/11/3 248/11/3
f 252/2/3 251/2/3 250/2/3
f 253/2/3 251/2/3 252/2/3
f 254/1/4 255/1/4 259/1/4
f 259/1/4 255/1/4 260/1/4
f 255/11/4 256/11/4 261/11/4
f 260/1/4 255/1/4 261/1/4
f 261/11/4 256/11/4 262/11/4
f 257/6/4 258/6/4 265/6/4
f 258/9/4 259/9/4 266/9/4
f 265/6/4 258/6/4 266/6/4
f 266/9/4 259/9/4 267/9/4
f 263/2/4 264/2/4 269/2/4
f 269/2/4 264/2/4 270/2/4
f 270/2/4 264/2/4 271/2/4
f 269/2/4 270/2/4 272/2/4
f 268/2/4 269/2/4 272/2/4
f 272/2/4 270/2/4 273/2/4
f 274/6/4 275/6/4 277/6/4
f 275/9/4 276/9/4 278/9/4
f 277/6/4 275/6/4 278/6/4
f 278/9/4 276/9/4 279/9/4
f 280/1/4 281/1/4 283/1/4
f 279/1/4 280/1/4 283/1/4
f 281/11/4 282/11/4 284/11/4
f 283/1/4 281/1/4 284/1/4
f 284/11/4 282/11/4 285/11/4
f 286/2/4 287/2/4 289/2/4
f 289/2/4 287/2/4 290/2/4
f 288/2/4 289/2/4 294/2/4
f 294/2/4 289/2/4 295/2/4
f 290/2/4 291/2/4 296/2/4
f 296/2/4 291/2/4 297/2/4
f 292/9/4 293/9/4 298/9/4
f 293/11/4 294/11/4 299/11/4
f 298/9/4 293/9/4 299/9/4
f 299/11/4 294/11/4 300/11/4
f 300/2/4 301/2/4 304/2/4
f 304/2/4 301/2/4 305/2/4
f 302/2/4 303/2/4 306/2/4
f 306/2/4 303/2/4 307/2/4
f 305/2/4 306/2/4 308/2/4
f 308/2/4 306/2/4 309/2/4
f 310/2/4 311/2/4 313/2/4
f 313/2/4 311/2/4 314/2/4
f 312/2/4 313/2/4 316/2/4
f 314/2/4 315/2/4 316/2/4
f 313/2/4 314/2/4 316/2/4
f 316/2/4 315/2/4 317/2/4
f 317/2/4 315/2/4 318/2/4
f 318/2/4 315/2/4 319/2/4
f 317/2/4 318/2/4 320/2/4
f 320/2/4 318/2/4 321/2/4
f 326/6/5 323/6/5 322/6/5
f 327/6/5 323/6/5 326/6/5
f 328/6/5 325/6/5 324/6/5
f 329/6/5 325/6/5 328/6/5
f 333/9/5 331/9/5 330/9/5
f 334/9/5 331/9/5 333/9/5
f 335/9/5 331/9/5 334/9/5
f 336/9/5 331/9/5 335/9/5
f 338/1/5 333/1/5 332/1/5
f 339/1/5 333/1/5 338/1/5
f 340/9/5 335/9/5 334/9/5
f 341/9/5 335/9/5 340/9/5
f 342/1/5 337/1/5 336/1/5
f 343/1/5 337/1/5 342/1/5
f 344/9/5 341/9/5 340/9/5
f 344/9/5 342/9/5 341/9/5
f 344/9/5 340/9/5 339/9/5
f 345/9/5 342/9/5 344/9/5
f 348/2/5 347/2/5 346/2/5
f 349/2/5 347/2/5 348/2/5
f 352/2/5 351/2/5 350/2/5
f 353/2/5 351/2/5 352/2/5
f 354/2/5 351/2/5 353/2/5
f 357/3/5 356/3/5 355/3/5
f 358/3/5 356/3/5 357/3/5
f 363/2/5 360/2/5 359/2/5
f 364/2/5 360/2/5 363/2/5
f 365/2/5 362/2/5 361/2/5
f 366/2/5 362/2/5 365/2/5
f 367/2/5 365/2/5 364/2/5
f 368/2/5 365/2/5 367/2/5
f 373/2/5 370/2/5 369/2/5
f 374/2/5 370/2/5 373/2/5
f 377/2/5 372/2/5 371/2/5
f 378/2/5 372/2/5 377/2/5
f 381/2/5 376/2/5 375/2/5
f 382/2/5 376/2/5 381/2/5
f 383/2/5 379/2/5 378/2/5
f 384/2/5 379/2/5 383/2/5
f 385/2/5 381/2/5 380/2/5
f 386/2/5 381/2/5 385/2/5
f 391/2/5 388/2/5 387/2/5
f 392/2/5 388/2/5 391/2/5
f 393/2/5 388/2/5 392/2/5
f 394/2/5 390/2/5 389/2/5
f 395/2/5 390/2/5 394/2/5
f 397/2/5 396/2/5 395/2/5
f 398/2/5 396/2/5 397/2/5
f 399/2/5 396/2/5 398/2/5
f 402/2/5 401/2/5 400/2/5
f 403/2/5 401/2/5 402/2/5
f 406/2/5 405/2/5 404/2/5
f 407/2/5 405/2/5 406/2/5
f 408/2/6 409/2/6 410/2/6
f 410/2/6 409/2/6 411/2/6
f 412/2/6 413/2/6 417/2/6
f 417/2/6 413/2/6 418/2/6
f 414/2/6 415/2/6 419/2/6
f 419/2/6 415/2/6 420/2/6
f 416/2/6 417/2/6 422/2/6
f 422/2/6 417/2/6 423/2/6
f 420/2/6 421/2/6 426/2/6
f 426/2/6 421/2/6 427/2/6
f 423/2/6 424/2/6 428/2/6
f 428/2/6 424/2/6 429/2/6
f 425/2/6 426/2/6 430/2/6
f 430/2/6 426/2/6 431/2/6
f 432/2/6 433/2/6 435/2/6
f 435/2/6 433/2/6 436/2/6
f 434/2/6 435/2/6 438/2/6
f 436/2/6 437/2/6 438/2/6
f 435/2/6 436/2/6 438/2/6
f 438/2/6 437/2/6 439/2/6
f 434/2/6 438/2/6 440/2/6
f 439/2/6 437/2/6 441/2/6
f 434/2/6 440/2/6 442/2/6
f 440/2/6 441/2/6 442/2/6
f 442/2/6 441/2/6 443/2/6
f 441/2/6 437/2/6 444/2/6
f 443/2/6 441/2/6 444/2/6
f 444/2/6 437/2/6 445/2/6
f 443/2/6 444/2/6 446/2/6
f 446/2/6 444/2/6 447/2/6
f 448/2/6 449/2/6 450/2/6
f 450/2/6 449/2/6 451/2/6
f 452/2/6 453/2/6 454/2/6
f 454/2/6 453/2/6 455/2/6
