# MagicaVoxel @ Ephtracy

# group
o 

# material
mtllib glider.mtl
usemtl palette

# normals
vn -1 0 0
vn 1 0 0
vn 0 0 1
vn 0 0 -1
vn 0 -1 0
vn 0 1 0

# texcoords
vt 0.498047 0.5
vt 0.958984 0.5
vt 0.966797 0.5
vt 0.970703 0.5
vt 0.974609 0.5
vt 0.978516 0.5

# verts
v -2.7 0 -1.1
v -2.7 0 -1.3
v -2.7 0.1 -1.1
v -2.7 0.1 -1.3
v -2.6 0 -0.7
v -2.6 0 -0.9
v -2.6 0 -1
v -2.6 0 -1.1
v -2.6 0 -1.3
v -2.6 0 -1.4
v -2.6 0.1 -0.7
v -2.6 0.1 -0.9
v -2.6 0.1 -1
v -2.6 0.1 -1.1
v -2.6 0.1 -1.3
v -2.6 0.1 -1.4
v -2.5 0 -0.5
v -2.5 0 -0.7
v -2.5 0 -0.9
v -2.5 0 -1
v -2.5 0.1 -0.5
v -2.5 0.1 -0.7
v -2.5 0.1 -0.9
v -2.5 0.1 -1
v -2.4 0 -0.1
v -2.4 0 -0.3
v -2.4 0 -0.4
v -2.4 0 -0.5
v -2.4 0.1 -0.1
v -2.4 0.1 -0.3
v -2.4 0.1 -0.4
v -2.4 0.1 -0.5
v -2.3 0 -1.19209e-07
v -2.3 0 -0.1
v -2.3 0 -0.3
v -2.3 0 -0.4
v -2.3 0.1 -1.19209e-07
v -2.3 0.1 -0.1
v -2.3 0.1 -0.3
v -2.3 0.1 -0.4
v -2.2 0 0.0999998
v -2.2 0 -1.19209e-07
v -2.2 0.1 0.0999998
v -2.2 0.1 -1.19209e-07
v -2.1 0 0.2
v -2.1 0 0.0999998
v -2.1 0.1 0.2
v -2.1 0.1 0.0999998
v -2 0 0.3
v -2 0 0.2
v -2 0.1 0.3
v -2 0.1 0.2
v -1.9 0 0.6
v -1.9 0 0.3
v -1.9 0.1 0.6
v -1.9 0.1 0.3
v -1.8 0 0.7
v -1.8 0 0.6
v -1.8 0.1 0.7
v -1.8 0.1 0.6
v -1.7 0 0.8
v -1.7 0 0.7
v -1.7 0.1 0.8
v -1.7 0.1 0.7
v -1.6 0 1
v -1.6 0 0.8
v -1.6 0.1 1
v -1.6 0.1 0.8
v -1.5 0 1.1
v -1.5 0 1
v -1.5 0.1 1.1
v -1.5 0.1 1
v -1.4 0 1.2
v -1.4 0 1.1
v -1.4 0.1 1.2
v -1.4 0.1 1.1
v -1.1 0 1.3
v -1.1 0 1.2
v -1.1 0.1 1.3
v -1.1 0.1 1.2
v 0.8 0 0.8
v 0.8 0 0.4
v 0.8 0.1 0.8
v 0.8 0.1 0.4
v 0.9 0 0.9
v 0.9 0 0.8
v 0.9 0 0.4
v 0.9 0 0.3
v 0.9 0.1 0.9
v 0.9 0.1 0.8
v 0.9 0.1 0.4
v 0.9 0.1 0.3
v 1 0 1
v 1 0 0.9
v 1 0 0.3
v 1 0 0.2
v 1 0.1 1
v 1 0.1 0.9
v 1 0.1 0.3
v 1 0.1 0.2
v 1.1 0 1.1
v 1.1 0 1
v 1.1 0.1 1.1
v 1.1 0.1 1
v 1.2 0 1.2
v 1.2 0 1.1
v 1.2 0.1 1.2
v 1.2 0.1 1.1
v 1.3 0 1.3
v 1.3 0 1.2
v 1.3 0.1 1.3
v 1.3 0.1 1.2
v 1.8 0 0.2
v 1.8 0 0.0999998
v 1.8 0.1 0.2
v 1.8 0.1 0.0999998
v 1.9 0 -0.5
v 1.9 0 -0.8
v 1.9 0.1 -0.5
v 1.9 0.1 -0.8
v 2 0 0.0999998
v 2 0 -0.1
v 2 0 -0.3
v 2 0 -0.5
v 2 0 -0.8
v 2 0 -0.9
v 2 0.1 0.0999998
v 2 0.1 -0.1
v 2 0.1 -0.3
v 2 0.1 -0.5
v 2 0.1 -0.8
v 2 0.1 -0.9
v 2.1 0 -0.1
v 2.1 0 -0.3
v 2.1 0 -0.9
v 2.1 0 -1
v 2.1 0.1 -0.1
v 2.1 0.1 -0.3
v 2.1 0.1 -0.9
v 2.1 0.1 -1
v 2.2 0 -1
v 2.2 0 -1.1
v 2.2 0.1 -1
v 2.2 0.1 -1.1
v 2.6 0 -1.1
v 2.6 0 -1.2
v 2.6 0.1 -1.1
v 2.6 0.1 -1.2
v 3 0 -1.2
v 3 0 -1.3
v 3 0.1 -1.2
v 3 0.1 -1.3
v 3.3 0 -1.3
v 3.3 0 -1.4
v 3.3 0.1 -1.3
v 3.3 0.1 -1.4
v -2 0 -1.3
v -2 0 -1.4
v -2 0.1 -1.3
v -2 0.1 -1.4
v -1.7 0 -1.2
v -1.7 0 -1.3
v -1.7 0.1 -1.2
v -1.7 0.1 -1.3
v -1.3 0 -1.1
v -1.3 0 -1.2
v -1.3 0.1 -1.1
v -1.3 0.1 -1.2
v -0.9 0 -1
v -0.9 0 -1.1
v -0.9 0.1 -1
v -0.9 0.1 -1.1
v -0.8 0 -0.1
v -0.8 0 -0.3
v -0.8 0 -0.9
v -0.8 0 -1
v -0.8 0.1 -0.1
v -0.8 0.1 -0.3
v -0.8 0.1 -0.9
v -0.8 0.1 -1
v -0.7 0 0.0999998
v -0.7 0 -0.1
v -0.7 0 -0.3
v -0.7 0 -0.5
v -0.7 0 -0.8
v -0.7 0 -0.9
v -0.7 0.1 0.0999998
v -0.7 0.1 -0.1
v -0.7 0.1 -0.3
v -0.7 0.1 -0.5
v -0.7 0.1 -0.8
v -0.7 0.1 -0.9
v -0.6 0 -0.5
v -0.6 0 -0.8
v -0.6 0.1 -0.5
v -0.6 0.1 -0.8
v -0.5 0 0.2
v -0.5 0 0.0999998
v -0.5 0.1 0.2
v -0.5 0.1 0.0999998
v 0 0 1.3
v 0 0 1.2
v 0 0.1 1.3
v 0 0.1 1.2
v 0.1 0 1.2
v 0.1 0 1.1
v 0.1 0.1 1.2
v 0.1 0.1 1.1
v 0.2 0 1.1
v 0.2 0 1
v 0.2 0.1 1.1
v 0.2 0.1 1
v 0.3 0 1
v 0.3 0 0.9
v 0.3 0 0.3
v 0.3 0 0.2
v 0.3 0.1 1
v 0.3 0.1 0.9
v 0.3 0.1 0.3
v 0.3 0.1 0.2
v 0.4 0 0.9
v 0.4 0 0.8
v 0.4 0 0.4
v 0.4 0 0.3
v 0.4 0.1 0.9
v 0.4 0.1 0.8
v 0.4 0.1 0.4
v 0.4 0.1 0.3
v 0.5 0 0.8
v 0.5 0 0.4
v 0.5 0.1 0.8
v 0.5 0.1 0.4
v 2.4 0 1.3
v 2.4 0 1.2
v 2.4 0.1 1.3
v 2.4 0.1 1.2
v 2.7 0 1.2
v 2.7 0 1.1
v 2.7 0.1 1.2
v 2.7 0.1 1.1
v 2.8 0 1.1
v 2.8 0 1
v 2.8 0.1 1.1
v 2.8 0.1 1
v 2.9 0 1
v 2.9 0 0.8
v 2.9 0.1 1
v 2.9 0.1 0.8
v 3 0 0.8
v 3 0 0.7
v 3 0.1 0.8
v 3 0.1 0.7
v 3.1 0 0.7
v 3.1 0 0.6
v 3.1 0.1 0.7
v 3.1 0.1 0.6
v 3.2 0 0.6
v 3.2 0 0.3
v 3.2 0.1 0.6
v 3.2 0.1 0.3
v 3.3 0 0.3
v 3.3 0 0.2
v 3.3 0.1 0.3
v 3.3 0.1 0.2
v 3.4 0 0.2
v 3.4 0 0.0999998
v 3.4 0.1 0.2
v 3.4 0.1 0.0999998
v 3.5 0 0.0999998
v 3.5 0 -1.19209e-07
v 3.5 0.1 0.0999998
v 3.5 0.1 -1.19209e-07
v 3.6 0 -1.19209e-07
v 3.6 0 -0.1
v 3.6 0 -0.3
v 3.6 0 -0.4
v 3.6 0.1 -1.19209e-07
v 3.6 0.1 -0.1
v 3.6 0.1 -0.3
v 3.6 0.1 -0.4
v 3.7 0 -0.1
v 3.7 0 -0.3
v 3.7 0 -0.4
v 3.7 0 -0.5
v 3.7 0.1 -0.1
v 3.7 0.1 -0.3
v 3.7 0.1 -0.4
v 3.7 0.1 -0.5
v 3.8 0 -0.5
v 3.8 0 -0.7
v 3.8 0 -0.9
v 3.8 0 -1
v 3.8 0.1 -0.5
v 3.8 0.1 -0.7
v 3.8 0.1 -0.9
v 3.8 0.1 -1
v 3.9 0 -0.7
v 3.9 0 -0.9
v 3.9 0 -1
v 3.9 0 -1.1
v 3.9 0 -1.3
v 3.9 0 -1.4
v 3.9 0.1 -0.7
v 3.9 0.1 -0.9
v 3.9 0.1 -1
v 3.9 0.1 -1.1
v 3.9 0.1 -1.3
v 3.9 0.1 -1.4
v 4 0 -1.1
v 4 0 -1.3
v 4 0.1 -1.1
v 4 0.1 -1.3
v -1.1 0 1.3
v -1.1 0.1 1.3
v 0 0 1.3
v 0 0.1 1.3
v 1.3 0 1.3
v 1.3 0.1 1.3
v 2.4 0 1.3
v 2.4 0.1 1.3
v -1.4 0 1.2
v -1.4 0.1 1.2
v -1.1 0 1.2
v -1.1 0.1 1.2
v 0 0 1.2
v 0 0.1 1.2
v 0.1 0 1.2
v 0.1 0.1 1.2
v 1.2 0 1.2
v 1.2 0.1 1.2
v 1.3 0 1.2
v 1.3 0.1 1.2
v 2.4 0 1.2
v 2.4 0.1 1.2
v 2.7 0 1.2
v 2.7 0.1 1.2
v -1.5 0 1.1
v -1.5 0.1 1.1
v -1.4 0 1.1
v -1.4 0.1 1.1
v 0.1 0 1.1
v 0.1 0.1 1.1
v 0.2 0 1.1
v 0.2 0.1 1.1
v 1.1 0 1.1
v 1.1 0.1 1.1
v 1.2 0 1.1
v 1.2 0.1 1.1
v 2.7 0 1.1
v 2.7 0.1 1.1
v 2.8 0 1.1
v 2.8 0.1 1.1
v -1.6 0 1
v -1.6 0.1 1
v -1.5 0 1
v -1.5 0.1 1
v 0.2 0 1
v 0.2 0.1 1
v 0.3 0 1
v 0.3 0.1 1
v 1 0 1
v 1 0.1 1
v 1.1 0 1
v 1.1 0.1 1
v 2.8 0 1
v 2.8 0.1 1
v 2.9 0 1
v 2.9 0.1 1
v 0.3 0 0.9
v 0.3 0.1 0.9
v 0.4 0 0.9
v 0.4 0.1 0.9
v 0.9 0 0.9
v 0.9 0.1 0.9
v 1 0 0.9
v 1 0.1 0.9
v -1.7 0 0.8
v -1.7 0.1 0.8
v -1.6 0 0.8
v -1.6 0.1 0.8
v 0.4 0 0.8
v 0.4 0.1 0.8
v 0.5 0 0.8
v 0.5 0.1 0.8
v 0.8 0 0.8
v 0.8 0.1 0.8
v 0.9 0 0.8
v 0.9 0.1 0.8
v 2.9 0 0.8
v 2.9 0.1 0.8
v 3 0 0.8
v 3 0.1 0.8
v -1.8 0 0.7
v -1.8 0.1 0.7
v -1.7 0 0.7
v -1.7 0.1 0.7
v 3 0 0.7
v 3 0.1 0.7
v 3.1 0 0.7
v 3.1 0.1 0.7
v -1.9 0 0.6
v -1.9 0.1 0.6
v -1.8 0 0.6
v -1.8 0.1 0.6
v 3.1 0 0.6
v 3.1 0.1 0.6
v 3.2 0 0.6
v 3.2 0.1 0.6
v -2 0 0.3
v -2 0.1 0.3
v -1.9 0 0.3
v -1.9 0.1 0.3
v 3.2 0 0.3
v 3.2 0.1 0.3
v 3.3 0 0.3
v 3.3 0.1 0.3
v -2.1 0 0.2
v -2.1 0.1 0.2
v -2 0 0.2
v -2 0.1 0.2
v 3.3 0 0.2
v 3.3 0.1 0.2
v 3.4 0 0.2
v 3.4 0.1 0.2
v -2.2 0 0.0999998
v -2.2 0.1 0.0999998
v -2.1 0 0.0999998
v -2.1 0.1 0.0999998
v 3.4 0 0.0999998
v 3.4 0.1 0.0999998
v 3.5 0 0.0999998
v 3.5 0.1 0.0999998
v -2.3 0 -1.19209e-07
v -2.3 0.1 -1.19209e-07
v -2.2 0 -1.19209e-07
v -2.2 0.1 -1.19209e-07
v 3.5 0 -1.19209e-07
v 3.5 0.1 -1.19209e-07
v 3.6 0 -1.19209e-07
v 3.6 0.1 -1.19209e-07
v -2.4 0 -0.1
v -2.4 0.1 -0.1
v -2.3 0 -0.1
v -2.3 0.1 -0.1
v 3.6 0 -0.1
v 3.6 0.1 -0.1
v 3.7 0 -0.1
v 3.7 0.1 -0.1
v -0.8 0 -0.3
v -0.8 0.1 -0.3
v -0.7 0 -0.3
v -0.7 0.1 -0.3
v 2 0 -0.3
v 2 0.1 -0.3
v 2.1 0 -0.3
v 2.1 0.1 -0.3
v -2.4 0 -0.4
v -2.4 0.1 -0.4
v -2.3 0 -0.4
v -2.3 0.1 -0.4
v 3.6 0 -0.4
v 3.6 0.1 -0.4
v 3.7 0 -0.4
v 3.7 0.1 -0.4
v -2.5 0 -0.5
v -2.5 0.1 -0.5
v -2.4 0 -0.5
v -2.4 0.1 -0.5
v -0.7 0 -0.5
v -0.7 0.1 -0.5
v -0.6 0 -0.5
v -0.6 0.1 -0.5
v 1.9 0 -0.5
v 1.9 0.1 -0.5
v 2 0 -0.5
v 2 0.1 -0.5
v 3.7 0 -0.5
v 3.7 0.1 -0.5
v 3.8 0 -0.5
v 3.8 0.1 -0.5
v -2.6 0 -0.7
v -2.6 0.1 -0.7
v -2.5 0 -0.7
v -2.5 0.1 -0.7
v 3.8 0 -0.7
v 3.8 0.1 -0.7
v 3.9 0 -0.7
v 3.9 0.1 -0.7
v -2.6 0 -1
v -2.6 0.1 -1
v -2.5 0 -1
v -2.5 0.1 -1
v 3.8 0 -1
v 3.8 0.1 -1
v 3.9 0 -1
v 3.9 0.1 -1
v -2.7 0 -1.1
v -2.7 0.1 -1.1
v -2.6 0 -1.1
v -2.6 0.1 -1.1
v 3.9 0 -1.1
v 3.9 0.1 -1.1
v 4 0 -1.1
v 4 0.1 -1.1
v 0.4 0 0.4
v 0.4 0.1 0.4
v 0.5 0 0.4
v 0.5 0.1 0.4
v 0.8 0 0.4
v 0.8 0.1 0.4
v 0.9 0 0.4
v 0.9 0.1 0.4
v 0.3 0 0.3
v 0.3 0.1 0.3
v 0.4 0 0.3
v 0.4 0.1 0.3
v 0.9 0 0.3
v 0.9 0.1 0.3
v 1 0 0.3
v 1 0.1 0.3
v -0.5 0 0.2
v -0.5 0.1 0.2
v 0.3 0 0.2
v 0.3 0.1 0.2
v 1 0 0.2
v 1 0.1 0.2
v 1.8 0 0.2
v 1.8 0.1 0.2
v -0.7 0 0.0999998
v -0.7 0.1 0.0999998
v -0.5 0 0.0999998
v -0.5 0.1 0.0999998
v 1.8 0 0.0999998
v 1.8 0.1 0.0999998
v 2 0 0.0999998
v 2 0.1 0.0999998
v -0.8 0 -0.1
v -0.8 0.1 -0.1
v -0.7 0 -0.1
v -0.7 0.1 -0.1
v 2 0 -0.1
v 2 0.1 -0.1
v 2.1 0 -0.1
v 2.1 0.1 -0.1
v -2.4 0 -0.3
v -2.4 0.1 -0.3
v -2.3 0 -0.3
v -2.3 0.1 -0.3
v 3.6 0 -0.3
v 3.6 0.1 -0.3
v 3.7 0 -0.3
v 3.7 0.1 -0.3
v -0.7 0 -0.8
v -0.7 0.1 -0.8
v -0.6 0 -0.8
v -0.6 0.1 -0.8
v 1.9 0 -0.8
v 1.9 0.1 -0.8
v 2 0 -0.8
v 2 0.1 -0.8
v -2.6 0 -0.9
v -2.6 0.1 -0.9
v -2.5 0 -0.9
v -2.5 0.1 -0.9
v -0.8 0 -0.9
v -0.8 0.1 -0.9
v -0.7 0 -0.9
v -0.7 0.1 -0.9
v 2 0 -0.9
v 2 0.1 -0.9
v 2.1 0 -0.9
v 2.1 0.1 -0.9
v 3.8 0 -0.9
v 3.8 0.1 -0.9
v 3.9 0 -0.9
v 3.9 0.1 -0.9
v -0.9 0 -1
v -0.9 0.1 -1
v -0.8 0 -1
v -0.8 0.1 -1
v 2.1 0 -1
v 2.1 0.1 -1
v 2.2 0 -1
v 2.2 0.1 -1
v -1.3 0 -1.1
v -1.3 0.1 -1.1
v -0.9 0 -1.1
v -0.9 0.1 -1.1
v 2.2 0 -1.1
v 2.2 0.1 -1.1
v 2.6 0 -1.1
v 2.6 0.1 -1.1
v -1.7 0 -1.2
v -1.7 0.1 -1.2
v -1.3 0 -1.2
v -1.3 0.1 -1.2
v 2.6 0 -1.2
v 2.6 0.1 -1.2
v 3 0 -1.2
v 3 0.1 -1.2
v -2.7 0 -1.3
v -2.7 0.1 -1.3
v -2.6 0 -1.3
v -2.6 0.1 -1.3
v -2 0 -1.3
v -2 0.1 -1.3
v -1.7 0 -1.3
v -1.7 0.1 -1.3
v 3 0 -1.3
v 3 0.1 -1.3
v 3.3 0 -1.3
v 3.3 0.1 -1.3
v 3.9 0 -1.3
v 3.9 0.1 -1.3
v 4 0 -1.3
v 4 0.1 -1.3
v -2.6 0 -1.4
v -2.6 0.1 -1.4
v -2 0 -1.4
v -2 0.1 -1.4
v 3.3 0 -1.4
v 3.3 0.1 -1.4
v 3.9 0 -1.4
v 3.9 0.1 -1.4
v -1.1 0 1.3
v 0 0 1.3
v 1.3 0 1.3
v 2.4 0 1.3
v -1.4 0 1.2
v -1.1 0 1.2
v -1 0 1.2
v -0.0999999 0 1.2
v 0 0 1.2
v 0.1 0 1.2
v 1.2 0 1.2
v 1.3 0 1.2
v 1.4 0 1.2
v 2.3 0 1.2
v 2.4 0 1.2
v 2.7 0 1.2
v -1.5 0 1.1
v -1.4 0 1.1
v -1.2 0 1.1
v -1.1 0 1.1
v -1 0 1.1
v -0.0999999 0 1.1
v 0 0 1.1
v 0.1 0 1.1
v 0.2 0 1.1
v 1.1 0 1.1
v 1.2 0 1.1
v 1.3 0 1.1
v 1.4 0 1.1
v 2.3 0 1.1
v 2.4 0 1.1
v 2.5 0 1.1
v 2.7 0 1.1
v 2.8 0 1.1
v -1.6 0 1
v -1.5 0 1
v -1.4 0 1
v -1.3 0 1
v -1.2 0 1
v 0 0 1
v 0.1 0 1
v 0.2 0 1
v 0.3 0 1
v 1 0 1
v 1.1 0 1
v 1.2 0 1
v 1.3 0 1
v 2.5 0 1
v 2.6 0 1
v 2.7 0 1
v 2.8 0 1
v 2.9 0 1
v -1.4 0 0.9
v -1.3 0 0.9
v -0.0999999 0 0.9
v 0 0 0.9
v 0.1 0 0.9
v 0.3 0 0.9
v 0.4 0 0.9
v 0.9 0 0.9
v 1 0 0.9
v 1.2 0 0.9
v 1.3 0 0.9
v 1.4 0 0.9
v 2.6 0 0.9
v 2.7 0 0.9
v -1.7 0 0.8
v -1.6 0 0.8
v -1.5 0 0.8
v -1.4 0 0.8
v -1.3 0 0.8
v -1.1 0 0.8
v -0.0999999 0 0.8
v 0 0 0.8
v 0.1 0 0.8
v 0.3 0 0.8
v 0.4 0 0.8
v 0.5 0 0.8
v 0.8 0 0.8
v 0.9 0 0.8
v 1 0 0.8
v 1.2 0 0.8
v 1.3 0 0.8
v 1.4 0 0.8
v 2.4 0 0.8
v 2.6 0 0.8
v 2.7 0 0.8
v 2.8 0 0.8
v 2.9 0 0.8
v 3 0 0.8
v -1.8 0 0.7
v -1.7 0 0.7
v -1.5 0 0.7
v -1.3 0 0.7
v -1.1 0 0.7
v -0.0999999 0 0.7
v 0 0 0.7
v 0.1 0 0.7
v 0.3 0 0.7
v 0.4 0 0.7
v 0.9 0 0.7
v 1 0 0.7
v 1.2 0 0.7
v 1.3 0 0.7
v 1.4 0 0.7
v 2.4 0 0.7
v 2.6 0 0.7
v 2.8 0 0.7
v 3 0 0.7
v 3.1 0 0.7
v -1.9 0 0.6
v -1.8 0 0.6
v -1.7 0 0.6
v -1.6 0 0.6
v -1.5 0 0.6
v -1.2 0 0.6
v -0.0999999 0 0.6
v 0 0 0.6
v 1.3 0 0.6
v 1.4 0 0.6
v 2.4 0 0.6
v 2.8 0 0.6
v 2.9 0 0.6
v 3 0 0.6
v 3.1 0 0.6
v 3.2 0 0.6
v -1.7 0 0.5
v -1.6 0 0.5
v -1.5 0 0.5
v -1.2 0 0.5
v -0.0999999 0 0.5
v 0 0 0.5
v 0.3 0 0.5
v 0.4 0 0.5
v 0.9 0 0.5
v 1 0 0.5
v 1.3 0 0.5
v 1.4 0 0.5
v 2.4 0 0.5
v 2.7 0 0.5
v 2.9 0 0.5
v 3 0 0.5
v -1.5 0 0.4
v -1.3 0 0.4
v 0.2 0 0.4
v 0.3 0 0.4
v 0.4 0 0.4
v 0.5 0 0.4
v 0.8 0 0.4
v 0.9 0 0.4
v 1 0 0.4
v 1.1 0 0.4
v 2.5 0 0.4
v 2.7 0 0.4
v -2 0 0.3
v -1.9 0 0.3
v -1.8 0 0.3
v -1.7 0 0.3
v -1.6 0 0.3
v -1.5 0 0.3
v -1.3 0 0.3
v -0.6 0 0.3
v -0.5 0 0.3
v 0.2 0 0.3
v 0.3 0 0.3
v 0.4 0 0.3
v 0.9 0 0.3
v 1 0 0.3
v 1.1 0 0.3
v 1.8 0 0.3
v 1.9 0 0.3
v 2.5 0 0.3
v 2.8 0 0.3
v 2.9 0 0.3
v 3 0 0.3
v 3.1 0 0.3
v 3.2 0 0.3
v 3.3 0 0.3
v -2.1 0 0.2
v -2 0 0.2
v -1.9 0 0.2
v -1.8 0 0.2
v -1.6 0 0.2
v -1.5 0 0.2
v -0.8 0 0.2
v -0.7 0 0.2
v -0.6 0 0.2
v -0.5 0 0.2
v 0.3 0 0.2
v 1 0 0.2
v 1.8 0 0.2
v 1.9 0 0.2
v 2 0 0.2
v 2.1 0 0.2
v 2.8 0 0.2
v 2.9 0 0.2
v 3.1 0 0.2
v 3.2 0 0.2
v 3.3 0 0.2
v 3.4 0 0.2
v -2.2 0 0.0999998
v -2.1 0 0.0999998
v -2 0 0.0999998
v -1.9 0 0.0999998
v -1.8 0 0.0999998
v -0.8 0 0.0999998
v -0.7 0 0.0999998
v -0.5 0 0.0999998
v 1.8 0 0.0999998
v 2 0 0.0999998
v 2.1 0 0.0999998
v 3.1 0 0.0999998
v 3.2 0 0.0999998
v 3.3 0 0.0999998
v 3.4 0 0.0999998
v 3.5 0 0.0999998
v -2.3 0 -1.19209e-07
v -2.2 0 -1.19209e-07
v -2.1 0 -1.19209e-07
v -2 0 -1.19209e-07
v -1.9 0 -1.19209e-07
v -0.9 0 -1.19209e-07
v -0.8 0 -1.19209e-07
v 2.1 0 -1.19209e-07
v 2.2 0 -1.19209e-07
v 3.2 0 -1.19209e-07
v 3.3 0 -1.19209e-07
v 3.4 0 -1.19209e-07
v 3.5 0 -1.19209e-07
v 3.6 0 -1.19209e-07
v -2.4 0 -0.1
v -2.3 0 -0.1
v -2.2 0 -0.1
v -2.1 0 -0.1
v -1.8 0 -0.1
v -1.7 0 -0.1
v -1.6 0 -0.1
v -1.5 0 -0.1
v -0.9 0 -0.1
v -0.8 0 -0.1
v -0.7 0 -0.1
v 2 0 -0.1
v 2.1 0 -0.1
v 2.2 0 -0.1
v 2.7 0 -0.1
v 2.8 0 -0.1
v 2.9 0 -0.1
v 3.1 0 -0.1
v 3.4 0 -0.1
v 3.5 0 -0.1
v 3.6 0 -0.1
v 3.7 0 -0.1
v -2.1 0 -0.2
v -2 0 -0.2
v -1.9 0 -0.2
v -1.8 0 -0.2
v -1.7 0 -0.2
v -1.6 0 -0.2
v -1.5 0 -0.2
v 2.7 0 -0.2
v 2.8 0 -0.2
v 2.9 0 -0.2
v 3 0 -0.2
v 3.1 0 -0.2
v 3.2 0 -0.2
v 3.3 0 -0.2
v 3.4 0 -0.2
v -2.4 0 -0.3
v -2.3 0 -0.3
v -2.2 0 -0.3
v -2.1 0 -0.3
v -2 0 -0.3
v -1.9 0 -0.3
v -1.8 0 -0.3
v -1.7 0 -0.3
v -0.9 0 -0.3
v -0.8 0 -0.3
v -0.7 0 -0.3
v 2 0 -0.3
v 2.1 0 -0.3
v 2.2 0 -0.3
v 3 0 -0.3
v 3.1 0 -0.3
v 3.2 0 -0.3
v 3.3 0 -0.3
v 3.4 0 -0.3
v 3.5 0 -0.3
v 3.6 0 -0.3
v 3.7 0 -0.3
v -2.4 0 -0.4
v -2.3 0 -0.4
v -2.1 0 -0.4
v -2 0 -0.4
v -0.9 0 -0.4
v -0.8 0 -0.4
v 2.1 0 -0.4
v 2.2 0 -0.4
v 3.3 0 -0.4
v 3.4 0 -0.4
v 3.6 0 -0.4
v 3.7 0 -0.4
v -2.5 0 -0.5
v -2.4 0 -0.5
v -2.3 0 -0.5
v -2.2 0 -0.5
v -2.1 0 -0.5
v -0.8 0 -0.5
v -0.7 0 -0.5
v -0.6 0 -0.5
v 1.9 0 -0.5
v 2 0 -0.5
v 2.1 0 -0.5
v 3.4 0 -0.5
v 3.5 0 -0.5
v 3.6 0 -0.5
v 3.7 0 -0.5
v 3.8 0 -0.5
v -1.9 0 -0.6
v -1.8 0 -0.6
v -1.6 0 -0.6
v 2.9 0 -0.6
v 3.1 0 -0.6
v 3.2 0 -0.6
v -2.6 0 -0.7
v -2.5 0 -0.7
v -2.4 0 -0.7
v -2.3 0 -0.7
v -2.1 0 -0.7
v -2 0 -0.7
v -1.9 0 -0.7
v -1.8 0 -0.7
v -1.6 0 -0.7
v 2.9 0 -0.7
v 3.1 0 -0.7
v 3.2 0 -0.7
v 3.3 0 -0.7
v 3.4 0 -0.7
v 3.6 0 -0.7
v 3.7 0 -0.7
v 3.8 0 -0.7
v 3.9 0 -0.7
v -2.3 0 -0.8
v -2.2 0 -0.8
v -2.1 0 -0.8
v -2 0 -0.8
v -1.9 0 -0.8
v -1.8 0 -0.8
v -0.9 0 -0.8
v -0.8 0 -0.8
v -0.7 0 -0.8
v -0.6 0 -0.8
v 1.9 0 -0.8
v 2 0 -0.8
v 2.1 0 -0.8
v 2.2 0 -0.8
v 3.1 0 -0.8
v 3.2 0 -0.8
v 3.3 0 -0.8
v 3.4 0 -0.8
v 3.5 0 -0.8
v 3.6 0 -0.8
v -2.6 0 -0.9
v -2.5 0 -0.9
v -2.4 0 -0.9
v -2.3 0 -0.9
v -2.2 0 -0.9
v -2.1 0 -0.9
v -1 0 -0.9
v -0.9 0 -0.9
v -0.8 0 -0.9
v -0.7 0 -0.9
v 2 0 -0.9
v 2.1 0 -0.9
v 2.2 0 -0.9
v 2.3 0 -0.9
v 3.4 0 -0.9
v 3.5 0 -0.9
v 3.6 0 -0.9
v 3.7 0 -0.9
v 3.8 0 -0.9
v 3.9 0 -0.9
v -2.6 0 -1
v -2.5 0 -1
v -2.3 0 -1
v -2.2 0 -1
v -1.5 0 -1
v -1.3 0 -1
v -1 0 -1
v -0.9 0 -1
v -0.8 0 -1
v 2.1 0 -1
v 2.2 0 -1
v 2.3 0 -1
v 2.6 0 -1
v 2.8 0 -1
v 3.5 0 -1
v 3.6 0 -1
v 3.8 0 -1
v 3.9 0 -1
v -2.7 0 -1.1
v -2.6 0 -1.1
v -2.5 0 -1.1
v -2.4 0 -1.1
v -2.3 0 -1.1
v -1.9 0 -1.1
v -1.7 0 -1.1
v -1.5 0 -1.1
v -1.3 0 -1.1
v -0.9 0 -1.1
v 2.2 0 -1.1
v 2.6 0 -1.1
v 2.8 0 -1.1
v 3 0 -1.1
v 3.2 0 -1.1
v 3.6 0 -1.1
v 3.7 0 -1.1
v 3.8 0 -1.1
v 3.9 0 -1.1
v 4 0 -1.1
v -2.2 0 -1.2
v -2 0 -1.2
v -1.9 0 -1.2
v -1.7 0 -1.2
v -1.3 0 -1.2
v 2.6 0 -1.2
v 3 0 -1.2
v 3.2 0 -1.2
v 3.3 0 -1.2
v 3.5 0 -1.2
v -2.7 0 -1.3
v -2.6 0 -1.3
v -2.5 0 -1.3
v -2.4 0 -1.3
v -2.2 0 -1.3
v -2 0 -1.3
v -1.7 0 -1.3
v 3 0 -1.3
v 3.3 0 -1.3
v 3.5 0 -1.3
v 3.7 0 -1.3
v 3.8 0 -1.3
v 3.9 0 -1.3
v 4 0 -1.3
v -2.6 0 -1.4
v -2 0 -1.4
v 3.3 0 -1.4
v 3.9 0 -1.4
v -1.1 0.1 1.3
v 0 0.1 1.3
v 1.3 0.1 1.3
v 2.4 0.1 1.3
v -1.4 0.1 1.2
v -1.1 0.1 1.2
v -1 0.1 1.2
v -0.0999999 0.1 1.2
v 0 0.1 1.2
v 0.1 0.1 1.2
v 1.2 0.1 1.2
v 1.3 0.1 1.2
v 1.4 0.1 1.2
v 2.3 0.1 1.2
v 2.4 0.1 1.2
v 2.7 0.1 1.2
v -1.5 0.1 1.1
v -1.4 0.1 1.1
v -1.2 0.1 1.1
v -1.1 0.1 1.1
v -1 0.1 1.1
v -0.0999999 0.1 1.1
v 0 0.1 1.1
v 0.1 0.1 1.1
v 0.2 0.1 1.1
v 1.1 0.1 1.1
v 1.2 0.1 1.1
v 1.3 0.1 1.1
v 1.4 0.1 1.1
v 2.3 0.1 1.1
v 2.4 0.1 1.1
v 2.5 0.1 1.1
v 2.7 0.1 1.1
v 2.8 0.1 1.1
v -1.6 0.1 1
v -1.5 0.1 1
v -1.4 0.1 1
v -1.3 0.1 1
v -1.2 0.1 1
v 0 0.1 1
v 0.1 0.1 1
v 0.2 0.1 1
v 0.3 0.1 1
v 1 0.1 1
v 1.1 0.1 1
v 1.2 0.1 1
v 1.3 0.1 1
v 2.5 0.1 1
v 2.6 0.1 1
v 2.7 0.1 1
v 2.8 0.1 1
v 2.9 0.1 1
v -1.4 0.1 0.9
v -1.3 0.1 0.9
v -0.0999999 0.1 0.9
v 0 0.1 0.9
v 0.1 0.1 0.9
v 0.3 0.1 0.9
v 0.4 0.1 0.9
v 0.9 0.1 0.9
v 1 0.1 0.9
v 1.2 0.1 0.9
v 1.3 0.1 0.9
v 1.4 0.1 0.9
v 2.6 0.1 0.9
v 2.7 0.1 0.9
v -1.7 0.1 0.8
v -1.6 0.1 0.8
v -1.5 0.1 0.8
v -1.4 0.1 0.8
v -1.3 0.1 0.8
v -1.1 0.1 0.8
v -0.0999999 0.1 0.8
v 0 0.1 0.8
v 0.1 0.1 0.8
v 0.3 0.1 0.8
v 0.4 0.1 0.8
v 0.5 0.1 0.8
v 0.8 0.1 0.8
v 0.9 0.1 0.8
v 1 0.1 0.8
v 1.2 0.1 0.8
v 1.3 0.1 0.8
v 1.4 0.1 0.8
v 2.4 0.1 0.8
v 2.6 0.1 0.8
v 2.7 0.1 0.8
v 2.8 0.1 0.8
v 2.9 0.1 0.8
v 3 0.1 0.8
v -1.8 0.1 0.7
v -1.7 0.1 0.7
v -1.5 0.1 0.7
v -1.3 0.1 0.7
v -1.1 0.1 0.7
v -0.0999999 0.1 0.7
v 0 0.1 0.7
v 0.1 0.1 0.7
v 0.3 0.1 0.7
v 0.4 0.1 0.7
v 0.9 0.1 0.7
v 1 0.1 0.7
v 1.2 0.1 0.7
v 1.3 0.1 0.7
v 1.4 0.1 0.7
v 2.4 0.1 0.7
v 2.6 0.1 0.7
v 2.8 0.1 0.7
v 3 0.1 0.7
v 3.1 0.1 0.7
v -1.9 0.1 0.6
v -1.8 0.1 0.6
v -1.7 0.1 0.6
v -1.6 0.1 0.6
v -1.5 0.1 0.6
v -1.2 0.1 0.6
v -0.0999999 0.1 0.6
v 0 0.1 0.6
v 1.3 0.1 0.6
v 1.4 0.1 0.6
v 2.4 0.1 0.6
v 2.8 0.1 0.6
v 2.9 0.1 0.6
v 3 0.1 0.6
v 3.1 0.1 0.6
v 3.2 0.1 0.6
v -1.7 0.1 0.5
v -1.6 0.1 0.5
v -1.5 0.1 0.5
v -1.2 0.1 0.5
v -0.0999999 0.1 0.5
v 0 0.1 0.5
v 0.3 0.1 0.5
v 0.4 0.1 0.5
v 0.9 0.1 0.5
v 1 0.1 0.5
v 1.3 0.1 0.5
v 1.4 0.1 0.5
v 2.4 0.1 0.5
v 2.7 0.1 0.5
v 2.9 0.1 0.5
v 3 0.1 0.5
v -1.5 0.1 0.4
v -1.3 0.1 0.4
v 0.2 0.1 0.4
v 0.3 0.1 0.4
v 0.4 0.1 0.4
v 0.5 0.1 0.4
v 0.8 0.1 0.4
v 0.9 0.1 0.4
v 1 0.1 0.4
v 1.1 0.1 0.4
v 2.5 0.1 0.4
v 2.7 0.1 0.4
v -2 0.1 0.3
v -1.9 0.1 0.3
v -1.8 0.1 0.3
v -1.7 0.1 0.3
v -1.6 0.1 0.3
v -1.5 0.1 0.3
v -1.3 0.1 0.3
v -0.6 0.1 0.3
v -0.5 0.1 0.3
v 0.2 0.1 0.3
v 0.3 0.1 0.3
v 0.4 0.1 0.3
v 0.9 0.1 0.3
v 1 0.1 0.3
v 1.1 0.1 0.3
v 1.8 0.1 0.3
v 1.9 0.1 0.3
v 2.5 0.1 0.3
v 2.8 0.1 0.3
v 2.9 0.1 0.3
v 3 0.1 0.3
v 3.1 0.1 0.3
v 3.2 0.1 0.3
v 3.3 0.1 0.3
v -2.1 0.1 0.2
v -2 0.1 0.2
v -1.9 0.1 0.2
v -1.8 0.1 0.2
v -1.6 0.1 0.2
v -1.5 0.1 0.2
v -0.8 0.1 0.2
v -0.7 0.1 0.2
v -0.6 0.1 0.2
v -0.5 0.1 0.2
v 0.3 0.1 0.2
v 1 0.1 0.2
v 1.8 0.1 0.2
v 1.9 0.1 0.2
v 2 0.1 0.2
v 2.1 0.1 0.2
v 2.8 0.1 0.2
v 2.9 0.1 0.2
v 3.1 0.1 0.2
v 3.2 0.1 0.2
v 3.3 0.1 0.2
v 3.4 0.1 0.2
v -2.2 0.1 0.0999998
v -2.1 0.1 0.0999998
v -2 0.1 0.0999998
v -1.9 0.1 0.0999998
v -1.8 0.1 0.0999998
v -0.8 0.1 0.0999998
v -0.7 0.1 0.0999998
v -0.5 0.1 0.0999998
v 1.8 0.1 0.0999998
v 2 0.1 0.0999998
v 2.1 0.1 0.0999998
v 3.1 0.1 0.0999998
v 3.2 0.1 0.0999998
v 3.3 0.1 0.0999998
v 3.4 0.1 0.0999998
v 3.5 0.1 0.0999998
v -2.3 0.1 -1.19209e-07
v -2.2 0.1 -1.19209e-07
v -2.1 0.1 -1.19209e-07
v -2 0.1 -1.19209e-07
v -1.9 0.1 -1.19209e-07
v -0.9 0.1 -1.19209e-07
v -0.8 0.1 -1.19209e-07
v 2.1 0.1 -1.19209e-07
v 2.2 0.1 -1.19209e-07
v 3.2 0.1 -1.19209e-07
v 3.3 0.1 -1.19209e-07
v 3.4 0.1 -1.19209e-07
v 3.5 0.1 -1.19209e-07
v 3.6 0.1 -1.19209e-07
v -2.4 0.1 -0.1
v -2.3 0.1 -0.1
v -2.2 0.1 -0.1
v -2.1 0.1 -0.1
v -1.8 0.1 -0.1
v -1.7 0.1 -0.1
v -1.6 0.1 -0.1
v -1.5 0.1 -0.1
v -0.9 0.1 -0.1
v -0.8 0.1 -0.1
v -0.7 0.1 -0.1
v 2 0.1 -0.1
v 2.1 0.1 -0.1
v 2.2 0.1 -0.1
v 2.7 0.1 -0.1
v 2.8 0.1 -0.1
v 2.9 0.1 -0.1
v 3.1 0.1 -0.1
v 3.4 0.1 -0.1
v 3.5 0.1 -0.1
v 3.6 0.1 -0.1
v 3.7 0.1 -0.1
v -2.1 0.1 -0.2
v -2 0.1 -0.2
v -1.9 0.1 -0.2
v -1.8 0.1 -0.2
v -1.7 0.1 -0.2
v -1.6 0.1 -0.2
v -1.5 0.1 -0.2
v 2.7 0.1 -0.2
v 2.8 0.1 -0.2
v 2.9 0.1 -0.2
v 3 0.1 -0.2
v 3.1 0.1 -0.2
v 3.2 0.1 -0.2
v 3.3 0.1 -0.2
v 3.4 0.1 -0.2
v -2.4 0.1 -0.3
v -2.3 0.1 -0.3
v -2.2 0.1 -0.3
v -2.1 0.1 -0.3
v -2 0.1 -0.3
v -1.9 0.1 -0.3
v -1.8 0.1 -0.3
v -1.7 0.1 -0.3
v -0.9 0.1 -0.3
v -0.8 0.1 -0.3
v -0.7 0.1 -0.3
v 2 0.1 -0.3
v 2.1 0.1 -0.3
v 2.2 0.1 -0.3
v 3 0.1 -0.3
v 3.1 0.1 -0.3
v 3.2 0.1 -0.3
v 3.3 0.1 -0.3
v 3.4 0.1 -0.3
v 3.5 0.1 -0.3
v 3.6 0.1 -0.3
v 3.7 0.1 -0.3
v -2.4 0.1 -0.4
v -2.3 0.1 -0.4
v -2.1 0.1 -0.4
v -2 0.1 -0.4
v -0.9 0.1 -0.4
v -0.8 0.1 -0.4
v 2.1 0.1 -0.4
v 2.2 0.1 -0.4
v 3.3 0.1 -0.4
v 3.4 0.1 -0.4
v 3.6 0.1 -0.4
v 3.7 0.1 -0.4
v -2.5 0.1 -0.5
v -2.4 0.1 -0.5
v -2.3 0.1 -0.5
v -2.2 0.1 -0.5
v -2.1 0.1 -0.5
v -0.8 0.1 -0.5
v -0.7 0.1 -0.5
v -0.6 0.1 -0.5
v 1.9 0.1 -0.5
v 2 0.1 -0.5
v 2.1 0.1 -0.5
v 3.4 0.1 -0.5
v 3.5 0.1 -0.5
v 3.6 0.1 -0.5
v 3.7 0.1 -0.5
v 3.8 0.1 -0.5
v -1.9 0.1 -0.6
v -1.8 0.1 -0.6
v -1.6 0.1 -0.6
v 2.9 0.1 -0.6
v 3.1 0.1 -0.6
v 3.2 0.1 -0.6
v -2.6 0.1 -0.7
v -2.5 0.1 -0.7
v -2.4 0.1 -0.7
v -2.3 0.1 -0.7
v -2.1 0.1 -0.7
v -2 0.1 -0.7
v -1.9 0.1 -0.7
v -1.8 0.1 -0.7
v -1.6 0.1 -0.7
v 2.9 0.1 -0.7
v 3.1 0.1 -0.7
v 3.2 0.1 -0.7
v 3.3 0.1 -0.7
v 3.4 0.1 -0.7
v 3.6 0.1 -0.7
v 3.7 0.1 -0.7
v 3.8 0.1 -0.7
v 3.9 0.1 -0.7
v -2.3 0.1 -0.8
v -2.2 0.1 -0.8
v -2.1 0.1 -0.8
v -2 0.1 -0.8
v -1.9 0.1 -0.8
v -1.8 0.1 -0.8
v -0.9 0.1 -0.8
v -0.8 0.1 -0.8
v -0.7 0.1 -0.8
v -0.6 0.1 -0.8
v 1.9 0.1 -0.8
v 2 0.1 -0.8
v 2.1 0.1 -0.8
v 2.2 0.1 -0.8
v 3.1 0.1 -0.8
v 3.2 0.1 -0.8
v 3.3 0.1 -0.8
v 3.4 0.1 -0.8
v 3.5 0.1 -0.8
v 3.6 0.1 -0.8
v -2.6 0.1 -0.9
v -2.5 0.1 -0.9
v -2.4 0.1 -0.9
v -2.3 0.1 -0.9
v -2.2 0.1 -0.9
v -2.1 0.1 -0.9
v -1 0.1 -0.9
v -0.9 0.1 -0.9
v -0.8 0.1 -0.9
v -0.7 0.1 -0.9
v 2 0.1 -0.9
v 2.1 0.1 -0.9
v 2.2 0.1 -0.9
v 2.3 0.1 -0.9
v 3.4 0.1 -0.9
v 3.5 0.1 -0.9
v 3.6 0.1 -0.9
v 3.7 0.1 -0.9
v 3.8 0.1 -0.9
v 3.9 0.1 -0.9
v -2.6 0.1 -1
v -2.5 0.1 -1
v -2.3 0.1 -1
v -2.2 0.1 -1
v -1.5 0.1 -1
v -1.3 0.1 -1
v -1 0.1 -1
v -0.9 0.1 -1
v -0.8 0.1 -1
v 2.1 0.1 -1
v 2.2 0.1 -1
v 2.3 0.1 -1
v 2.6 0.1 -1
v 2.8 0.1 -1
v 3.5 0.1 -1
v 3.6 0.1 -1
v 3.8 0.1 -1
v 3.9 0.1 -1
v -2.7 0.1 -1.1
v -2.6 0.1 -1.1
v -2.5 0.1 -1.1
v -2.4 0.1 -1.1
v -2.3 0.1 -1.1
v -1.9 0.1 -1.1
v -1.7 0.1 -1.1
v -1.5 0.1 -1.1
v -1.3 0.1 -1.1
v -0.9 0.1 -1.1
v 2.2 0.1 -1.1
v 2.6 0.1 -1.1
v 2.8 0.1 -1.1
v 3 0.1 -1.1
v 3.2 0.1 -1.1
v 3.6 0.1 -1.1
v 3.7 0.1 -1.1
v 3.8 0.1 -1.1
v 3.9 0.1 -1.1
v 4 0.1 -1.1
v -2.2 0.1 -1.2
v -2 0.1 -1.2
v -1.9 0.1 -1.2
v -1.7 0.1 -1.2
v -1.3 0.1 -1.2
v 2.6 0.1 -1.2
v 3 0.1 -1.2
v 3.2 0.1 -1.2
v 3.3 0.1 -1.2
v 3.5 0.1 -1.2
v -2.7 0.1 -1.3
v -2.6 0.1 -1.3
v -2.5 0.1 -1.3
v -2.4 0.1 -1.3
v -2.2 0.1 -1.3
v -2 0.1 -1.3
v -1.7 0.1 -1.3
v 3 0.1 -1.3
v 3.3 0.1 -1.3
v 3.5 0.1 -1.3
v 3.7 0.1 -1.3
v 3.8 0.1 -1.3
v 3.9 0.1 -1.3
v 4 0.1 -1.3
v -2.6 0.1 -1.4
v -2 0.1 -1.4
v 3.3 0.1 -1.4
v 3.9 0.1 -1.4

# faces
f 3/1/1 2/1/1 1/1/1
f 4/1/1 2/1/1 3/1/1
f 11/1/1 6/1/1 5/1/1
f 12/1/1 6/1/1 11/1/1
f 13/1/1 8/1/1 7/1/1
f 14/1/1 8/1/1 13/1/1
f 15/1/1 10/1/1 9/1/1
f 16/1/1 10/1/1 15/1/1
f 21/1/1 18/1/1 17/1/1
f 22/1/1 18/1/1 21/1/1
f 23/1/1 20/1/1 19/1/1
f 24/1/1 20/1/1 23/1/1
f 29/1/1 26/1/1 25/1/1
f 30/1/1 26/1/1 29/1/1
f 31/1/1 28/1/1 27/1/1
f 32/1/1 28/1/1 31/1/1
f 37/1/1 34/1/1 33/1/1
f 38/1/1 34/1/1 37/1/1
f 39/1/1 36/1/1 35/1/1
f 40/1/1 36/1/1 39/1/1
f 43/1/1 42/1/1 41/1/1
f 44/1/1 42/1/1 43/1/1
f 47/1/1 46/1/1 45/1/1
f 48/1/1 46/1/1 47/1/1
f 51/1/1 50/1/1 49/1/1
f 52/1/1 50/1/1 51/1/1
f 55/1/1 54/1/1 53/1/1
f 56/1/1 54/1/1 55/1/1
f 59/1/1 58/1/1 57/1/1
f 60/1/1 58/1/1 59/1/1
f 63/1/1 62/1/1 61/1/1
f 64/1/1 62/1/1 63/1/1
f 67/1/1 66/1/1 65/1/1
f 68/1/1 66/1/1 67/1/1
f 71/1/1 70/1/1 69/1/1
f 72/1/1 70/1/1 71/1/1
f 75/1/1 74/1/1 73/1/1
f 76/1/1 74/1/1 75/1/1
f 79/1/1 78/1/1 77/1/1
f 80/1/1 78/1/1 79/1/1
f 83/1/1 82/1/1 81/1/1
f 84/1/1 82/1/1 83/1/1
f 89/1/1 86/1/1 85/1/1
f 90/1/1 86/1/1 89/1/1
f 91/1/1 88/1/1 87/1/1
f 92/1/1 88/1/1 91/1/1
f 97/1/1 94/1/1 93/1/1
f 98/1/1 94/1/1 97/1/1
f 99/1/1 96/1/1 95/1/1
f 100/1/1 96/1/1 99/1/1
f 103/1/1 102/1/1 101/1/1
f 104/1/1 102/1/1 103/1/1
f 107/1/1 106/1/1 105/1/1
f 108/1/1 106/1/1 107/1/1
f 111/1/1 110/1/1 109/1/1
f 112/1/1 110/1/1 111/1/1
f 115/1/1 114/1/1 113/1/1
f 116/1/1 114/1/1 115/1/1
f 119/1/1 118/1/1 117/1/1
f 120/1/1 118/1/1 119/1/1
f 127/1/1 122/1/1 121/1/1
f 128/1/1 122/1/1 127/1/1
f 129/1/1 124/1/1 123/1/1
f 130/1/1 124/1/1 129/1/1
f 131/1/1 126/1/1 125/1/1
f 132/1/1 126/1/1 131/1/1
f 137/1/1 134/1/1 133/1/1
f 138/1/1 134/1/1 137/1/1
f 139/1/1 136/1/1 135/1/1
f 140/1/1 136/1/1 139/1/1
f 143/1/1 142/1/1 141/1/1
f 144/1/1 142/1/1 143/1/1
f 147/1/1 146/1/1 145/1/1
f 148/1/1 146/1/1 147/1/1
f 151/1/1 150/1/1 149/1/1
f 152/1/1 150/1/1 151/1/1
f 155/1/1 154/1/1 153/1/1
f 156/1/1 154/1/1 155/1/1
f 157/1/2 158/1/2 159/1/2
f 159/1/2 158/1/2 160/1/2
f 161/1/2 162/1/2 163/1/2
f 163/1/2 162/1/2 164/1/2
f 165/1/2 166/1/2 167/1/2
f 167/1/2 166/1/2 168/1/2
f 169/1/2 170/1/2 171/1/2
f 171/1/2 170/1/2 172/1/2
f 173/1/2 174/1/2 177/1/2
f 177/1/2 174/1/2 178/1/2
f 175/1/2 176/1/2 179/1/2
f 179/1/2 176/1/2 180/1/2
f 181/1/2 182/1/2 187/1/2
f 187/1/2 182/1/2 188/1/2
f 183/1/2 184/1/2 189/1/2
f 189/1/2 184/1/2 190/1/2
f 185/1/2 186/1/2 191/1/2
f 191/1/2 186/1/2 192/1/2
f 193/1/2 194/1/2 195/1/2
f 195/1/2 194/1/2 196/1/2
f 197/1/2 198/1/2 199/1/2
f 199/1/2 198/1/2 200/1/2
f 201/1/2 202/1/2 203/1/2
f 203/1/2 202/1/2 204/1/2
f 205/1/2 206/1/2 207/1/2
f 207/1/2 206/1/2 208/1/2
f 209/1/2 210/1/2 211/1/2
f 211/1/2 210/1/2 212/1/2
f 213/1/2 214/1/2 217/1/2
f 217/1/2 214/1/2 218/1/2
f 215/1/2 216/1/2 219/1/2
f 219/1/2 216/1/2 220/1/2
f 221/1/2 222/1/2 225/1/2
f 225/1/2 222/1/2 226/1/2
f 223/1/2 224/1/2 227/1/2
f 227/1/2 224/1/2 228/1/2
f 229/1/2 230/1/2 231/1/2
f 231/1/2 230/1/2 232/1/2
f 233/1/2 234/1/2 235/1/2
f 235/1/2 234/1/2 236/1/2
f 237/1/2 238/1/2 239/1/2
f 239/1/2 238/1/2 240/1/2
f 241/1/2 242/1/2 243/1/2
f 243/1/2 242/1/2 244/1/2
f 245/1/2 246/1/2 247/1/2
f 247/1/2 246/1/2 248/1/2
f 249/1/2 250/1/2 251/1/2
f 251/1/2 250/1/2 252/1/2
f 253/1/2 254/1/2 255/1/2
f 255/1/2 254/1/2 256/1/2
f 257/1/2 258/1/2 259/1/2
f 259/1/2 258/1/2 260/1/2
f 261/1/2 262/1/2 263/1/2
f 263/1/2 262/1/2 264/1/2
f 265/1/2 266/1/2 267/1/2
f 267/1/2 266/1/2 268/1/2
f 269/1/2 270/1/2 271/1/2
f 271/1/2 270/1/2 272/1/2
f 273/1/2 274/1/2 277/1/2
f 277/1/2 274/1/2 278/1/2
f 275/1/2 276/1/2 279/1/2
f 279/1/2 276/1/2 280/1/2
f 281/1/2 282/1/2 285/1/2
f 285/1/2 282/1/2 286/1/2
f 283/1/2 284/1/2 287/1/2
f 287/1/2 284/1/2 288/1/2
f 289/1/2 290/1/2 293/1/2
f 293/1/2 290/1/2 294/1/2
f 291/1/2 292/1/2 295/1/2
f 295/1/2 292/1/2 296/1/2
f 297/1/2 298/1/2 303/1/2
f 303/1/2 298/1/2 304/1/2
f 299/1/2 300/1/2 305/1/2
f 305/1/2 300/1/2 306/1/2
f 301/1/2 302/1/2 307/1/2
f 307/1/2 302/1/2 308/1/2
f 309/1/2 310/1/2 311/1/2
f 311/1/2 310/1/2 312/1/2
f 315/1/3 314/1/3 313/1/3
f 316/1/3 314/1/3 315/1/3
f 319/1/3 318/1/3 317/1/3
f 320/1/3 318/1/3 319/1/3
f 323/1/3 322/1/3 321/1/3
f 324/1/3 322/1/3 323/1/3
f 327/1/3 326/1/3 325/1/3
f 328/1/3 326/1/3 327/1/3
f 331/1/3 330/1/3 329/1/3
f 332/1/3 330/1/3 331/1/3
f 335/1/3 334/1/3 333/1/3
f 336/1/3 334/1/3 335/1/3
f 339/1/3 338/1/3 337/1/3
f 340/1/3 338/1/3 339/1/3
f 343/1/3 342/1/3 341/1/3
f 344/1/3 342/1/3 343/1/3
f 347/1/3 346/1/3 345/1/3
f 348/1/3 346/1/3 347/1/3
f 351/1/3 350/1/3 349/1/3
f 352/1/3 350/1/3 351/1/3
f 355/1/3 354/1/3 353/1/3
f 356/1/3 354/1/3 355/1/3
f 359/1/3 358/1/3 357/1/3
f 360/1/3 358/1/3 359/1/3
f 363/1/3 362/1/3 361/1/3
f 364/1/3 362/1/3 363/1/3
f 367/1/3 366/1/3 365/1/3
f 368/1/3 366/1/3 367/1/3
f 371/1/3 370/1/3 369/1/3
f 372/1/3 370/1/3 371/1/3
f 375/1/3 374/1/3 373/1/3
f 376/1/3 374/1/3 375/1/3
f 379/1/3 378/1/3 377/1/3
f 380/1/3 378/1/3 379/1/3
f 383/1/3 382/1/3 381/1/3
f 384/1/3 382/1/3 383/1/3
f 387/1/3 386/1/3 385/1/3
f 388/1/3 386/1/3 387/1/3
f 391/1/3 390/1/3 389/1/3
f 392/1/3 390/1/3 391/1/3
f 395/1/3 394/1/3 393/1/3
f 396/1/3 394/1/3 395/1/3
f 399/1/3 398/1/3 397/1/3
f 400/1/3 398/1/3 399/1/3
f 403/1/3 402/1/3 401/1/3
f 404/1/3 402/1/3 403/1/3
f 407/1/3 406/1/3 405/1/3
f 408/1/3 406/1/3 407/1/3
f 411/1/3 410/1/3 409/1/3
f 412/1/3 410/1/3 411/1/3
f 415/1/3 414/1/3 413/1/3
f 416/1/3 414/1/3 415/1/3
f 419/1/3 418/1/3 417/1/3
f 420/1/3 418/1/3 419/1/3
f 423/1/3 422/1/3 421/1/3
f 424/1/3 422/1/3 423/1/3
f 427/1/3 426/1/3 425/1/3
f 428/1/3 426/1/3 427/1/3
f 431/1/3 430/1/3 429/1/3
f 432/1/3 430/1/3 431/1/3
f 435/1/3 434/1/3 433/1/3
f 436/1/3 434/1/3 435/1/3
f 439/1/3 438/1/3 437/1/3
f 440/1/3 438/1/3 439/1/3
f 443/1/3 442/1/3 441/1/3
f 444/1/3 442/1/3 443/1/3
f 447/1/3 446/1/3 445/1/3
f 448/1/3 446/1/3 447/1/3
f 451/1/3 450/1/3 449/1/3
f 452/1/3 450/1/3 451/1/3
f 455/1/3 454/1/3 453/1/3
f 456/1/3 454/1/3 455/1/3
f 459/1/3 458/1/3 457/1/3
f 460/1/3 458/1/3 459/1/3
f 463/1/3 462/1/3 461/1/3
f 464/1/3 462/1/3 463/1/3
f 467/1/3 466/1/3 465/1/3
f 468/1/3 466/1/3 467/1/3
f 471/1/3 470/1/3 469/1/3
f 472/1/3 470/1/3 471/1/3
f 475/1/3 474/1/3 473/1/3
f 476/1/3 474/1/3 475/1/3
f 479/1/3 478/1/3 477/1/3
f 480/1/3 478/1/3 479/1/3
f 483/1/3 482/1/3 481/1/3
f 484/1/3 482/1/3 483/1/3
f 487/1/3 486/1/3 485/1/3
f 488/1/3 486/1/3 487/1/3
f 491/1/3 490/1/3 489/1/3
f 492/1/3 490/1/3 491/1/3
f 495/1/3 494/1/3 493/1/3
f 496/1/3 494/1/3 495/1/3
f 499/1/3 498/1/3 497/1/3
f 500/1/3 498/1/3 499/1/3
f 503/1/3 502/1/3 501/1/3
f 504/1/3 502/1/3 503/1/3
f 505/1/4 506/1/4 507/1/4
f 507/1/4 506/1/4 508/1/4
f 509/1/4 510/1/4 511/1/4
f 511/1/4 510/1/4 512/1/4
f 513/1/4 514/1/4 515/1/4
f 515/1/4 514/1/4 516/1/4
f 517/1/4 518/1/4 519/1/4
f 519/1/4 518/1/4 520/1/4
f 521/1/4 522/1/4 523/1/4
f 523/1/4 522/1/4 524/1/4
f 525/1/4 526/1/4 527/1/4
f 527/1/4 526/1/4 528/1/4
f 529/1/4 530/1/4 531/1/4
f 531/1/4 530/1/4 532/1/4
f 533/1/4 534/1/4 535/1/4
f 535/1/4 534/1/4 536/1/4
f 537/1/4 538/1/4 539/1/4
f 539/1/4 538/1/4 540/1/4
f 541/1/4 542/1/4 543/1/4
f 543/1/4 542/1/4 544/1/4
f 545/1/4 546/1/4 547/1/4
f 547/1/4 546/1/4 548/1/4
f 549/1/4 550/1/4 551/1/4
f 551/1/4 550/1/4 552/1/4
f 553/1/4 554/1/4 555/1/4
f 555/1/4 554/1/4 556/1/4
f 557/1/4 558/1/4 559/1/4
f 559/1/4 558/1/4 560/1/4
f 561/1/4 562/1/4 563/1/4
f 563/1/4 562/1/4 564/1/4
f 565/1/4 566/1/4 567/1/4
f 567/1/4 566/1/4 568/1/4
f 569/1/4 570/1/4 571/1/4
f 571/1/4 570/1/4 572/1/4
f 573/1/4 574/1/4 575/1/4
f 575/1/4 574/1/4 576/1/4
f 577/1/4 578/1/4 579/1/4
f 579/1/4 578/1/4 580/1/4
f 581/1/4 582/1/4 583/1/4
f 583/1/4 582/1/4 584/1/4
f 585/1/4 586/1/4 587/1/4
f 587/1/4 586/1/4 588/1/4
f 589/1/4 590/1/4 591/1/4
f 591/1/4 590/1/4 592/1/4
f 593/1/4 594/1/4 595/1/4
f 595/1/4 594/1/4 596/1/4
f 597/1/4 598/1/4 599/1/4
f 599/1/4 598/1/4 600/1/4
f 601/1/4 602/1/4 603/1/4
f 603/1/4 602/1/4 604/1/4
f 605/1/4 606/1/4 607/1/4
f 607/1/4 606/1/4 608/1/4
f 609/1/4 610/1/4 611/1/4
f 611/1/4 610/1/4 612/1/4
f 613/1/4 614/1/4 615/1/4
f 615/1/4 614/1/4 616/1/4
f 617/1/4 618/1/4 619/1/4
f 619/1/4 618/1/4 620/1/4
f 621/1/4 622/1/4 623/1/4
f 623/1/4 622/1/4 624/1/4
f 630/1/5 626/1/5 625/1/5
f 631/1/5 626/1/5 630/1/5
f 632/1/5 626/1/5 631/1/5
f 633/1/5 626/1/5 632/1/5
f 636/1/5 628/1/5 627/1/5
f 637/1/5 628/1/5 636/1/5
f 638/1/5 628/1/5 637/1/5
f 639/1/5 628/1/5 638/1/5
f 642/1/5 630/1/5 629/1/5
f 643/1/5 630/1/5 642/1/5
f 644/6/5 631/6/5 630/6/5
f 644/1/5 630/1/5 643/1/5
f 645/4/5 632/4/5 631/4/5
f 645/6/5 631/6/5 644/6/5
f 646/6/5 633/6/5 632/6/5
f 646/4/5 632/4/5 645/4/5
f 647/1/5 634/1/5 633/1/5
f 647/6/5 633/6/5 646/6/5
f 648/1/5 634/1/5 647/1/5
f 651/1/5 636/1/5 635/1/5
f 652/6/5 637/6/5 636/6/5
f 652/1/5 636/1/5 651/1/5
f 653/4/5 638/4/5 637/4/5
f 653/6/5 637/6/5 652/6/5
f 654/6/5 639/6/5 638/6/5
f 654/4/5 638/4/5 653/4/5
f 655/1/5 640/1/5 639/1/5
f 655/6/5 639/6/5 654/6/5
f 656/1/5 640/1/5 655/1/5
f 657/1/5 640/1/5 656/1/5
f 660/1/5 642/1/5 641/1/5
f 661/6/5 643/6/5 642/6/5
f 661/1/5 642/1/5 660/1/5
f 662/6/5 643/6/5 661/6/5
f 663/4/5 646/4/5 645/4/5
f 663/6/5 643/6/5 662/6/5
f 663/4/5 644/4/5 643/4/5
f 663/4/5 645/4/5 644/4/5
f 663/4/5 647/4/5 646/4/5
f 664/6/5 648/6/5 647/6/5
f 664/4/5 647/4/5 663/4/5
f 665/1/5 649/1/5 648/1/5
f 665/6/5 648/6/5 664/6/5
f 666/1/5 649/1/5 665/1/5
f 669/1/5 651/1/5 650/1/5
f 670/6/5 652/6/5 651/6/5
f 670/1/5 651/1/5 669/1/5
f 671/4/5 654/4/5 653/4/5
f 671/6/5 652/6/5 670/6/5
f 671/4/5 653/4/5 652/4/5
f 671/4/5 655/4/5 654/4/5
f 671/4/5 656/4/5 655/4/5
f 672/6/5 657/6/5 656/6/5
f 672/4/5 656/4/5 671/4/5
f 673/6/5 657/6/5 672/6/5
f 674/1/5 658/1/5 657/1/5
f 674/6/5 657/6/5 673/6/5
f 675/1/5 658/1/5 674/1/5
f 677/6/5 662/6/5 661/6/5
f 677/6/5 661/6/5 660/6/5
f 678/4/5 664/4/5 663/4/5
f 678/6/5 662/6/5 677/6/5
f 678/4/5 663/4/5 662/4/5
f 679/4/5 664/4/5 678/4/5
f 680/1/5 667/1/5 666/1/5
f 680/4/5 664/4/5 679/4/5
f 680/1/5 666/1/5 665/1/5
f 680/1/5 665/1/5 664/1/5
f 681/1/5 667/1/5 680/1/5
f 682/1/5 667/1/5 681/1/5
f 685/1/5 670/1/5 669/1/5
f 685/1/5 669/1/5 668/1/5
f 685/1/5 671/1/5 670/1/5
f 686/1/5 671/1/5 685/1/5
f 687/4/5 673/4/5 672/4/5
f 687/1/5 671/1/5 686/1/5
f 687/4/5 672/4/5 671/4/5
f 688/4/5 673/4/5 687/4/5
f 689/6/5 675/6/5 674/6/5
f 689/4/5 673/4/5 688/4/5
f 689/6/5 674/6/5 673/6/5
f 690/6/5 675/6/5 689/6/5
f 692/1/5 660/1/5 659/1/5
f 693/6/5 677/6/5 660/6/5
f 693/1/5 660/1/5 692/1/5
f 694/4/5 679/4/5 678/4/5
f 694/6/5 677/6/5 693/6/5
f 694/4/5 678/4/5 677/4/5
f 695/4/5 679/4/5 694/4/5
f 696/4/5 679/4/5 695/4/5
f 697/1/5 680/1/5 679/1/5
f 697/4/5 679/4/5 696/4/5
f 698/6/5 681/6/5 680/6/5
f 698/1/5 680/1/5 697/1/5
f 699/4/5 682/4/5 681/4/5
f 699/6/5 681/6/5 698/6/5
f 700/1/5 683/1/5 682/1/5
f 700/4/5 682/4/5 699/4/5
f 701/1/5 683/1/5 700/1/5
f 704/1/5 685/1/5 684/1/5
f 705/4/5 686/4/5 685/4/5
f 705/1/5 685/1/5 704/1/5
f 706/6/5 687/6/5 686/6/5
f 706/4/5 686/4/5 705/4/5
f 707/1/5 688/1/5 687/1/5
f 707/6/5 687/6/5 706/6/5
f 708/4/5 689/4/5 688/4/5
f 708/1/5 688/1/5 707/1/5
f 708/4/5 690/4/5 689/4/5
f 709/4/5 690/4/5 708/4/5
f 710/4/5 690/4/5 709/4/5
f 711/6/5 675/6/5 690/6/5
f 711/4/5 690/4/5 710/4/5
f 712/1/5 676/1/5 675/1/5
f 712/6/5 675/6/5 711/6/5
f 713/1/5 676/1/5 712/1/5
f 716/1/5 692/1/5 691/1/5
f 716/1/5 693/1/5 692/1/5
f 716/1/5 694/1/5 693/1/5
f 716/1/5 695/1/5 694/1/5
f 717/1/5 695/1/5 716/1/5
f 718/6/5 696/6/5 695/6/5
f 718/1/5 695/1/5 717/1/5
f 719/3/5 697/3/5 696/3/5
f 719/6/5 696/6/5 718/6/5
f 720/1/5 698/1/5 697/1/5
f 720/3/5 697/3/5 719/3/5
f 721/4/5 699/4/5 698/4/5
f 721/1/5 698/1/5 720/1/5
f 722/2/5 700/2/5 699/2/5
f 722/4/5 699/4/5 721/4/5
f 723/4/5 701/4/5 700/4/5
f 723/2/5 700/2/5 722/2/5
f 724/1/5 702/1/5 701/1/5
f 724/4/5 701/4/5 723/4/5
f 725/1/5 704/1/5 703/1/5
f 725/4/5 705/4/5 704/4/5
f 726/2/5 706/2/5 705/2/5
f 726/4/5 705/4/5 725/4/5
f 727/4/5 707/4/5 706/4/5
f 727/2/5 706/2/5 726/2/5
f 728/1/5 708/1/5 707/1/5
f 728/4/5 707/4/5 727/4/5
f 729/3/5 709/3/5 708/3/5
f 729/1/5 708/1/5 728/1/5
f 730/6/5 710/6/5 709/6/5
f 730/3/5 709/3/5 729/3/5
f 731/1/5 711/1/5 710/1/5
f 731/6/5 710/6/5 730/6/5
f 731/1/5 714/1/5 713/1/5
f 731/1/5 713/1/5 712/1/5
f 731/1/5 712/1/5 711/1/5
f 732/1/5 714/1/5 731/1/5
f 733/1/5 714/1/5 732/1/5
f 736/1/5 716/1/5 715/1/5
f 737/6/5 717/6/5 716/6/5
f 737/1/5 716/1/5 736/1/5
f 738/6/5 717/6/5 737/6/5
f 739/3/5 720/3/5 719/3/5
f 739/6/5 717/6/5 738/6/5
f 739/3/5 719/3/5 718/3/5
f 739/3/5 718/3/5 717/3/5
f 740/3/5 720/3/5 739/3/5
f 741/6/5 721/6/5 720/6/5
f 741/3/5 720/3/5 740/3/5
f 742/2/5 724/2/5 723/2/5
f 742/6/5 721/6/5 741/6/5
f 742/2/5 723/2/5 722/2/5
f 742/2/5 722/2/5 721/2/5
f 743/6/5 729/6/5 728/6/5
f 743/2/5 726/2/5 725/2/5
f 743/2/5 727/2/5 726/2/5
f 743/2/5 728/2/5 727/2/5
f 744/3/5 730/3/5 729/3/5
f 744/6/5 729/6/5 743/6/5
f 744/3/5 732/3/5 731/3/5
f 744/3/5 731/3/5 730/3/5
f 745/3/5 732/3/5 744/3/5
f 746/6/5 733/6/5 732/6/5
f 746/3/5 732/3/5 745/3/5
f 747/6/5 733/6/5 746/6/5
f 748/1/5 734/1/5 733/1/5
f 748/6/5 733/6/5 747/6/5
f 749/1/5 734/1/5 748/1/5
f 751/6/5 738/6/5 737/6/5
f 751/6/5 737/6/5 736/6/5
f 752/3/5 739/3/5 738/3/5
f 752/6/5 738/6/5 751/6/5
f 752/3/5 740/3/5 739/3/5
f 753/3/5 740/3/5 752/3/5
f 754/2/5 741/2/5 740/2/5
f 754/3/5 740/3/5 753/3/5
f 755/3/5 742/3/5 741/3/5
f 755/2/5 741/2/5 754/2/5
f 756/2/5 724/2/5 742/2/5
f 756/3/5 742/3/5 755/3/5
f 757/2/5 724/2/5 756/2/5
f 758/1/5 702/1/5 724/1/5
f 758/2/5 724/2/5 757/2/5
f 759/2/5 743/2/5 725/2/5
f 759/1/5 725/1/5 703/1/5
f 760/2/5 743/2/5 759/2/5
f 761/3/5 744/3/5 743/3/5
f 761/2/5 743/2/5 760/2/5
f 762/2/5 745/2/5 744/2/5
f 762/3/5 744/3/5 761/3/5
f 763/3/5 747/3/5 746/3/5
f 763/2/5 745/2/5 762/2/5
f 763/3/5 746/3/5 745/3/5
f 764/3/5 747/3/5 763/3/5
f 765/6/5 749/6/5 748/6/5
f 765/3/5 747/3/5 764/3/5
f 765/6/5 748/6/5 747/6/5
f 766/6/5 749/6/5 765/6/5
f 767/2/5 755/2/5 754/2/5
f 767/2/5 757/2/5 756/2/5
f 767/3/5 753/3/5 752/3/5
f 767/2/5 754/2/5 753/2/5
f 767/2/5 756/2/5 755/2/5
f 767/3/5 752/3/5 751/3/5
f 768/2/5 757/2/5 767/2/5
f 769/2/5 757/2/5 768/2/5
f 770/4/5 758/4/5 757/4/5
f 770/2/5 757/2/5 769/2/5
f 771/1/5 702/1/5 758/1/5
f 771/4/5 758/4/5 770/4/5
f 772/1/5 702/1/5 771/1/5
f 773/1/5 759/1/5 703/1/5
f 774/4/5 760/4/5 759/4/5
f 774/1/5 759/1/5 773/1/5
f 775/2/5 762/2/5 761/2/5
f 775/4/5 760/4/5 774/4/5
f 775/2/5 764/2/5 763/2/5
f 775/2/5 761/2/5 760/2/5
f 775/2/5 763/2/5 762/2/5
f 776/2/5 764/2/5 775/2/5
f 777/2/5 764/2/5 776/2/5
f 778/3/5 766/3/5 765/3/5
f 778/2/5 764/2/5 777/2/5
f 778/3/5 765/3/5 764/3/5
f 780/1/5 736/1/5 735/1/5
f 781/6/5 751/6/5 736/6/5
f 781/1/5 736/1/5 780/1/5
f 782/3/5 768/3/5 767/3/5
f 782/6/5 751/6/5 781/6/5
f 782/3/5 767/3/5 751/3/5
f 783/3/5 768/3/5 782/3/5
f 784/3/5 768/3/5 783/3/5
f 785/2/5 769/2/5 768/2/5
f 785/3/5 768/3/5 784/3/5
f 786/2/5 769/2/5 785/2/5
f 787/2/5 769/2/5 786/2/5
f 788/4/5 770/4/5 769/4/5
f 788/2/5 769/2/5 787/2/5
f 789/1/5 771/1/5 770/1/5
f 789/4/5 770/4/5 788/4/5
f 790/1/5 771/1/5 789/1/5
f 791/1/5 775/1/5 774/1/5
f 792/4/5 776/4/5 775/4/5
f 792/1/5 775/1/5 791/1/5
f 793/2/5 777/2/5 776/2/5
f 793/4/5 776/4/5 792/4/5
f 794/2/5 777/2/5 793/2/5
f 795/2/5 777/2/5 794/2/5
f 796/3/5 778/3/5 777/3/5
f 796/2/5 777/2/5 795/2/5
f 797/3/5 766/3/5 778/3/5
f 797/3/5 778/3/5 796/3/5
f 798/3/5 766/3/5 797/3/5
f 799/6/5 749/6/5 766/6/5
f 799/3/5 766/3/5 798/3/5
f 800/1/5 750/1/5 749/1/5
f 800/6/5 749/6/5 799/6/5
f 801/1/5 750/1/5 800/1/5
f 804/1/5 780/1/5 779/1/5
f 804/1/5 781/1/5 780/1/5
f 804/1/5 782/1/5 781/1/5
f 804/1/5 783/1/5 782/1/5
f 805/1/5 783/1/5 804/1/5
f 806/1/5 783/1/5 805/1/5
f 807/3/5 784/3/5 783/3/5
f 807/1/5 783/1/5 806/1/5
f 808/2/5 785/2/5 784/2/5
f 808/3/5 784/3/5 807/3/5
f 808/2/5 786/2/5 785/2/5
f 809/2/5 786/2/5 808/2/5
f 810/2/5 786/2/5 809/2/5
f 811/4/5 787/4/5 786/4/5
f 811/2/5 786/2/5 810/2/5
f 812/1/5 788/1/5 787/1/5
f 812/4/5 787/4/5 811/4/5
f 812/1/5 789/1/5 788/1/5
f 813/1/5 789/1/5 812/1/5
f 814/1/5 794/1/5 793/1/5
f 814/1/5 793/1/5 792/1/5
f 815/4/5 795/4/5 794/4/5
f 815/1/5 794/1/5 814/1/5
f 816/2/5 796/2/5 795/2/5
f 816/4/5 795/4/5 815/4/5
f 816/2/5 797/2/5 796/2/5
f 817/2/5 797/2/5 816/2/5
f 818/2/5 797/2/5 817/2/5
f 819/3/5 798/3/5 797/3/5
f 819/2/5 797/2/5 818/2/5
f 820/1/5 799/1/5 798/1/5
f 820/3/5 798/3/5 819/3/5
f 820/1/5 802/1/5 801/1/5
f 820/1/5 800/1/5 799/1/5
f 820/1/5 801/1/5 800/1/5
f 821/1/5 802/1/5 820/1/5
f 822/1/5 802/1/5 821/1/5
f 823/1/5 802/1/5 822/1/5
f 826/1/5 804/1/5 803/1/5
f 827/6/5 805/6/5 804/6/5
f 827/1/5 804/1/5 826/1/5
f 828/4/5 806/4/5 805/4/5
f 828/6/5 805/6/5 827/6/5
f 829/2/5 808/2/5 807/2/5
f 829/4/5 806/4/5 828/4/5
f 829/2/5 807/2/5 806/2/5
f 829/2/5 809/2/5 808/2/5
f 830/4/5 810/4/5 809/4/5
f 830/2/5 809/2/5 829/2/5
f 831/1/5 811/1/5 810/1/5
f 831/4/5 810/4/5 830/4/5
f 831/1/5 812/1/5 811/1/5
f 832/1/5 812/1/5 831/1/5
f 833/1/5 817/1/5 816/1/5
f 833/1/5 816/1/5 815/1/5
f 834/4/5 818/4/5 817/4/5
f 834/1/5 817/1/5 833/1/5
f 835/2/5 819/2/5 818/2/5
f 835/4/5 818/4/5 834/4/5
f 835/2/5 820/2/5 819/2/5
f 835/2/5 821/2/5 820/2/5
f 836/4/5 822/4/5 821/4/5
f 836/2/5 821/2/5 835/2/5
f 837/6/5 823/6/5 822/6/5
f 837/4/5 822/4/5 836/4/5
f 838/1/5 824/1/5 823/1/5
f 838/6/5 823/6/5 837/6/5
f 839/1/5 824/1/5 838/1/5
f 842/1/5 826/1/5 825/1/5
f 843/4/5 827/4/5 826/4/5
f 843/4/5 828/4/5 827/4/5
f 843/1/5 826/1/5 842/1/5
f 844/4/5 828/4/5 843/4/5
f 845/2/5 829/2/5 828/2/5
f 845/4/5 828/4/5 844/4/5
f 845/2/5 830/2/5 829/2/5
f 846/2/5 830/2/5 845/2/5
f 847/1/5 831/1/5 830/1/5
f 847/2/5 830/2/5 846/2/5
f 848/2/5 837/2/5 836/2/5
f 848/1/5 835/1/5 834/1/5
f 848/2/5 836/2/5 835/2/5
f 849/2/5 837/2/5 848/2/5
f 850/4/5 839/4/5 838/4/5
f 850/2/5 837/2/5 849/2/5
f 850/4/5 838/4/5 837/4/5
f 851/4/5 839/4/5 850/4/5
f 852/1/5 840/1/5 839/1/5
f 852/4/5 839/4/5 851/4/5
f 853/1/5 840/1/5 852/1/5
f 856/1/5 842/1/5 841/1/5
f 857/6/5 843/6/5 842/6/5
f 857/1/5 842/1/5 856/1/5
f 858/4/5 844/4/5 843/4/5
f 858/6/5 843/6/5 857/6/5
f 859/2/5 846/2/5 845/2/5
f 859/2/5 845/2/5 844/2/5
f 860/2/5 846/2/5 859/2/5
f 861/2/5 846/2/5 860/2/5
f 862/2/5 846/2/5 861/2/5
f 863/4/5 847/4/5 846/4/5
f 863/2/5 846/2/5 862/2/5
f 864/1/5 831/1/5 847/1/5
f 864/4/5 847/4/5 863/4/5
f 865/1/5 831/1/5 864/1/5
f 866/1/5 848/1/5 834/1/5
f 867/4/5 849/4/5 848/4/5
f 867/1/5 848/1/5 866/1/5
f 868/2/5 851/2/5 850/2/5
f 868/4/5 849/4/5 867/4/5
f 868/2/5 850/2/5 849/2/5
f 869/2/5 851/2/5 868/2/5
f 870/2/5 851/2/5 869/2/5
f 871/2/5 851/2/5 870/2/5
f 872/2/5 851/2/5 871/2/5
f 873/4/5 852/4/5 851/4/5
f 873/6/5 853/6/5 852/6/5
f 874/1/5 854/1/5 853/1/5
f 874/6/5 853/6/5 873/6/5
f 875/1/5 854/1/5 874/1/5
f 877/4/5 844/4/5 858/4/5
f 877/4/5 858/4/5 857/4/5
f 878/2/5 859/2/5 844/2/5
f 878/4/5 844/4/5 877/4/5
f 879/2/5 859/2/5 878/2/5
f 880/6/5 860/6/5 859/6/5
f 880/2/5 859/2/5 879/2/5
f 881/5/5 861/5/5 860/5/5
f 881/6/5 860/6/5 880/6/5
f 882/4/5 862/4/5 861/4/5
f 882/5/5 861/5/5 881/5/5
f 883/2/5 863/2/5 862/2/5
f 883/4/5 862/4/5 882/4/5
f 884/2/5 869/2/5 868/2/5
f 884/4/5 870/4/5 869/4/5
f 885/5/5 871/5/5 870/5/5
f 885/4/5 870/4/5 884/4/5
f 886/6/5 872/6/5 871/6/5
f 886/5/5 871/5/5 885/5/5
f 887/6/5 872/6/5 886/6/5
f 888/2/5 851/2/5 872/2/5
f 888/6/5 872/6/5 887/6/5
f 889/2/5 851/2/5 888/2/5
f 890/4/5 873/4/5 851/4/5
f 890/2/5 851/2/5 889/2/5
f 890/4/5 874/4/5 873/4/5
f 891/4/5 874/4/5 890/4/5
f 892/1/5 856/1/5 855/1/5
f 893/6/5 857/6/5 856/6/5
f 893/1/5 856/1/5 892/1/5
f 894/4/5 877/4/5 857/4/5
f 894/6/5 857/6/5 893/6/5
f 895/1/5 879/1/5 878/1/5
f 895/4/5 877/4/5 894/4/5
f 895/1/5 878/1/5 877/1/5
f 896/1/5 879/1/5 895/1/5
f 897/6/5 880/6/5 879/6/5
f 897/1/5 879/1/5 896/1/5
f 898/4/5 881/4/5 880/4/5
f 898/6/5 880/6/5 897/6/5
f 899/2/5 882/2/5 881/2/5
f 899/4/5 881/4/5 898/4/5
f 899/2/5 883/2/5 882/2/5
f 900/1/5 864/1/5 863/1/5
f 900/2/5 883/2/5 899/2/5
f 900/2/5 863/2/5 883/2/5
f 901/1/5 864/1/5 900/1/5
f 904/1/5 868/1/5 867/1/5
f 905/2/5 884/2/5 868/2/5
f 905/2/5 887/2/5 886/2/5
f 905/1/5 868/1/5 904/1/5
f 905/2/5 885/2/5 884/2/5
f 905/2/5 886/2/5 885/2/5
f 906/4/5 888/4/5 887/4/5
f 906/2/5 887/2/5 905/2/5
f 907/6/5 889/6/5 888/6/5
f 907/4/5 888/4/5 906/4/5
f 908/1/5 890/1/5 889/1/5
f 908/6/5 889/6/5 907/6/5
f 908/1/5 891/1/5 890/1/5
f 909/1/5 891/1/5 908/1/5
f 910/4/5 874/4/5 891/4/5
f 910/1/5 891/1/5 909/1/5
f 911/6/5 875/6/5 874/6/5
f 911/4/5 874/4/5 910/4/5
f 912/1/5 876/1/5 875/1/5
f 912/6/5 875/6/5 911/6/5
f 913/1/5 876/1/5 912/1/5
f 915/1/5 894/1/5 893/1/5
f 915/1/5 895/1/5 894/1/5
f 916/4/5 896/4/5 895/4/5
f 916/1/5 895/1/5 915/1/5
f 917/2/5 898/2/5 897/2/5
f 917/4/5 896/4/5 916/4/5
f 917/2/5 897/2/5 896/2/5
f 917/2/5 899/2/5 898/2/5
f 917/2/5 900/2/5 899/2/5
f 918/4/5 901/4/5 900/4/5
f 918/2/5 900/2/5 917/2/5
f 919/1/5 902/1/5 901/1/5
f 919/4/5 901/4/5 918/4/5
f 920/4/5 905/4/5 904/4/5
f 920/1/5 904/1/5 903/1/5
f 921/2/5 906/2/5 905/2/5
f 921/4/5 905/4/5 920/4/5
f 921/2/5 909/2/5 908/2/5
f 921/2/5 907/2/5 906/2/5
f 921/2/5 908/2/5 907/2/5
f 922/4/5 910/4/5 909/4/5
f 922/2/5 909/2/5 921/2/5
f 923/1/5 911/1/5 910/1/5
f 923/4/5 910/4/5 922/4/5
f 923/1/5 912/1/5 911/1/5
f 924/1/5 912/1/5 923/1/5
f 927/1/5 915/1/5 914/1/5
f 928/4/5 916/4/5 915/4/5
f 928/1/5 915/1/5 927/1/5
f 929/4/5 916/4/5 928/4/5
f 930/2/5 918/2/5 917/2/5
f 930/4/5 916/4/5 929/4/5
f 930/2/5 919/2/5 918/2/5
f 930/2/5 917/2/5 916/2/5
f 931/1/5 902/1/5 919/1/5
f 931/2/5 919/2/5 930/2/5
f 932/1/5 902/1/5 931/1/5
f 935/1/5 920/1/5 903/1/5
f 936/2/5 922/2/5 921/2/5
f 936/2/5 921/2/5 920/2/5
f 936/1/5 920/1/5 935/1/5
f 936/2/5 923/2/5 922/2/5
f 937/4/5 924/4/5 923/4/5
f 937/2/5 923/2/5 936/2/5
f 938/4/5 924/4/5 937/4/5
f 939/1/5 925/1/5 924/1/5
f 939/4/5 924/4/5 938/4/5
f 940/1/5 925/1/5 939/1/5
f 942/2/5 930/2/5 929/2/5
f 942/2/5 931/2/5 930/2/5
f 943/2/5 931/2/5 942/2/5
f 944/2/5 931/2/5 943/2/5
f 945/2/5 938/2/5 937/2/5
f 945/2/5 937/2/5 936/2/5
f 946/2/5 938/2/5 945/2/5
f 947/2/5 938/2/5 946/2/5
f 949/1/5 927/1/5 926/1/5
f 950/6/5 928/6/5 927/6/5
f 950/1/5 927/1/5 949/1/5
f 951/4/5 929/4/5 928/4/5
f 951/6/5 928/6/5 950/6/5
f 952/2/5 942/2/5 929/2/5
f 953/2/5 942/2/5 952/2/5
f 954/6/5 943/6/5 942/6/5
f 954/2/5 942/2/5 953/2/5
f 955/4/5 944/4/5 943/4/5
f 955/6/5 943/6/5 954/6/5
f 956/2/5 931/2/5 944/2/5
f 956/4/5 944/4/5 955/4/5
f 957/2/5 945/2/5 936/2/5
f 957/4/5 946/4/5 945/4/5
f 958/6/5 947/6/5 946/6/5
f 958/4/5 946/4/5 957/4/5
f 959/2/5 938/2/5 947/2/5
f 959/6/5 947/6/5 958/6/5
f 960/2/5 938/2/5 959/2/5
f 961/2/5 938/2/5 960/2/5
f 962/6/5 940/6/5 939/6/5
f 962/4/5 939/4/5 938/4/5
f 963/1/5 941/1/5 940/1/5
f 963/6/5 940/6/5 962/6/5
f 964/1/5 941/1/5 963/1/5
f 966/4/5 929/4/5 951/4/5
f 966/4/5 951/4/5 950/4/5
f 967/2/5 952/2/5 929/2/5
f 967/4/5 929/4/5 966/4/5
f 968/1/5 953/1/5 952/1/5
f 968/2/5 952/2/5 967/2/5
f 969/6/5 954/6/5 953/6/5
f 969/1/5 953/1/5 968/1/5
f 970/4/5 955/4/5 954/4/5
f 970/6/5 954/6/5 969/6/5
f 971/2/5 956/2/5 955/2/5
f 971/4/5 955/4/5 970/4/5
f 972/2/5 931/2/5 956/2/5
f 972/2/5 956/2/5 971/2/5
f 973/4/5 932/4/5 931/4/5
f 973/2/5 931/2/5 972/2/5
f 974/1/5 933/1/5 932/1/5
f 974/4/5 932/4/5 973/4/5
f 975/1/5 933/1/5 974/1/5
f 976/1/5 935/1/5 934/1/5
f 977/4/5 936/4/5 935/4/5
f 977/1/5 935/1/5 976/1/5
f 978/2/5 958/2/5 957/2/5
f 978/4/5 936/4/5 977/4/5
f 978/2/5 957/2/5 936/2/5
f 979/2/5 958/2/5 978/2/5
f 980/4/5 959/4/5 958/4/5
f 980/2/5 958/2/5 979/2/5
f 981/6/5 960/6/5 959/6/5
f 981/4/5 959/4/5 980/4/5
f 982/1/5 961/1/5 960/1/5
f 982/6/5 960/6/5 981/6/5
f 983/2/5 938/2/5 961/2/5
f 983/1/5 961/1/5 982/1/5
f 984/4/5 962/4/5 938/4/5
f 984/2/5 938/2/5 983/2/5
f 984/4/5 963/4/5 962/4/5
f 985/4/5 963/4/5 984/4/5
f 986/1/5 949/1/5 948/1/5
f 987/6/5 950/6/5 949/6/5
f 987/1/5 949/1/5 986/1/5
f 988/4/5 966/4/5 950/4/5
f 988/6/5 950/6/5 987/6/5
f 989/1/5 968/1/5 967/1/5
f 989/4/5 966/4/5 988/4/5
f 989/1/5 967/1/5 966/1/5
f 990/1/5 968/1/5 989/1/5
f 991/2/5 969/2/5 968/2/5
f 991/1/5 968/1/5 990/1/5
f 991/2/5 972/2/5 971/2/5
f 991/2/5 971/2/5 970/2/5
f 991/2/5 970/2/5 969/2/5
f 992/2/5 972/2/5 991/2/5
f 993/4/5 973/4/5 972/4/5
f 993/2/5 972/2/5 992/2/5
f 994/1/5 974/1/5 973/1/5
f 994/4/5 973/4/5 993/4/5
f 995/1/5 974/1/5 994/1/5
f 996/1/5 978/1/5 977/1/5
f 997/4/5 979/4/5 978/4/5
f 997/1/5 978/1/5 996/1/5
f 998/2/5 983/2/5 982/2/5
f 998/4/5 979/4/5 997/4/5
f 998/2/5 982/2/5 981/2/5
f 998/2/5 981/2/5 980/2/5
f 998/2/5 980/2/5 979/2/5
f 999/2/5 983/2/5 998/2/5
f 1000/1/5 985/1/5 984/1/5
f 1000/2/5 983/2/5 999/2/5
f 1000/1/5 984/1/5 983/1/5
f 1001/1/5 985/1/5 1000/1/5
f 1002/4/5 963/4/5 985/4/5
f 1002/1/5 985/1/5 1001/1/5
f 1003/6/5 964/6/5 963/6/5
f 1003/4/5 963/4/5 1002/4/5
f 1004/1/5 965/1/5 964/1/5
f 1004/6/5 964/6/5 1003/6/5
f 1005/1/5 965/1/5 1004/1/5
f 1007/1/5 989/1/5 988/1/5
f 1007/1/5 988/1/5 987/1/5
f 1008/4/5 990/4/5 989/4/5
f 1008/1/5 989/1/5 1007/1/5
f 1009/2/5 992/2/5 991/2/5
f 1009/4/5 990/4/5 1008/4/5
f 1009/2/5 991/2/5 990/2/5
f 1010/2/5 992/2/5 1009/2/5
f 1011/2/5 992/2/5 1010/2/5
f 1012/4/5 993/4/5 992/4/5
f 1012/2/5 992/2/5 1011/2/5
f 1013/1/5 994/1/5 993/1/5
f 1013/4/5 993/4/5 1012/4/5
f 1014/1/5 994/1/5 1013/1/5
f 1015/1/5 998/1/5 997/1/5
f 1016/4/5 999/4/5 998/4/5
f 1016/1/5 998/1/5 1015/1/5
f 1017/2/5 1001/2/5 1000/2/5
f 1017/4/5 999/4/5 1016/4/5
f 1017/2/5 1000/2/5 999/2/5
f 1018/2/5 1001/2/5 1017/2/5
f 1019/2/5 1001/2/5 1018/2/5
f 1020/4/5 1002/4/5 1001/4/5
f 1020/2/5 1001/2/5 1019/2/5
f 1021/1/5 1003/1/5 1002/1/5
f 1021/4/5 1002/4/5 1020/4/5
f 1021/1/5 1004/1/5 1003/1/5
f 1022/1/5 1004/1/5 1021/1/5
f 1025/1/5 1007/1/5 1006/1/5
f 1026/4/5 1008/4/5 1007/4/5
f 1026/1/5 1007/1/5 1025/1/5
f 1027/4/5 1008/4/5 1026/4/5
f 1028/2/5 1009/2/5 1008/2/5
f 1028/4/5 1008/4/5 1027/4/5
f 1028/2/5 1010/2/5 1009/2/5
f 1029/2/5 1010/2/5 1028/2/5
f 1030/2/5 1010/2/5 1029/2/5
f 1031/4/5 1011/4/5 1010/4/5
f 1031/2/5 1010/2/5 1030/2/5
f 1032/1/5 1012/1/5 1011/1/5
f 1032/4/5 1011/4/5 1031/4/5
f 1032/1/5 1013/1/5 1012/1/5
f 1033/1/5 1013/1/5 1032/1/5
f 1034/1/5 1018/1/5 1017/1/5
f 1034/1/5 1017/1/5 1016/1/5
f 1035/4/5 1019/4/5 1018/4/5
f 1035/1/5 1018/1/5 1034/1/5
f 1036/2/5 1021/2/5 1020/2/5
f 1036/4/5 1019/4/5 1035/4/5
f 1036/2/5 1020/2/5 1019/2/5
f 1037/2/5 1021/2/5 1036/2/5
f 1038/2/5 1021/2/5 1037/2/5
f 1039/4/5 1022/4/5 1021/4/5
f 1039/2/5 1021/2/5 1038/2/5
f 1040/4/5 1022/4/5 1039/4/5
f 1041/1/5 1023/1/5 1022/1/5
f 1041/4/5 1022/4/5 1040/4/5
f 1042/1/5 1023/1/5 1041/1/5
f 1044/2/5 1028/2/5 1027/2/5
f 1044/2/5 1029/2/5 1028/2/5
f 1045/2/5 1029/2/5 1044/2/5
f 1046/4/5 1030/4/5 1029/4/5
f 1046/2/5 1029/2/5 1045/2/5
f 1047/1/5 1031/1/5 1030/1/5
f 1047/4/5 1030/4/5 1046/4/5
f 1047/1/5 1032/1/5 1031/1/5
f 1048/1/5 1032/1/5 1047/1/5
f 1049/1/5 1037/1/5 1036/1/5
f 1049/1/5 1036/1/5 1035/1/5
f 1050/4/5 1038/4/5 1037/4/5
f 1050/1/5 1037/1/5 1049/1/5
f 1051/2/5 1040/2/5 1039/2/5
f 1051/4/5 1038/4/5 1050/4/5
f 1051/2/5 1039/2/5 1038/2/5
f 1052/2/5 1040/2/5 1051/2/5
f 1053/2/5 1040/2/5 1052/2/5
f 1054/1/5 1025/1/5 1024/1/5
f 1055/6/5 1026/6/5 1025/6/5
f 1055/1/5 1025/1/5 1054/1/5
f 1056/4/5 1027/4/5 1026/4/5
f 1056/6/5 1026/6/5 1055/6/5
f 1057/2/5 1044/2/5 1027/2/5
f 1057/4/5 1027/4/5 1056/4/5
f 1058/4/5 1045/4/5 1044/4/5
f 1058/2/5 1044/2/5 1057/2/5
f 1059/1/5 1046/1/5 1045/1/5
f 1059/4/5 1045/4/5 1058/4/5
f 1059/1/5 1047/1/5 1046/1/5
f 1060/1/5 1047/1/5 1059/1/5
f 1061/1/5 1051/1/5 1050/1/5
f 1061/1/5 1052/1/5 1051/1/5
f 1062/4/5 1053/4/5 1052/4/5
f 1062/1/5 1052/1/5 1061/1/5
f 1063/2/5 1040/2/5 1053/2/5
f 1063/4/5 1053/4/5 1062/4/5
f 1064/4/5 1041/4/5 1040/4/5
f 1064/2/5 1040/2/5 1063/2/5
f 1065/6/5 1042/6/5 1041/6/5
f 1065/4/5 1041/4/5 1064/4/5
f 1066/1/5 1043/1/5 1042/1/5
f 1066/6/5 1042/6/5 1065/6/5
f 1067/1/5 1043/1/5 1066/1/5
f 1068/1/5 1058/1/5 1057/1/5
f 1068/1/5 1059/1/5 1058/1/5
f 1068/1/5 1056/1/5 1055/1/5
f 1068/1/5 1057/1/5 1056/1/5
f 1069/1/5 1059/1/5 1068/1/5
f 1070/1/5 1064/1/5 1063/1/5
f 1070/1/5 1065/1/5 1064/1/5
f 1070/1/5 1066/1/5 1065/1/5
f 1070/1/5 1063/1/5 1062/1/5
f 1071/1/5 1066/1/5 1070/1/5
f 1072/1/6 1073/1/6 1077/1/6
f 1077/1/6 1073/1/6 1078/1/6
f 1078/1/6 1073/1/6 1079/1/6
f 1079/1/6 1073/1/6 1080/1/6
f 1074/1/6 1075/1/6 1083/1/6
f 1083/1/6 1075/1/6 1084/1/6
f 1084/1/6 1075/1/6 1085/1/6
f 1085/1/6 1075/1/6 1086/1/6
f 1076/1/6 1077/1/6 1089/1/6
f 1089/1/6 1077/1/6 1090/1/6
f 1077/6/6 1078/6/6 1091/6/6
f 1090/1/6 1077/1/6 1091/1/6
f 1078/4/6 1079/4/6 1092/4/6
f 1091/6/6 1078/6/6 1092/6/6
f 1079/6/6 1080/6/6 1093/6/6
f 1092/4/6 1079/4/6 1093/4/6
f 1080/1/6 1081/1/6 1094/1/6
f 1093/6/6 1080/6/6 1094/6/6
f 1094/1/6 1081/1/6 1095/1/6
f 1082/1/6 1083/1/6 1098/1/6
f 1083/6/6 1084/6/6 1099/6/6
f 1098/1/6 1083/1/6 1099/1/6
f 1084/4/6 1085/4/6 1100/4/6
f 1099/6/6 1084/6/6 1100/6/6
f 1085/6/6 1086/6/6 1101/6/6
f 1100/4/6 1085/4/6 1101/4/6
f 1086/1/6 1087/1/6 1102/1/6
f 1101/6/6 1086/6/6 1102/6/6
f 1102/1/6 1087/1/6 1103/1/6
f 1103/1/6 1087/1/6 1104/1/6
f 1088/1/6 1089/1/6 1107/1/6
f 1089/6/6 1090/6/6 1108/6/6
f 1107/1/6 1089/1/6 1108/1/6
f 1108/6/6 1090/6/6 1109/6/6
f 1092/4/6 1093/4/6 1110/4/6
f 1109/6/6 1090/6/6 1110/6/6
f 1090/4/6 1091/4/6 1110/4/6
f 1091/4/6 1092/4/6 1110/4/6
f 1093/4/6 1094/4/6 1110/4/6
f 1094/6/6 1095/6/6 1111/6/6
f 1110/4/6 1094/4/6 1111/4/6
f 1095/1/6 1096/1/6 1112/1/6
f 1111/6/6 1095/6/6 1112/6/6
f 1112/1/6 1096/1/6 1113/1/6
f 1097/1/6 1098/1/6 1116/1/6
f 1098/6/6 1099/6/6 1117/6/6
f 1116/1/6 1098/1/6 1117/1/6
f 1100/4/6 1101/4/6 1118/4/6
f 1117/6/6 1099/6/6 1118/6/6
f 1099/4/6 1100/4/6 1118/4/6
f 1101/4/6 1102/4/6 1118/4/6
f 1102/4/6 1103/4/6 1118/4/6
f 1103/6/6 1104/6/6 1119/6/6
f 1118/4/6 1103/4/6 1119/4/6
f 1119/6/6 1104/6/6 1120/6/6
f 1104/1/6 1105/1/6 1121/1/6
f 1120/6/6 1104/6/6 1121/6/6
f 1121/1/6 1105/1/6 1122/1/6
f 1108/6/6 1109/6/6 1124/6/6
f 1107/6/6 1108/6/6 1124/6/6
f 1110/4/6 1111/4/6 1125/4/6
f 1124/6/6 1109/6/6 1125/6/6
f 1109/4/6 1110/4/6 1125/4/6
f 1125/4/6 1111/4/6 1126/4/6
f 1113/1/6 1114/1/6 1127/1/6
f 1126/4/6 1111/4/6 1127/4/6
f 1112/1/6 1113/1/6 1127/1/6
f 1111/1/6 1112/1/6 1127/1/6
f 1127/1/6 1114/1/6 1128/1/6
f 1128/1/6 1114/1/6 1129/1/6
f 1116/1/6 1117/1/6 1132/1/6
f 1115/1/6 1116/1/6 1132/1/6
f 1117/1/6 1118/1/6 1132/1/6
f 1132/1/6 1118/1/6 1133/1/6
f 1119/4/6 1120/4/6 1134/4/6
f 1133/1/6 1118/1/6 1134/1/6
f 1118/4/6 1119/4/6 1134/4/6
f 1134/4/6 1120/4/6 1135/4/6
f 1121/6/6 1122/6/6 1136/6/6
f 1135/4/6 1120/4/6 1136/4/6
f 1120/6/6 1121/6/6 1136/6/6
f 1136/6/6 1122/6/6 1137/6/6
f 1106/1/6 1107/1/6 1139/1/6
f 1107/6/6 1124/6/6 1140/6/6
f 1139/1/6 1107/1/6 1140/1/6
f 1125/4/6 1126/4/6 1141/4/6
f 1140/6/6 1124/6/6 1141/6/6
f 1124/4/6 1125/4/6 1141/4/6
f 1141/4/6 1126/4/6 1142/4/6
f 1142/4/6 1126/4/6 1143/4/6
f 1126/1/6 1127/1/6 1144/1/6
f 1143/4/6 1126/4/6 1144/4/6
f 1127/6/6 1128/6/6 1145/6/6
f 1144/1/6 1127/1/6 1145/1/6
f 1128/4/6 1129/4/6 1146/4/6
f 1145/6/6 1128/6/6 1146/6/6
f 1129/1/6 1130/1/6 1147/1/6
f 1146/4/6 1129/4/6 1147/4/6
f 1147/1/6 1130/1/6 1148/1/6
f 1131/1/6 1132/1/6 1151/1/6
f 1132/4/6 1133/4/6 1152/4/6
f 1151/1/6 1132/1/6 1152/1/6
f 1133/6/6 1134/6/6 1153/6/6
f 1152/4/6 1133/4/6 1153/4/6
f 1134/1/6 1135/1/6 1154/1/6
f 1153/6/6 1134/6/6 1154/6/6
f 1135/4/6 1136/4/6 1155/4/6
f 1154/1/6 1135/1/6 1155/1/6
f 1136/4/6 1137/4/6 1155/4/6
f 1155/4/6 1137/4/6 1156/4/6
f 1156/4/6 1137/4/6 1157/4/6
f 1137/6/6 1122/6/6 1158/6/6
f 1157/4/6 1137/4/6 1158/4/6
f 1122/1/6 1123/1/6 1159/1/6
f 1158/6/6 1122/6/6 1159/6/6
f 1159/1/6 1123/1/6 1160/1/6
f 1138/1/6 1139/1/6 1163/1/6
f 1139/1/6 1140/1/6 1163/1/6
f 1140/1/6 1141/1/6 1163/1/6
f 1141/1/6 1142/1/6 1163/1/6
f 1163/1/6 1142/1/6 1164/1/6
f 1142/6/6 1143/6/6 1165/6/6
f 1164/1/6 1142/1/6 1165/1/6
f 1143/3/6 1144/3/6 1166/3/6
f 1165/6/6 1143/6/6 1166/6/6
f 1144/1/6 1145/1/6 1167/1/6
f 1166/3/6 1144/3/6 1167/3/6
f 1145/4/6 1146/4/6 1168/4/6
f 1167/1/6 1145/1/6 1168/1/6
f 1146/2/6 1147/2/6 1169/2/6
f 1168/4/6 1146/4/6 1169/4/6
f 1147/4/6 1148/4/6 1170/4/6
f 1169/2/6 1147/2/6 1170/2/6
f 1148/1/6 1149/1/6 1171/1/6
f 1170/4/6 1148/4/6 1171/4/6
f 1150/1/6 1151/1/6 1172/1/6
f 1151/4/6 1152/4/6 1172/4/6
f 1152/2/6 1153/2/6 1173/2/6
f 1172/4/6 1152/4/6 1173/4/6
f 1153/4/6 1154/4/6 1174/4/6
f 1173/2/6 1153/2/6 1174/2/6
f 1154/1/6 1155/1/6 1175/1/6
f 1174/4/6 1154/4/6 1175/4/6
f 1155/3/6 1156/3/6 1176/3/6
f 1175/1/6 1155/1/6 1176/1/6
f 1156/6/6 1157/6/6 1177/6/6
f 1176/3/6 1156/3/6 1177/3/6
f 1157/1/6 1158/1/6 1178/1/6
f 1177/6/6 1157/6/6 1178/6/6
f 1160/1/6 1161/1/6 1178/1/6
f 1159/1/6 1160/1/6 1178/1/6
f 1158/1/6 1159/1/6 1178/1/6
f 1178/1/6 1161/1/6 1179/1/6
f 1179/1/6 1161/1/6 1180/1/6
f 1162/1/6 1163/1/6 1183/1/6
f 1163/6/6 1164/6/6 1184/6/6
f 1183/1/6 1163/1/6 1184/1/6
f 1184/6/6 1164/6/6 1185/6/6
f 1166/3/6 1167/3/6 1186/3/6
f 1185/6/6 1164/6/6 1186/6/6
f 1165/3/6 1166/3/6 1186/3/6
f 1164/3/6 1165/3/6 1186/3/6
f 1186/3/6 1167/3/6 1187/3/6
f 1167/6/6 1168/6/6 1188/6/6
f 1187/3/6 1167/3/6 1188/3/6
f 1170/2/6 1171/2/6 1189/2/6
f 1188/6/6 1168/6/6 1189/6/6
f 1169/2/6 1170/2/6 1189/2/6
f 1168/2/6 1169/2/6 1189/2/6
f 1175/6/6 1176/6/6 1190/6/6
f 1172/2/6 1173/2/6 1190/2/6
f 1173/2/6 1174/2/6 1190/2/6
f 1174/2/6 1175/2/6 1190/2/6
f 1176/3/6 1177/3/6 1191/3/6
f 1190/6/6 1176/6/6 1191/6/6
f 1178/3/6 1179/3/6 1191/3/6
f 1177/3/6 1178/3/6 1191/3/6
f 1191/3/6 1179/3/6 1192/3/6
f 1179/6/6 1180/6/6 1193/6/6
f 1192/3/6 1179/3/6 1193/3/6
f 1193/6/6 1180/6/6 1194/6/6
f 1180/1/6 1181/1/6 1195/1/6
f 1194/6/6 1180/6/6 1195/6/6
f 1195/1/6 1181/1/6 1196/1/6
f 1184/6/6 1185/6/6 1198/6/6
f 1183/6/6 1184/6/6 1198/6/6
f 1185/3/6 1186/3/6 1199/3/6
f 1198/6/6 1185/6/6 1199/6/6
f 1186/3/6 1187/3/6 1199/3/6
f 1199/3/6 1187/3/6 1200/3/6
f 1187/2/6 1188/2/6 1201/2/6
f 1200/3/6 1187/3/6 1201/3/6
f 1188/3/6 1189/3/6 1202/3/6
f 1201/2/6 1188/2/6 1202/2/6
f 1189/2/6 1171/2/6 1203/2/6
f 1202/3/6 1189/3/6 1203/3/6
f 1203/2/6 1171/2/6 1204/2/6
f 1171/1/6 1149/1/6 1205/1/6
f 1204/2/6 1171/2/6 1205/2/6
f 1172/2/6 1190/2/6 1206/2/6
f 1150/1/6 1172/1/6 1206/1/6
f 1206/2/6 1190/2/6 1207/2/6
f 1190/3/6 1191/3/6 1208/3/6
f 1207/2/6 1190/2/6 1208/2/6
f 1191/2/6 1192/2/6 1209/2/6
f 1208/3/6 1191/3/6 1209/3/6
f 1193/3/6 1194/3/6 1210/3/6
f 1209/2/6 1192/2/6 1210/2/6
f 1192/3/6 1193/3/6 1210/3/6
f 1210/3/6 1194/3/6 1211/3/6
f 1195/6/6 1196/6/6 1212/6/6
f 1211/3/6 1194/3/6 1212/3/6
f 1194/6/6 1195/6/6 1212/6/6
f 1212/6/6 1196/6/6 1213/6/6
f 1201/2/6 1202/2/6 1214/2/6
f 1203/2/6 1204/2/6 1214/2/6
f 1199/3/6 1200/3/6 1214/3/6
f 1200/2/6 1201/2/6 1214/2/6
f 1202/2/6 1203/2/6 1214/2/6
f 1198/3/6 1199/3/6 1214/3/6
f 1214/2/6 1204/2/6 1215/2/6
f 1215/2/6 1204/2/6 1216/2/6
f 1204/4/6 1205/4/6 1217/4/6
f 1216/2/6 1204/2/6 1217/2/6
f 1205/1/6 1149/1/6 1218/1/6
f 1217/4/6 1205/4/6 1218/4/6
f 1218/1/6 1149/1/6 1219/1/6
f 1150/1/6 1206/1/6 1220/1/6
f 1206/4/6 1207/4/6 1221/4/6
f 1220/1/6 1206/1/6 1221/1/6
f 1208/2/6 1209/2/6 1222/2/6
f 1221/4/6 1207/4/6 1222/4/6
f 1210/2/6 1211/2/6 1222/2/6
f 1207/2/6 1208/2/6 1222/2/6
f 1209/2/6 1210/2/6 1222/2/6
f 1222/2/6 1211/2/6 1223/2/6
f 1223/2/6 1211/2/6 1224/2/6
f 1212/3/6 1213/3/6 1225/3/6
f 1224/2/6 1211/2/6 1225/2/6
f 1211/3/6 1212/3/6 1225/3/6
f 1182/1/6 1183/1/6 1227/1/6
f 1183/6/6 1198/6/6 1228/6/6
f 1227/1/6 1183/1/6 1228/1/6
f 1214/3/6 1215/3/6 1229/3/6
f 1228/6/6 1198/6/6 1229/6/6
f 1198/3/6 1214/3/6 1229/3/6
f 1229/3/6 1215/3/6 1230/3/6
f 1230/3/6 1215/3/6 1231/3/6
f 1215/2/6 1216/2/6 1232/2/6
f 1231/3/6 1215/3/6 1232/3/6
f 1232/2/6 1216/2/6 1233/2/6
f 1233/2/6 1216/2/6 1234/2/6
f 1216/4/6 1217/4/6 1235/4/6
f 1234/2/6 1216/2/6 1235/2/6
f 1217/1/6 1218/1/6 1236/1/6
f 1235/4/6 1217/4/6 1236/4/6
f 1236/1/6 1218/1/6 1237/1/6
f 1221/1/6 1222/1/6 1238/1/6
f 1222/4/6 1223/4/6 1239/4/6
f 1238/1/6 1222/1/6 1239/1/6
f 1223/2/6 1224/2/6 1240/2/6
f 1239/4/6 1223/4/6 1240/4/6
f 1240/2/6 1224/2/6 1241/2/6
f 1241/2/6 1224/2/6 1242/2/6
f 1224/3/6 1225/3/6 1243/3/6
f 1242/2/6 1224/2/6 1243/2/6
f 1225/3/6 1213/3/6 1244/3/6
f 1243/3/6 1225/3/6 1244/3/6
f 1244/3/6 1213/3/6 1245/3/6
f 1213/6/6 1196/6/6 1246/6/6
f 1245/3/6 1213/3/6 1246/3/6
f 1196/1/6 1197/1/6 1247/1/6
f 1246/6/6 1196/6/6 1247/6/6
f 1247/1/6 1197/1/6 1248/1/6
f 1226/1/6 1227/1/6 1251/1/6
f 1227/1/6 1228/1/6 1251/1/6
f 1228/1/6 1229/1/6 1251/1/6
f 1229/1/6 1230/1/6 1251/1/6
f 1251/1/6 1230/1/6 1252/1/6
f 1252/1/6 1230/1/6 1253/1/6
f 1230/3/6 1231/3/6 1254/3/6
f 1253/1/6 1230/1/6 1254/1/6
f 1231/2/6 1232/2/6 1255/2/6
f 1254/3/6 1231/3/6 1255/3/6
f 1232/2/6 1233/2/6 1255/2/6
f 1255/2/6 1233/2/6 1256/2/6
f 1256/2/6 1233/2/6 1257/2/6
f 1233/4/6 1234/4/6 1258/4/6
f 1257/2/6 1233/2/6 1258/2/6
f 1234/1/6 1235/1/6 1259/1/6
f 1258/4/6 1234/4/6 1259/4/6
f 1235/1/6 1236/1/6 1259/1/6
f 1259/1/6 1236/1/6 1260/1/6
f 1240/1/6 1241/1/6 1261/1/6
f 1239/1/6 1240/1/6 1261/1/6
f 1241/4/6 1242/4/6 1262/4/6
f 1261/1/6 1241/1/6 1262/1/6
f 1242/2/6 1243/2/6 1263/2/6
f 1262/4/6 1242/4/6 1263/4/6
f 1243/2/6 1244/2/6 1263/2/6
f 1263/2/6 1244/2/6 1264/2/6
f 1264/2/6 1244/2/6 1265/2/6
f 1244/3/6 1245/3/6 1266/3/6
f 1265/2/6 1244/2/6 1266/2/6
f 1245/1/6 1246/1/6 1267/1/6
f 1266/3/6 1245/3/6 1267/3/6
f 1248/1/6 1249/1/6 1267/1/6
f 1246/1/6 1247/1/6 1267/1/6
f 1247/1/6 1248/1/6 1267/1/6
f 1267/1/6 1249/1/6 1268/1/6
f 1268/1/6 1249/1/6 1269/1/6
f 1269/1/6 1249/1/6 1270/1/6
f 1250/1/6 1251/1/6 1273/1/6
f 1251/6/6 1252/6/6 1274/6/6
f 1273/1/6 1251/1/6 1274/1/6
f 1252/4/6 1253/4/6 1275/4/6
f 1274/6/6 1252/6/6 1275/6/6
f 1254/2/6 1255/2/6 1276/2/6
f 1275/4/6 1253/4/6 1276/4/6
f 1253/2/6 1254/2/6 1276/2/6
f 1255/2/6 1256/2/6 1276/2/6
f 1256/4/6 1257/4/6 1277/4/6
f 1276/2/6 1256/2/6 1277/2/6
f 1257/1/6 1258/1/6 1278/1/6
f 1277/4/6 1257/4/6 1278/4/6
f 1258/1/6 1259/1/6 1278/1/6
f 1278/1/6 1259/1/6 1279/1/6
f 1263/1/6 1264/1/6 1280/1/6
f 1262/1/6 1263/1/6 1280/1/6
f 1264/4/6 1265/4/6 1281/4/6
f 1280/1/6 1264/1/6 1281/1/6
f 1265/2/6 1266/2/6 1282/2/6
f 1281/4/6 1265/4/6 1282/4/6
f 1266/2/6 1267/2/6 1282/2/6
f 1267/2/6 1268/2/6 1282/2/6
f 1268/4/6 1269/4/6 1283/4/6
f 1282/2/6 1268/2/6 1283/2/6
f 1269/6/6 1270/6/6 1284/6/6
f 1283/4/6 1269/4/6 1284/4/6
f 1270/1/6 1271/1/6 1285/1/6
f 1284/6/6 1270/6/6 1285/6/6
f 1285/1/6 1271/1/6 1286/1/6
f 1272/1/6 1273/1/6 1289/1/6
f 1273/4/6 1274/4/6 1290/4/6
f 1274/4/6 1275/4/6 1290/4/6
f 1289/1/6 1273/1/6 1290/1/6
f 1290/4/6 1275/4/6 1291/4/6
f 1275/2/6 1276/2/6 1292/2/6
f 1291/4/6 1275/4/6 1292/4/6
f 1276/2/6 1277/2/6 1292/2/6
f 1292/2/6 1277/2/6 1293/2/6
f 1277/1/6 1278/1/6 1294/1/6
f 1293/2/6 1277/2/6 1294/2/6
f 1283/2/6 1284/2/6 1295/2/6
f 1281/1/6 1282/1/6 1295/1/6
f 1282/2/6 1283/2/6 1295/2/6
f 1295/2/6 1284/2/6 1296/2/6
f 1285/4/6 1286/4/6 1297/4/6
f 1296/2/6 1284/2/6 1297/2/6
f 1284/4/6 1285/4/6 1297/4/6
f 1297/4/6 1286/4/6 1298/4/6
f 1286/1/6 1287/1/6 1299/1/6
f 1298/4/6 1286/4/6 1299/4/6
f 1299/1/6 1287/1/6 1300/1/6
f 1288/1/6 1289/1/6 1303/1/6
f 1289/6/6 1290/6/6 1304/6/6
f 1303/1/6 1289/1/6 1304/1/6
f 1290/4/6 1291/4/6 1305/4/6
f 1304/6/6 1290/6/6 1305/6/6
f 1292/2/6 1293/2/6 1306/2/6
f 1291/2/6 1292/2/6 1306/2/6
f 1306/2/6 1293/2/6 1307/2/6
f 1307/2/6 1293/2/6 1308/2/6
f 1308/2/6 1293/2/6 1309/2/6
f 1293/4/6 1294/4/6 1310/4/6
f 1309/2/6 1293/2/6 1310/2/6
f 1294/1/6 1278/1/6 1311/1/6
f 1310/4/6 1294/4/6 1311/4/6
f 1311/1/6 1278/1/6 1312/1/6
f 1281/1/6 1295/1/6 1313/1/6
f 1295/4/6 1296/4/6 1314/4/6
f 1313/1/6 1295/1/6 1314/1/6
f 1297/2/6 1298/2/6 1315/2/6
f 1314/4/6 1296/4/6 1315/4/6
f 1296/2/6 1297/2/6 1315/2/6
f 1315/2/6 1298/2/6 1316/2/6
f 1316/2/6 1298/2/6 1317/2/6
f 1317/2/6 1298/2/6 1318/2/6
f 1318/2/6 1298/2/6 1319/2/6
f 1298/4/6 1299/4/6 1320/4/6
f 1299/6/6 1300/6/6 1320/6/6
f 1300/1/6 1301/1/6 1321/1/6
f 1320/6/6 1300/6/6 1321/6/6
f 1321/1/6 1301/1/6 1322/1/6
f 1305/4/6 1291/4/6 1324/4/6
f 1304/4/6 1305/4/6 1324/4/6
f 1291/2/6 1306/2/6 1325/2/6
f 1324/4/6 1291/4/6 1325/4/6
f 1325/2/6 1306/2/6 1326/2/6
f 1306/6/6 1307/6/6 1327/6/6
f 1326/2/6 1306/2/6 1327/2/6
f 1307/5/6 1308/5/6 1328/5/6
f 1327/6/6 1307/6/6 1328/6/6
f 1308/4/6 1309/4/6 1329/4/6
f 1328/5/6 1308/5/6 1329/5/6
f 1309/2/6 1310/2/6 1330/2/6
f 1329/4/6 1309/4/6 1330/4/6
f 1315/2/6 1316/2/6 1331/2/6
f 1316/4/6 1317/4/6 1331/4/6
f 1317/5/6 1318/5/6 1332/5/6
f 1331/4/6 1317/4/6 1332/4/6
f 1318/6/6 1319/6/6 1333/6/6
f 1332/5/6 1318/5/6 1333/5/6
f 1333/6/6 1319/6/6 1334/6/6
f 1319/2/6 1298/2/6 1335/2/6
f 1334/6/6 1319/6/6 1335/6/6
f 1335/2/6 1298/2/6 1336/2/6
f 1298/4/6 1320/4/6 1337/4/6
f 1336/2/6 1298/2/6 1337/2/6
f 1320/4/6 1321/4/6 1337/4/6
f 1337/4/6 1321/4/6 1338/4/6
f 1302/1/6 1303/1/6 1339/1/6
f 1303/6/6 1304/6/6 1340/6/6
f 1339/1/6 1303/1/6 1340/1/6
f 1304/4/6 1324/4/6 1341/4/6
f 1340/6/6 1304/6/6 1341/6/6
f 1325/1/6 1326/1/6 1342/1/6
f 1341/4/6 1324/4/6 1342/4/6
f 1324/1/6 1325/1/6 1342/1/6
f 1342/1/6 1326/1/6 1343/1/6
f 1326/6/6 1327/6/6 1344/6/6
f 1343/1/6 1326/1/6 1344/1/6
f 1327/4/6 1328/4/6 1345/4/6
f 1344/6/6 1327/6/6 1345/6/6
f 1328/2/6 1329/2/6 1346/2/6
f 1345/4/6 1328/4/6 1346/4/6
f 1329/2/6 1330/2/6 1346/2/6
f 1310/1/6 1311/1/6 1347/1/6
f 1346/2/6 1330/2/6 1347/2/6
f 1330/2/6 1310/2/6 1347/2/6
f 1347/1/6 1311/1/6 1348/1/6
f 1314/1/6 1315/1/6 1351/1/6
f 1315/2/6 1331/2/6 1352/2/6
f 1333/2/6 1334/2/6 1352/2/6
f 1351/1/6 1315/1/6 1352/1/6
f 1331/2/6 1332/2/6 1352/2/6
f 1332/2/6 1333/2/6 1352/2/6
f 1334/4/6 1335/4/6 1353/4/6
f 1352/2/6 1334/2/6 1353/2/6
f 1335/6/6 1336/6/6 1354/6/6
f 1353/4/6 1335/4/6 1354/4/6
f 1336/1/6 1337/1/6 1355/1/6
f 1354/6/6 1336/6/6 1355/6/6
f 1337/1/6 1338/1/6 1355/1/6
f 1355/1/6 1338/1/6 1356/1/6
f 1338/4/6 1321/4/6 1357/4/6
f 1356/1/6 1338/1/6 1357/1/6
f 1321/6/6 1322/6/6 1358/6/6
f 1357/4/6 1321/4/6 1358/4/6
f 1322/1/6 1323/1/6 1359/1/6
f 1358/6/6 1322/6/6 1359/6/6
f 1359/1/6 1323/1/6 1360/1/6
f 1340/1/6 1341/1/6 1362/1/6
f 1341/1/6 1342/1/6 1362/1/6
f 1342/4/6 1343/4/6 1363/4/6
f 1362/1/6 1342/1/6 1363/1/6
f 1344/2/6 1345/2/6 1364/2/6
f 1363/4/6 1343/4/6 1364/4/6
f 1343/2/6 1344/2/6 1364/2/6
f 1345/2/6 1346/2/6 1364/2/6
f 1346/2/6 1347/2/6 1364/2/6
f 1347/4/6 1348/4/6 1365/4/6
f 1364/2/6 1347/2/6 1365/2/6
f 1348/1/6 1349/1/6 1366/1/6
f 1365/4/6 1348/4/6 1366/4/6
f 1351/4/6 1352/4/6 1367/4/6
f 1350/1/6 1351/1/6 1367/1/6
f 1352/2/6 1353/2/6 1368/2/6
f 1367/4/6 1352/4/6 1368/4/6
f 1355/2/6 1356/2/6 1368/2/6
f 1353/2/6 1354/2/6 1368/2/6
f 1354/2/6 1355/2/6 1368/2/6
f 1356/4/6 1357/4/6 1369/4/6
f 1368/2/6 1356/2/6 1369/2/6
f 1357/1/6 1358/1/6 1370/1/6
f 1369/4/6 1357/4/6 1370/4/6
f 1358/1/6 1359/1/6 1370/1/6
f 1370/1/6 1359/1/6 1371/1/6
f 1361/1/6 1362/1/6 1374/1/6
f 1362/4/6 1363/4/6 1375/4/6
f 1374/1/6 1362/1/6 1375/1/6
f 1375/4/6 1363/4/6 1376/4/6
f 1364/2/6 1365/2/6 1377/2/6
f 1376/4/6 1363/4/6 1377/4/6
f 1365/2/6 1366/2/6 1377/2/6
f 1363/2/6 1364/2/6 1377/2/6
f 1366/1/6 1349/1/6 1378/1/6
f 1377/2/6 1366/2/6 1378/2/6
f 1378/1/6 1349/1/6 1379/1/6
f 1350/1/6 1367/1/6 1382/1/6
f 1368/2/6 1369/2/6 1383/2/6
f 1367/2/6 1368/2/6 1383/2/6
f 1382/1/6 1367/1/6 1383/1/6
f 1369/2/6 1370/2/6 1383/2/6
f 1370/4/6 1371/4/6 1384/4/6
f 1383/2/6 1370/2/6 1384/2/6
f 1384/4/6 1371/4/6 1385/4/6
f 1371/1/6 1372/1/6 1386/1/6
f 1385/4/6 1371/4/6 1386/4/6
f 1386/1/6 1372/1/6 1387/1/6
f 1376/2/6 1377/2/6 1389/2/6
f 1377/2/6 1378/2/6 1389/2/6
f 1389/2/6 1378/2/6 1390/2/6
f 1390/2/6 1378/2/6 1391/2/6
f 1384/2/6 1385/2/6 1392/2/6
f 1383/2/6 1384/2/6 1392/2/6
f 1392/2/6 1385/2/6 1393/2/6
f 1393/2/6 1385/2/6 1394/2/6
f 1373/1/6 1374/1/6 1396/1/6
f 1374/6/6 1375/6/6 1397/6/6
f 1396/1/6 1374/1/6 1397/1/6
f 1375/4/6 1376/4/6 1398/4/6
f 1397/6/6 1375/6/6 1398/6/6
f 1376/2/6 1389/2/6 1399/2/6
f 1399/2/6 1389/2/6 1400/2/6
f 1389/6/6 1390/6/6 1401/6/6
f 1400/2/6 1389/2/6 1401/2/6
f 1390/4/6 1391/4/6 1402/4/6
f 1401/6/6 1390/6/6 1402/6/6
f 1391/2/6 1378/2/6 1403/2/6
f 1402/4/6 1391/4/6 1403/4/6
f 1383/2/6 1392/2/6 1404/2/6
f 1392/4/6 1393/4/6 1404/4/6
f 1393/6/6 1394/6/6 1405/6/6
f 1404/4/6 1393/4/6 1405/4/6
f 1394/2/6 1385/2/6 1406/2/6
f 1405/6/6 1394/6/6 1406/6/6
f 1406/2/6 1385/2/6 1407/2/6
f 1407/2/6 1385/2/6 1408/2/6
f 1386/6/6 1387/6/6 1409/6/6
f 1385/4/6 1386/4/6 1409/4/6
f 1387/1/6 1388/1/6 1410/1/6
f 1409/6/6 1387/6/6 1410/6/6
f 1410/1/6 1388/1/6 1411/1/6
f 1398/4/6 1376/4/6 1413/4/6
f 1397/4/6 1398/4/6 1413/4/6
f 1376/2/6 1399/2/6 1414/2/6
f 1413/4/6 1376/4/6 1414/4/6
f 1399/1/6 1400/1/6 1415/1/6
f 1414/2/6 1399/2/6 1415/2/6
f 1400/6/6 1401/6/6 1416/6/6
f 1415/1/6 1400/1/6 1416/1/6
f 1401/4/6 1402/4/6 1417/4/6
f 1416/6/6 1401/6/6 1417/6/6
f 1402/2/6 1403/2/6 1418/2/6
f 1417/4/6 1402/4/6 1418/4/6
f 1403/2/6 1378/2/6 1419/2/6
f 1418/2/6 1403/2/6 1419/2/6
f 1378/4/6 1379/4/6 1420/4/6
f 1419/2/6 1378/2/6 1420/2/6
f 1379/1/6 1380/1/6 1421/1/6
f 1420/4/6 1379/4/6 1421/4/6
f 1421/1/6 1380/1/6 1422/1/6
f 1381/1/6 1382/1/6 1423/1/6
f 1382/4/6 1383/4/6 1424/4/6
f 1423/1/6 1382/1/6 1424/1/6
f 1404/2/6 1405/2/6 1425/2/6
f 1424/4/6 1383/4/6 1425/4/6
f 1383/2/6 1404/2/6 1425/2/6
f 1425/2/6 1405/2/6 1426/2/6
f 1405/4/6 1406/4/6 1427/4/6
f 1426/2/6 1405/2/6 1427/2/6
f 1406/6/6 1407/6/6 1428/6/6
f 1427/4/6 1406/4/6 1428/4/6
f 1407/1/6 1408/1/6 1429/1/6
f 1428/6/6 1407/6/6 1429/6/6
f 1408/2/6 1385/2/6 1430/2/6
f 1429/1/6 1408/1/6 1430/1/6
f 1385/4/6 1409/4/6 1431/4/6
f 1430/2/6 1385/2/6 1431/2/6
f 1409/4/6 1410/4/6 1431/4/6
f 1431/4/6 1410/4/6 1432/4/6
f 1395/1/6 1396/1/6 1433/1/6
f 1396/6/6 1397/6/6 1434/6/6
f 1433/1/6 1396/1/6 1434/1/6
f 1397/4/6 1413/4/6 1435/4/6
f 1434/6/6 1397/6/6 1435/6/6
f 1414/1/6 1415/1/6 1436/1/6
f 1435/4/6 1413/4/6 1436/4/6
f 1413/1/6 1414/1/6 1436/1/6
f 1436/1/6 1415/1/6 1437/1/6
f 1415/2/6 1416/2/6 1438/2/6
f 1437/1/6 1415/1/6 1438/1/6
f 1418/2/6 1419/2/6 1438/2/6
f 1417/2/6 1418/2/6 1438/2/6
f 1416/2/6 1417/2/6 1438/2/6
f 1438/2/6 1419/2/6 1439/2/6
f 1419/4/6 1420/4/6 1440/4/6
f 1439/2/6 1419/2/6 1440/2/6
f 1420/1/6 1421/1/6 1441/1/6
f 1440/4/6 1420/4/6 1441/4/6
f 1441/1/6 1421/1/6 1442/1/6
f 1424/1/6 1425/1/6 1443/1/6
f 1425/4/6 1426/4/6 1444/4/6
f 1443/1/6 1425/1/6 1444/1/6
f 1429/2/6 1430/2/6 1445/2/6
f 1444/4/6 1426/4/6 1445/4/6
f 1428/2/6 1429/2/6 1445/2/6
f 1427/2/6 1428/2/6 1445/2/6
f 1426/2/6 1427/2/6 1445/2/6
f 1445/2/6 1430/2/6 1446/2/6
f 1431/1/6 1432/1/6 1447/1/6
f 1446/2/6 1430/2/6 1447/2/6
f 1430/1/6 1431/1/6 1447/1/6
f 1447/1/6 1432/1/6 1448/1/6
f 1432/4/6 1410/4/6 1449/4/6
f 1448/1/6 1432/1/6 1449/1/6
f 1410/6/6 1411/6/6 1450/6/6
f 1449/4/6 1410/4/6 1450/4/6
f 1411/1/6 1412/1/6 1451/1/6
f 1450/6/6 1411/6/6 1451/6/6
f 1451/1/6 1412/1/6 1452/1/6
f 1435/1/6 1436/1/6 1454/1/6
f 1434/1/6 1435/1/6 1454/1/6
f 1436/4/6 1437/4/6 1455/4/6
f 1454/1/6 1436/1/6 1455/1/6
f 1438/2/6 1439/2/6 1456/2/6
f 1455/4/6 1437/4/6 1456/4/6
f 1437/2/6 1438/2/6 1456/2/6
f 1456/2/6 1439/2/6 1457/2/6
f 1457/2/6 1439/2/6 1458/2/6
f 1439/4/6 1440/4/6 1459/4/6
f 1458/2/6 1439/2/6 1459/2/6
f 1440/1/6 1441/1/6 1460/1/6
f 1459/4/6 1440/4/6 1460/4/6
f 1460/1/6 1441/1/6 1461/1/6
f 1444/1/6 1445/1/6 1462/1/6
f 1445/4/6 1446/4/6 1463/4/6
f 1462/1/6 1445/1/6 1463/1/6
f 1447/2/6 1448/2/6 1464/2/6
f 1463/4/6 1446/4/6 1464/4/6
f 1446/2/6 1447/2/6 1464/2/6
f 1464/2/6 1448/2/6 1465/2/6
f 1465/2/6 1448/2/6 1466/2/6
f 1448/4/6 1449/4/6 1467/4/6
f 1466/2/6 1448/2/6 1467/2/6
f 1449/1/6 1450/1/6 1468/1/6
f 1467/4/6 1449/4/6 1468/4/6
f 1450/1/6 1451/1/6 1468/1/6
f 1468/1/6 1451/1/6 1469/1/6
f 1453/1/6 1454/1/6 1472/1/6
f 1454/4/6 1455/4/6 1473/4/6
f 1472/1/6 1454/1/6 1473/1/6
f 1473/4/6 1455/4/6 1474/4/6
f 1455/2/6 1456/2/6 1475/2/6
f 1474/4/6 1455/4/6 1475/4/6
f 1456/2/6 1457/2/6 1475/2/6
f 1475/2/6 1457/2/6 1476/2/6
f 1476/2/6 1457/2/6 1477/2/6
f 1457/4/6 1458/4/6 1478/4/6
f 1477/2/6 1457/2/6 1478/2/6
f 1458/1/6 1459/1/6 1479/1/6
f 1478/4/6 1458/4/6 1479/4/6
f 1459/1/6 1460/1/6 1479/1/6
f 1479/1/6 1460/1/6 1480/1/6
f 1464/1/6 1465/1/6 1481/1/6
f 1463/1/6 1464/1/6 1481/1/6
f 1465/4/6 1466/4/6 1482/4/6
f 1481/1/6 1465/1/6 1482/1/6
f 1467/2/6 1468/2/6 1483/2/6
f 1482/4/6 1466/4/6 1483/4/6
f 1466/2/6 1467/2/6 1483/2/6
f 1483/2/6 1468/2/6 1484/2/6
f 1484/2/6 1468/2/6 1485/2/6
f 1468/4/6 1469/4/6 1486/4/6
f 1485/2/6 1468/2/6 1486/2/6
f 1486/4/6 1469/4/6 1487/4/6
f 1469/1/6 1470/1/6 1488/1/6
f 1487/4/6 1469/4/6 1488/4/6
f 1488/1/6 1470/1/6 1489/1/6
f 1474/2/6 1475/2/6 1491/2/6
f 1475/2/6 1476/2/6 1491/2/6
f 1491/2/6 1476/2/6 1492/2/6
f 1476/4/6 1477/4/6 1493/4/6
f 1492/2/6 1476/2/6 1493/2/6
f 1477/1/6 1478/1/6 1494/1/6
f 1493/4/6 1477/4/6 1494/4/6
f 1478/1/6 1479/1/6 1494/1/6
f 1494/1/6 1479/1/6 1495/1/6
f 1483/1/6 1484/1/6 1496/1/6
f 1482/1/6 1483/1/6 1496/1/6
f 1484/4/6 1485/4/6 1497/4/6
f 1496/1/6 1484/1/6 1497/1/6
f 1486/2/6 1487/2/6 1498/2/6
f 1497/4/6 1485/4/6 1498/4/6
f 1485/2/6 1486/2/6 1498/2/6
f 1498/2/6 1487/2/6 1499/2/6
f 1499/2/6 1487/2/6 1500/2/6
f 1471/1/6 1472/1/6 1501/1/6
f 1472/6/6 1473/6/6 1502/6/6
f 1501/1/6 1472/1/6 1502/1/6
f 1473/4/6 1474/4/6 1503/4/6
f 1502/6/6 1473/6/6 1503/6/6
f 1474/2/6 1491/2/6 1504/2/6
f 1503/4/6 1474/4/6 1504/4/6
f 1491/4/6 1492/4/6 1505/4/6
f 1504/2/6 1491/2/6 1505/2/6
f 1492/1/6 1493/1/6 1506/1/6
f 1505/4/6 1492/4/6 1506/4/6
f 1493/1/6 1494/1/6 1506/1/6
f 1506/1/6 1494/1/6 1507/1/6
f 1497/1/6 1498/1/6 1508/1/6
f 1498/1/6 1499/1/6 1508/1/6
f 1499/4/6 1500/4/6 1509/4/6
f 1508/1/6 1499/1/6 1509/1/6
f 1500/2/6 1487/2/6 1510/2/6
f 1509/4/6 1500/4/6 1510/4/6
f 1487/4/6 1488/4/6 1511/4/6
f 1510/2/6 1487/2/6 1511/2/6
f 1488/6/6 1489/6/6 1512/6/6
f 1511/4/6 1488/4/6 1512/4/6
f 1489/1/6 1490/1/6 1513/1/6
f 1512/6/6 1489/6/6 1513/6/6
f 1513/1/6 1490/1/6 1514/1/6
f 1504/1/6 1505/1/6 1515/1/6
f 1505/1/6 1506/1/6 1515/1/6
f 1502/1/6 1503/1/6 1515/1/6
f 1503/1/6 1504/1/6 1515/1/6
f 1515/1/6 1506/1/6 1516/1/6
f 1510/1/6 1511/1/6 1517/1/6
f 1511/1/6 1512/1/6 1517/1/6
f 1512/1/6 1513/1/6 1517/1/6
f 1509/1/6 1510/1/6 1517/1/6
f 1517/1/6 1513/1/6 1518/1/6
