# MagicaVoxel @ Ephtracy

# group
o 

# material
mtllib Pet1.mtl
usemtl palette

# normals
vn -1 0 0
vn 1 0 0
vn 0 0 1
vn 0 0 -1
vn 0 -1 0
vn 0 1 0

# texcoords
vt 0.841797 0.5
vt 0.912109 0.5
vt 0.919922 0.5
vt 0.923828 0.5
vt 0.927734 0.5
vt 0.931641 0.5
vt 0.935547 0.5
vt 0.951172 0.5
vt 0.958984 0.5
vt 0.962891 0.5
vt 0.974609 0.5
vt 0.982422 0.5
vt 0.994141 0.5

# verts
v 0.3 5.9 0
v 0.3 5.9 -0.1
v 0.3 6.2 0
v 0.3 6.2 -0.1
v 0.4 5.8 0
v 0.4 5.8 -0.1
v 0.4 5.9 0
v 0.4 5.9 -0.1
v 0.4 6.2 0
v 0.4 6.2 -0.1
v 0.4 7.1 0
v 0.4 7.1 -0.1
v 0.5 5.4 0
v 0.5 5.4 -0.1
v 0.5 5.8 0
v 0.5 5.8 -0.1
v 0.5 7.1 0
v 0.5 7.1 -0.1
v 0.5 7.2 0
v 0.5 7.2 -0.1
v 0.6 5 0
v 0.6 5 -0.1
v 0.6 5.4 0
v 0.6 5.4 -0.1
v 0.7 4.9 0
v 0.7 4.9 -0.1
v 0.7 5 0
v 0.7 5 -0.1
v 0.8 4.8 0
v 0.8 4.8 -0.1
v 0.8 4.9 0
v 0.8 4.9 -0.1
v 1.1 4.9 0
v 1.1 4.9 -0.1
v 1.1 5.3 0
v 1.1 5.3 -0.1
v 1.2 4.8 0
v 1.2 4.8 -0.1
v 1.2 4.9 0
v 1.2 4.9 -0.1
v 1.2 6.8 0
v 1.2 6.8 -0.1
v 1.2 7 0
v 1.2 7 -0.1
v 1.3 7 0
v 1.3 7 -0.1
v 1.3 7.1 0
v 1.3 7.1 -0.1
v 1.4 7.1 0
v 1.4 7.1 -0.1
v 1.4 7.2 0
v 1.4 7.2 -0.1
v 0.7 7.1 0
v 0.7 7.1 -0.1
v 0.7 7.2 0
v 0.7 7.2 -0.1
v 0.8 7 0
v 0.8 7 -0.1
v 0.8 7.1 0
v 0.8 7.1 -0.1
v 0.9 4.8 0
v 0.9 4.8 -0.1
v 0.9 4.9 0
v 0.9 4.9 -0.1
v 0.9 6.8 0
v 0.9 6.8 -0.1
v 0.9 7 0
v 0.9 7 -0.1
v 1 4.9 0
v 1 4.9 -0.1
v 1 5.3 0
v 1 5.3 -0.1
v 1.3 4.8 0
v 1.3 4.8 -0.1
v 1.3 4.9 0
v 1.3 4.9 -0.1
v 1.4 4.9 0
v 1.4 4.9 -0.1
v 1.4 5 0
v 1.4 5 -0.1
v 1.5 5 0
v 1.5 5 -0.1
v 1.5 5.4 0
v 1.5 5.4 -0.1
v 1.6 5.4 0
v 1.6 5.4 -0.1
v 1.6 5.8 0
v 1.6 5.8 -0.1
v 1.6 7.1 0
v 1.6 7.1 -0.1
v 1.6 7.2 0
v 1.6 7.2 -0.1
v 1.7 5.8 0
v 1.7 5.8 -0.1
v 1.7 5.9 0
v 1.7 5.9 -0.1
v 1.7 6.2 0
v 1.7 6.2 -0.1
v 1.7 7.1 0
v 1.7 7.1 -0.1
v 1.8 5.9 0
v 1.8 5.9 -0.1
v 1.8 6.2 0
v 1.8 6.2 -0.1
v 0.3 5.9 0
v 0.3 6.2 0
v 0.4 5.8 0
v 0.4 5.9 0
v 0.4 6 0
v 0.4 6.1 0
v 0.4 6.2 0
v 0.4 7.1 0
v 0.5 5.4 0
v 0.5 5.8 0
v 0.5 5.9 0
v 0.5 6 0
v 0.5 6.1 0
v 0.5 6.2 0
v 0.5 6.3 0
v 0.5 6.5 0
v 0.5 6.6 0
v 0.5 6.7 0
v 0.5 7 0
v 0.5 7.1 0
v 0.5 7.2 0
v 0.6 5 0
v 0.6 5.4 0
v 0.6 5.5 0
v 0.6 5.6 0
v 0.6 5.7 0
v 0.6 5.8 0
v 0.6 5.9 0
v 0.6 6 0
v 0.6 6.2 0
v 0.6 6.3 0
v 0.6 6.5 0
v 0.6 6.6 0
v 0.6 6.7 0
v 0.6 6.9 0
v 0.6 7 0
v 0.6 7.1 0
v 0.7 4.9 0
v 0.7 5 0
v 0.7 5.1 0
v 0.7 5.4 0
v 0.7 5.5 0
v 0.7 5.6 0
v 0.7 5.7 0
v 0.7 5.9 0
v 0.7 6 0
v 0.7 6.6 0
v 0.7 6.7 0
v 0.7 6.9 0
v 0.7 7 0
v 0.7 7.1 0
v 0.7 7.2 0
v 0.8 4.8 0
v 0.8 4.9 0
v 0.8 5 0
v 0.8 5.1 0
v 0.8 5.5 0
v 0.8 5.6 0
v 0.8 5.7 0
v 0.8 5.8 0
v 0.8 6.1 0
v 0.8 6.2 0
v 0.8 6.7 0
v 0.8 6.8 0
v 0.8 6.9 0
v 0.8 7 0
v 0.8 7.1 0
v 0.9 4.8 0
v 0.9 4.9 0
v 0.9 5 0
v 0.9 5.4 0
v 0.9 5.6 0
v 0.9 5.7 0
v 0.9 5.9 0
v 0.9 6.1 0
v 0.9 6.2 0
v 0.9 6.7 0
v 0.9 6.8 0
v 0.9 7 0
v 1 4.9 0
v 1 5.3 0
v 1 5.7 0
v 1 5.8 0
v 1 5.9 0
v 1.1 4.9 0
v 1.1 5.3 0
v 1.1 5.7 0
v 1.1 5.8 0
v 1.1 5.9 0
v 1.2 4.8 0
v 1.2 4.9 0
v 1.2 5 0
v 1.2 5.4 0
v 1.2 5.6 0
v 1.2 5.7 0
v 1.2 5.9 0
v 1.2 6.1 0
v 1.2 6.2 0
v 1.2 6.7 0
v 1.2 6.8 0
v 1.2 7 0
v 1.3 4.8 0
v 1.3 4.9 0
v 1.3 5 0
v 1.3 5.1 0
v 1.3 5.5 0
v 1.3 5.6 0
v 1.3 5.7 0
v 1.3 5.8 0
v 1.3 6.1 0
v 1.3 6.2 0
v 1.3 6.7 0
v 1.3 6.8 0
v 1.3 6.9 0
v 1.3 7 0
v 1.3 7.1 0
v 1.4 4.9 0
v 1.4 5 0
v 1.4 5.1 0
v 1.4 5.4 0
v 1.4 5.5 0
v 1.4 5.6 0
v 1.4 5.7 0
v 1.4 5.9 0
v 1.4 6 0
v 1.4 6.6 0
v 1.4 6.7 0
v 1.4 6.9 0
v 1.4 7 0
v 1.4 7.1 0
v 1.4 7.2 0
v 1.5 5 0
v 1.5 5.4 0
v 1.5 5.5 0
v 1.5 5.6 0
v 1.5 5.7 0
v 1.5 5.8 0
v 1.5 5.9 0
v 1.5 6 0
v 1.5 6.2 0
v 1.5 6.3 0
v 1.5 6.5 0
v 1.5 6.6 0
v 1.5 6.7 0
v 1.5 6.9 0
v 1.5 7 0
v 1.5 7.1 0
v 1.6 5.4 0
v 1.6 5.8 0
v 1.6 5.9 0
v 1.6 6 0
v 1.6 6.2 0
v 1.6 6.3 0
v 1.6 6.5 0
v 1.6 6.6 0
v 1.6 6.7 0
v 1.6 7 0
v 1.6 7.1 0
v 1.6 7.2 0
v 1.7 5.8 0
v 1.7 5.9 0
v 1.7 6 0
v 1.7 6.2 0
v 1.7 7.1 0
v 1.8 5.9 0
v 1.8 6.2 0
v 0.3 5.9 -0.1
v 0.3 6.2 -0.1
v 0.4 5.8 -0.1
v 0.4 5.9 -0.1
v 0.4 6 -0.1
v 0.4 6.1 -0.1
v 0.4 6.2 -0.1
v 0.4 7.1 -0.1
v 0.5 5.4 -0.1
v 0.5 5.8 -0.1
v 0.5 5.9 -0.1
v 0.5 6 -0.1
v 0.5 6.1 -0.1
v 0.5 6.2 -0.1
v 0.5 6.3 -0.1
v 0.5 6.5 -0.1
v 0.5 6.6 -0.1
v 0.5 6.7 -0.1
v 0.5 7 -0.1
v 0.5 7.1 -0.1
v 0.5 7.2 -0.1
v 0.6 5 -0.1
v 0.6 5.4 -0.1
v 0.6 5.5 -0.1
v 0.6 5.6 -0.1
v 0.6 5.7 -0.1
v 0.6 5.8 -0.1
v 0.6 5.9 -0.1
v 0.6 6 -0.1
v 0.6 6.2 -0.1
v 0.6 6.3 -0.1
v 0.6 6.5 -0.1
v 0.6 6.6 -0.1
v 0.6 6.7 -0.1
v 0.6 6.9 -0.1
v 0.6 7 -0.1
v 0.6 7.1 -0.1
v 0.7 4.9 -0.1
v 0.7 5 -0.1
v 0.7 5.1 -0.1
v 0.7 5.4 -0.1
v 0.7 5.5 -0.1
v 0.7 5.6 -0.1
v 0.7 5.7 -0.1
v 0.7 5.9 -0.1
v 0.7 6 -0.1
v 0.7 6.6 -0.1
v 0.7 6.7 -0.1
v 0.7 6.9 -0.1
v 0.7 7 -0.1
v 0.7 7.1 -0.1
v 0.7 7.2 -0.1
v 0.8 4.8 -0.1
v 0.8 4.9 -0.1
v 0.8 5 -0.1
v 0.8 5.1 -0.1
v 0.8 5.5 -0.1
v 0.8 5.6 -0.1
v 0.8 5.7 -0.1
v 0.8 5.8 -0.1
v 0.8 6.1 -0.1
v 0.8 6.2 -0.1
v 0.8 6.7 -0.1
v 0.8 6.8 -0.1
v 0.8 6.9 -0.1
v 0.8 7 -0.1
v 0.8 7.1 -0.1
v 0.9 4.8 -0.1
v 0.9 4.9 -0.1
v 0.9 5 -0.1
v 0.9 5.4 -0.1
v 0.9 5.6 -0.1
v 0.9 5.7 -0.1
v 0.9 5.9 -0.1
v 0.9 6.1 -0.1
v 0.9 6.2 -0.1
v 0.9 6.7 -0.1
v 0.9 6.8 -0.1
v 0.9 7 -0.1
v 1 4.9 -0.1
v 1 5.3 -0.1
v 1 5.7 -0.1
v 1 5.8 -0.1
v 1 5.9 -0.1
v 1.1 4.9 -0.1
v 1.1 5.3 -0.1
v 1.1 5.7 -0.1
v 1.1 5.8 -0.1
v 1.1 5.9 -0.1
v 1.2 4.8 -0.1
v 1.2 4.9 -0.1
v 1.2 5 -0.1
v 1.2 5.4 -0.1
v 1.2 5.6 -0.1
v 1.2 5.7 -0.1
v 1.2 5.9 -0.1
v 1.2 6.1 -0.1
v 1.2 6.2 -0.1
v 1.2 6.7 -0.1
v 1.2 6.8 -0.1
v 1.2 7 -0.1
v 1.3 4.8 -0.1
v 1.3 4.9 -0.1
v 1.3 5 -0.1
v 1.3 5.1 -0.1
v 1.3 5.5 -0.1
v 1.3 5.6 -0.1
v 1.3 5.7 -0.1
v 1.3 5.8 -0.1
v 1.3 6.1 -0.1
v 1.3 6.2 -0.1
v 1.3 6.7 -0.1
v 1.3 6.8 -0.1
v 1.3 6.9 -0.1
v 1.3 7 -0.1
v 1.3 7.1 -0.1
v 1.4 4.9 -0.1
v 1.4 5 -0.1
v 1.4 5.1 -0.1
v 1.4 5.4 -0.1
v 1.4 5.5 -0.1
v 1.4 5.6 -0.1
v 1.4 5.7 -0.1
v 1.4 5.9 -0.1
v 1.4 6 -0.1
v 1.4 6.6 -0.1
v 1.4 6.7 -0.1
v 1.4 6.9 -0.1
v 1.4 7 -0.1
v 1.4 7.1 -0.1
v 1.4 7.2 -0.1
v 1.5 5 -0.1
v 1.5 5.4 -0.1
v 1.5 5.5 -0.1
v 1.5 5.6 -0.1
v 1.5 5.7 -0.1
v 1.5 5.8 -0.1
v 1.5 5.9 -0.1
v 1.5 6 -0.1
v 1.5 6.2 -0.1
v 1.5 6.3 -0.1
v 1.5 6.5 -0.1
v 1.5 6.6 -0.1
v 1.5 6.7 -0.1
v 1.5 6.9 -0.1
v 1.5 7 -0.1
v 1.5 7.1 -0.1
v 1.6 5.4 -0.1
v 1.6 5.8 -0.1
v 1.6 5.9 -0.1
v 1.6 6 -0.1
v 1.6 6.2 -0.1
v 1.6 6.3 -0.1
v 1.6 6.5 -0.1
v 1.6 6.6 -0.1
v 1.6 6.7 -0.1
v 1.6 7 -0.1
v 1.6 7.1 -0.1
v 1.6 7.2 -0.1
v 1.7 5.8 -0.1
v 1.7 5.9 -0.1
v 1.7 6 -0.1
v 1.7 6.2 -0.1
v 1.7 7.1 -0.1
v 1.8 5.9 -0.1
v 1.8 6.2 -0.1
v 0.8 4.8 0
v 0.9 4.8 0
v 1.2 4.8 0
v 1.3 4.8 0
v 0.8 4.8 -0.1
v 0.9 4.8 -0.1
v 1.2 4.8 -0.1
v 1.3 4.8 -0.1
v 0.7 4.9 0
v 0.8 4.9 0
v 0.9 4.9 0
v 1 4.9 0
v 1.1 4.9 0
v 1.2 4.9 0
v 1.3 4.9 0
v 1.4 4.9 0
v 0.7 4.9 -0.1
v 0.8 4.9 -0.1
v 0.9 4.9 -0.1
v 1 4.9 -0.1
v 1.1 4.9 -0.1
v 1.2 4.9 -0.1
v 1.3 4.9 -0.1
v 1.4 4.9 -0.1
v 0.6 5 0
v 0.7 5 0
v 1.4 5 0
v 1.5 5 0
v 0.6 5 -0.1
v 0.7 5 -0.1
v 1.4 5 -0.1
v 1.5 5 -0.1
v 1 5.3 0
v 1.1 5.3 0
v 1 5.3 -0.1
v 1.1 5.3 -0.1
v 0.5 5.4 0
v 0.6 5.4 0
v 1.5 5.4 0
v 1.6 5.4 0
v 0.5 5.4 -0.1
v 0.6 5.4 -0.1
v 1.5 5.4 -0.1
v 1.6 5.4 -0.1
v 0.4 5.8 0
v 0.5 5.8 0
v 1.6 5.8 0
v 1.7 5.8 0
v 0.4 5.8 -0.1
v 0.5 5.8 -0.1
v 1.6 5.8 -0.1
v 1.7 5.8 -0.1
v 0.3 5.9 0
v 0.4 5.9 0
v 1.7 5.9 0
v 1.8 5.9 0
v 0.3 5.9 -0.1
v 0.4 5.9 -0.1
v 1.7 5.9 -0.1
v 1.8 5.9 -0.1
v 0.3 6.2 0
v 0.4 6.2 0
v 1.7 6.2 0
v 1.8 6.2 0
v 0.3 6.2 -0.1
v 0.4 6.2 -0.1
v 1.7 6.2 -0.1
v 1.8 6.2 -0.1
v 0.9 6.8 0
v 1.2 6.8 0
v 0.9 6.8 -0.1
v 1.2 6.8 -0.1
v 0.8 7 0
v 0.9 7 0
v 1.2 7 0
v 1.3 7 0
v 0.8 7 -0.1
v 0.9 7 -0.1
v 1.2 7 -0.1
v 1.3 7 -0.1
v 0.4 7.1 0
v 0.5 7.1 0
v 0.7 7.1 0
v 0.8 7.1 0
v 1.3 7.1 0
v 1.4 7.1 0
v 1.6 7.1 0
v 1.7 7.1 0
v 0.4 7.1 -0.1
v 0.5 7.1 -0.1
v 0.7 7.1 -0.1
v 0.8 7.1 -0.1
v 1.3 7.1 -0.1
v 1.4 7.1 -0.1
v 1.6 7.1 -0.1
v 1.7 7.1 -0.1
v 0.5 7.2 0
v 0.7 7.2 0
v 1.4 7.2 0
v 1.6 7.2 0
v 0.5 7.2 -0.1
v 0.7 7.2 -0.1
v 1.4 7.2 -0.1
v 1.6 7.2 -0.1

# faces
f 3/13/1 2/13/1 1/13/1
f 4/13/1 2/13/1 3/13/1
f 7/13/1 6/13/1 5/13/1
f 8/13/1 6/13/1 7/13/1
f 11/13/1 10/13/1 9/13/1
f 12/13/1 10/13/1 11/13/1
f 15/13/1 14/13/1 13/13/1
f 16/13/1 14/13/1 15/13/1
f 19/13/1 18/13/1 17/13/1
f 20/13/1 18/13/1 19/13/1
f 23/13/1 22/13/1 21/13/1
f 24/13/1 22/13/1 23/13/1
f 27/13/1 26/13/1 25/13/1
f 28/13/1 26/13/1 27/13/1
f 31/13/1 30/13/1 29/13/1
f 32/13/1 30/13/1 31/13/1
f 35/13/1 34/13/1 33/13/1
f 36/13/1 34/13/1 35/13/1
f 39/13/1 38/13/1 37/13/1
f 40/13/1 38/13/1 39/13/1
f 43/13/1 42/13/1 41/13/1
f 44/13/1 42/13/1 43/13/1
f 47/13/1 46/13/1 45/13/1
f 48/13/1 46/13/1 47/13/1
f 51/13/1 50/13/1 49/13/1
f 52/13/1 50/13/1 51/13/1
f 53/13/2 54/13/2 55/13/2
f 55/13/2 54/13/2 56/13/2
f 57/13/2 58/13/2 59/13/2
f 59/13/2 58/13/2 60/13/2
f 61/13/2 62/13/2 63/13/2
f 63/13/2 62/13/2 64/13/2
f 65/13/2 66/13/2 67/13/2
f 67/13/2 66/13/2 68/13/2
f 69/13/2 70/13/2 71/13/2
f 71/13/2 70/13/2 72/13/2
f 73/13/2 74/13/2 75/13/2
f 75/13/2 74/13/2 76/13/2
f 77/13/2 78/13/2 79/13/2
f 79/13/2 78/13/2 80/13/2
f 81/13/2 82/13/2 83/13/2
f 83/13/2 82/13/2 84/13/2
f 85/13/2 86/13/2 87/13/2
f 87/13/2 86/13/2 88/13/2
f 89/13/2 90/13/2 91/13/2
f 91/13/2 90/13/2 92/13/2
f 93/13/2 94/13/2 95/13/2
f 95/13/2 94/13/2 96/13/2
f 97/13/2 98/13/2 99/13/2
f 99/13/2 98/13/2 100/13/2
f 101/13/2 102/13/2 103/13/2
f 103/13/2 102/13/2 104/13/2
f 108/13/3 106/13/3 105/13/3
f 109/13/3 106/13/3 108/13/3
f 110/13/3 106/13/3 109/13/3
f 111/13/3 106/13/3 110/13/3
f 114/13/3 108/13/3 107/13/3
f 115/7/3 109/7/3 108/7/3
f 115/13/3 108/13/3 114/13/3
f 116/6/3 110/6/3 109/6/3
f 116/7/3 109/7/3 115/7/3
f 117/5/3 111/5/3 110/5/3
f 117/6/3 110/6/3 116/6/3
f 118/13/3 112/13/3 111/13/3
f 118/5/3 111/5/3 117/5/3
f 119/13/3 112/13/3 118/13/3
f 120/13/3 112/13/3 119/13/3
f 121/13/3 112/13/3 120/13/3
f 122/13/3 112/13/3 121/13/3
f 123/13/3 112/13/3 122/13/3
f 124/13/3 112/13/3 123/13/3
f 127/13/3 114/13/3 113/13/3
f 128/13/3 114/13/3 127/13/3
f 129/13/3 114/13/3 128/13/3
f 130/13/3 114/13/3 129/13/3
f 131/7/3 115/7/3 114/7/3
f 131/13/3 114/13/3 130/13/3
f 132/3/3 117/3/3 116/3/3
f 132/7/3 115/7/3 131/7/3
f 132/3/3 116/3/3 115/3/3
f 132/3/3 118/3/3 117/3/3
f 132/3/3 119/3/3 118/3/3
f 133/3/3 119/3/3 132/3/3
f 134/3/3 119/3/3 133/3/3
f 135/9/3 120/9/3 119/9/3
f 135/3/3 119/3/3 134/3/3
f 136/10/3 121/10/3 120/10/3
f 136/9/3 120/9/3 135/9/3
f 137/3/3 122/3/3 121/3/3
f 137/10/3 121/10/3 136/10/3
f 138/6/3 123/6/3 122/6/3
f 138/3/3 122/3/3 137/3/3
f 139/6/3 123/6/3 138/6/3
f 140/10/3 124/10/3 123/10/3
f 140/6/3 123/6/3 139/6/3
f 141/13/3 125/13/3 124/13/3
f 141/10/3 124/10/3 140/10/3
f 143/13/3 127/13/3 126/13/3
f 144/13/3 127/13/3 143/13/3
f 145/3/3 128/3/3 127/3/3
f 145/13/3 127/13/3 144/13/3
f 146/10/3 129/10/3 128/10/3
f 146/3/3 128/3/3 145/3/3
f 147/11/3 130/11/3 129/11/3
f 147/10/3 129/10/3 146/10/3
f 148/12/3 131/12/3 130/12/3
f 148/11/3 130/11/3 147/11/3
f 149/3/3 132/3/3 131/3/3
f 149/3/3 133/3/3 132/3/3
f 150/8/3 134/8/3 133/8/3
f 150/3/3 133/3/3 149/3/3
f 151/9/3 135/9/3 134/9/3
f 151/9/3 136/9/3 135/9/3
f 151/9/3 137/9/3 136/9/3
f 151/10/3 138/10/3 137/10/3
f 152/9/3 139/9/3 138/9/3
f 152/10/3 138/10/3 151/10/3
f 153/3/3 140/3/3 139/3/3
f 153/9/3 139/9/3 152/9/3
f 154/9/3 141/9/3 140/9/3
f 154/3/3 140/3/3 153/3/3
f 155/13/3 125/13/3 141/13/3
f 155/9/3 141/9/3 154/9/3
f 156/13/3 125/13/3 155/13/3
f 158/13/3 143/13/3 142/13/3
f 159/3/3 144/3/3 143/3/3
f 159/13/3 143/13/3 158/13/3
f 160/9/3 146/9/3 145/9/3
f 160/3/3 144/3/3 159/3/3
f 160/9/3 145/9/3 144/9/3
f 161/10/3 147/10/3 146/10/3
f 161/9/3 146/9/3 160/9/3
f 162/12/3 148/12/3 147/12/3
f 162/10/3 147/10/3 161/10/3
f 163/12/3 131/12/3 148/12/3
f 163/12/3 148/12/3 162/12/3
f 164/3/3 149/3/3 131/3/3
f 164/12/3 131/12/3 163/12/3
f 165/8/3 134/8/3 150/8/3
f 165/8/3 150/8/3 149/8/3
f 166/9/3 152/9/3 151/9/3
f 166/8/3 134/8/3 165/8/3
f 166/9/3 151/9/3 134/9/3
f 167/10/3 153/10/3 152/10/3
f 167/9/3 152/9/3 166/9/3
f 168/10/3 153/10/3 167/10/3
f 169/9/3 154/9/3 153/9/3
f 169/10/3 153/10/3 168/10/3
f 170/13/3 155/13/3 154/13/3
f 170/9/3 154/9/3 169/9/3
f 171/13/3 155/13/3 170/13/3
f 172/13/3 158/13/3 157/13/3
f 173/3/3 159/3/3 158/3/3
f 173/13/3 158/13/3 172/13/3
f 174/9/3 160/9/3 159/9/3
f 174/3/3 159/3/3 173/3/3
f 174/9/3 162/9/3 161/9/3
f 174/9/3 161/9/3 160/9/3
f 175/9/3 162/9/3 174/9/3
f 176/12/3 163/12/3 162/12/3
f 176/9/3 162/9/3 175/9/3
f 177/3/3 164/3/3 163/3/3
f 177/12/3 163/12/3 176/12/3
f 178/8/3 165/8/3 149/8/3
f 178/3/3 164/3/3 177/3/3
f 178/3/3 149/3/3 164/3/3
f 179/3/3 166/3/3 165/3/3
f 179/8/3 165/8/3 178/8/3
f 180/9/3 167/9/3 166/9/3
f 180/3/3 166/3/3 179/3/3
f 181/3/3 168/3/3 167/3/3
f 181/9/3 167/9/3 180/9/3
f 182/13/3 169/13/3 168/13/3
f 182/3/3 168/3/3 181/3/3
f 182/13/3 170/13/3 169/13/3
f 183/13/3 170/13/3 182/13/3
f 184/13/3 175/13/3 174/13/3
f 184/13/3 174/13/3 173/13/3
f 185/13/3 175/13/3 184/13/3
f 186/4/3 177/4/3 176/4/3
f 186/3/3 178/3/3 177/3/3
f 187/3/3 178/3/3 186/3/3
f 188/9/3 180/9/3 179/9/3
f 188/3/3 178/3/3 187/3/3
f 188/9/3 181/9/3 180/9/3
f 188/9/3 179/9/3 178/9/3
f 190/13/3 175/13/3 185/13/3
f 191/1/3 187/1/3 186/1/3
f 191/4/3 186/4/3 176/4/3
f 192/4/3 188/4/3 187/4/3
f 192/1/3 187/1/3 191/1/3
f 193/9/3 181/9/3 188/9/3
f 193/4/3 188/4/3 192/4/3
f 195/13/3 190/13/3 189/13/3
f 196/13/3 190/13/3 195/13/3
f 197/9/3 176/9/3 175/9/3
f 197/13/3 190/13/3 196/13/3
f 197/13/3 175/13/3 190/13/3
f 198/4/3 191/4/3 176/4/3
f 198/9/3 176/9/3 197/9/3
f 199/3/3 192/3/3 191/3/3
f 199/4/3 191/4/3 198/4/3
f 199/3/3 193/3/3 192/3/3
f 200/9/3 181/9/3 193/9/3
f 200/3/3 193/3/3 199/3/3
f 201/9/3 181/9/3 200/9/3
f 202/9/3 181/9/3 201/9/3
f 203/13/3 182/13/3 181/13/3
f 203/9/3 181/9/3 202/9/3
f 204/13/3 182/13/3 203/13/3
f 206/13/3 195/13/3 194/13/3
f 207/3/3 196/3/3 195/3/3
f 207/13/3 195/13/3 206/13/3
f 208/2/3 197/2/3 196/2/3
f 208/3/3 196/3/3 207/3/3
f 209/2/3 197/2/3 208/2/3
f 210/9/3 198/9/3 197/9/3
f 211/12/3 199/12/3 198/12/3
f 211/9/3 198/9/3 210/9/3
f 212/3/3 200/3/3 199/3/3
f 212/12/3 199/12/3 211/12/3
f 213/3/3 200/3/3 212/3/3
f 214/3/3 202/3/3 201/3/3
f 214/8/3 201/8/3 200/8/3
f 215/9/3 203/9/3 202/9/3
f 215/3/3 202/3/3 214/3/3
f 216/3/3 204/3/3 203/3/3
f 216/9/3 203/9/3 215/9/3
f 217/13/3 205/13/3 204/13/3
f 217/3/3 204/3/3 216/3/3
f 218/13/3 205/13/3 217/13/3
f 219/13/3 205/13/3 218/13/3
f 221/13/3 208/13/3 207/13/3
f 222/3/3 209/3/3 208/3/3
f 222/13/3 208/13/3 221/13/3
f 223/2/3 197/2/3 209/2/3
f 223/3/3 209/3/3 222/3/3
f 224/9/3 210/9/3 197/9/3
f 224/2/3 197/2/3 223/2/3
f 225/10/3 211/10/3 210/10/3
f 225/9/3 210/9/3 224/9/3
f 226/12/3 213/12/3 212/12/3
f 226/10/3 211/10/3 225/10/3
f 226/12/3 212/12/3 211/12/3
f 227/12/3 213/12/3 226/12/3
f 228/3/3 200/3/3 213/3/3
f 228/8/3 214/8/3 200/8/3
f 228/8/3 215/8/3 214/8/3
f 229/8/3 215/8/3 228/8/3
f 230/9/3 216/9/3 215/9/3
f 231/10/3 218/10/3 217/10/3
f 231/9/3 216/9/3 230/9/3
f 231/10/3 217/10/3 216/10/3
f 232/9/3 219/9/3 218/9/3
f 232/10/3 218/10/3 231/10/3
f 233/13/3 220/13/3 219/13/3
f 233/9/3 219/9/3 232/9/3
f 234/13/3 220/13/3 233/13/3
f 236/13/3 223/13/3 222/13/3
f 236/13/3 224/13/3 223/13/3
f 237/3/3 225/3/3 224/3/3
f 237/13/3 224/13/3 236/13/3
f 238/10/3 226/10/3 225/10/3
f 238/3/3 225/3/3 237/3/3
f 239/11/3 227/11/3 226/11/3
f 239/10/3 226/10/3 238/10/3
f 240/12/3 213/12/3 227/12/3
f 240/11/3 227/11/3 239/11/3
f 241/3/3 228/3/3 213/3/3
f 241/12/3 213/12/3 240/12/3
f 241/3/3 229/3/3 228/3/3
f 242/3/3 229/3/3 241/3/3
f 243/8/3 215/8/3 229/8/3
f 243/3/3 229/3/3 242/3/3
f 244/9/3 230/9/3 215/9/3
f 244/8/3 215/8/3 243/8/3
f 245/9/3 230/9/3 244/9/3
f 246/9/3 230/9/3 245/9/3
f 247/10/3 231/10/3 230/10/3
f 247/9/3 230/9/3 246/9/3
f 248/9/3 232/9/3 231/9/3
f 248/10/3 231/10/3 247/10/3
f 249/3/3 233/3/3 232/3/3
f 249/9/3 232/9/3 248/9/3
f 250/9/3 234/9/3 233/9/3
f 250/3/3 233/3/3 249/3/3
f 251/13/3 235/13/3 234/13/3
f 251/9/3 234/9/3 250/9/3
f 252/13/3 239/13/3 238/13/3
f 252/13/3 240/13/3 239/13/3
f 252/13/3 238/13/3 237/13/3
f 252/13/3 241/13/3 240/13/3
f 253/7/3 242/7/3 241/7/3
f 253/13/3 241/13/3 252/13/3
f 254/3/3 245/3/3 244/3/3
f 254/7/3 242/7/3 253/7/3
f 254/3/3 244/3/3 243/3/3
f 254/3/3 243/3/3 242/3/3
f 255/3/3 245/3/3 254/3/3
f 256/3/3 245/3/3 255/3/3
f 257/9/3 246/9/3 245/9/3
f 257/3/3 245/3/3 256/3/3
f 258/10/3 247/10/3 246/10/3
f 258/9/3 246/9/3 257/9/3
f 259/3/3 248/3/3 247/3/3
f 259/10/3 247/10/3 258/10/3
f 260/6/3 249/6/3 248/6/3
f 260/3/3 248/3/3 259/3/3
f 260/6/3 250/6/3 249/6/3
f 261/10/3 251/10/3 250/10/3
f 261/6/3 250/6/3 260/6/3
f 262/13/3 235/13/3 251/13/3
f 262/10/3 251/10/3 261/10/3
f 263/13/3 235/13/3 262/13/3
f 264/13/3 254/13/3 253/13/3
f 265/7/3 255/7/3 254/7/3
f 265/13/3 254/13/3 264/13/3
f 266/5/3 256/5/3 255/5/3
f 266/7/3 255/7/3 265/7/3
f 267/13/3 257/13/3 256/13/3
f 267/5/3 256/5/3 266/5/3
f 267/13/3 259/13/3 258/13/3
f 267/13/3 262/13/3 261/13/3
f 267/13/3 261/13/3 260/13/3
f 267/13/3 258/13/3 257/13/3
f 267/13/3 260/13/3 259/13/3
f 268/13/3 262/13/3 267/13/3
f 269/13/3 266/13/3 265/13/3
f 269/13/3 267/13/3 266/13/3
f 270/13/3 267/13/3 269/13/3
f 271/13/4 272/13/4 274/13/4
f 274/13/4 272/13/4 275/13/4
f 275/13/4 272/13/4 276/13/4
f 276/13/4 272/13/4 277/13/4
f 273/13/4 274/13/4 280/13/4
f 274/7/4 275/7/4 281/7/4
f 280/13/4 274/13/4 281/13/4
f 275/6/4 276/6/4 282/6/4
f 281/7/4 275/7/4 282/7/4
f 276/5/4 277/5/4 283/5/4
f 282/6/4 276/6/4 283/6/4
f 277/13/4 278/13/4 284/13/4
f 283/5/4 277/5/4 284/5/4
f 284/13/4 278/13/4 285/13/4
f 285/13/4 278/13/4 286/13/4
f 286/13/4 278/13/4 287/13/4
f 287/13/4 278/13/4 288/13/4
f 288/13/4 278/13/4 289/13/4
f 289/13/4 278/13/4 290/13/4
f 279/13/4 280/13/4 293/13/4
f 293/13/4 280/13/4 294/13/4
f 294/13/4 280/13/4 295/13/4
f 295/13/4 280/13/4 296/13/4
f 280/7/4 281/7/4 297/7/4
f 296/13/4 280/13/4 297/13/4
f 282/3/4 283/3/4 298/3/4
f 297/7/4 281/7/4 298/7/4
f 281/3/4 282/3/4 298/3/4
f 283/3/4 284/3/4 298/3/4
f 284/3/4 285/3/4 298/3/4
f 298/3/4 285/3/4 299/3/4
f 299/3/4 285/3/4 300/3/4
f 285/9/4 286/9/4 301/9/4
f 300/3/4 285/3/4 301/3/4
f 286/10/4 287/10/4 302/10/4
f 301/9/4 286/9/4 302/9/4
f 287/3/4 288/3/4 303/3/4
f 302/10/4 287/10/4 303/10/4
f 288/6/4 289/6/4 304/6/4
f 303/3/4 288/3/4 304/3/4
f 304/6/4 289/6/4 305/6/4
f 289/10/4 290/10/4 306/10/4
f 305/6/4 289/6/4 306/6/4
f 290/13/4 291/13/4 307/13/4
f 306/10/4 290/10/4 307/10/4
f 292/13/4 293/13/4 309/13/4
f 309/13/4 293/13/4 310/13/4
f 293/3/4 294/3/4 311/3/4
f 310/13/4 293/13/4 311/13/4
f 294/10/4 295/10/4 312/10/4
f 311/3/4 294/3/4 312/3/4
f 295/11/4 296/11/4 313/11/4
f 312/10/4 295/10/4 313/10/4
f 296/12/4 297/12/4 314/12/4
f 313/11/4 296/11/4 314/11/4
f 297/3/4 298/3/4 315/3/4
f 298/3/4 299/3/4 315/3/4
f 299/8/4 300/8/4 316/8/4
f 315/3/4 299/3/4 316/3/4
f 300/9/4 301/9/4 317/9/4
f 301/9/4 302/9/4 317/9/4
f 302/9/4 303/9/4 317/9/4
f 303/10/4 304/10/4 317/10/4
f 304/9/4 305/9/4 318/9/4
f 317/10/4 304/10/4 318/10/4
f 305/3/4 306/3/4 319/3/4
f 318/9/4 305/9/4 319/9/4
f 306/9/4 307/9/4 320/9/4
f 319/3/4 306/3/4 320/3/4
f 307/13/4 291/13/4 321/13/4
f 320/9/4 307/9/4 321/9/4
f 321/13/4 291/13/4 322/13/4
f 308/13/4 309/13/4 324/13/4
f 309/3/4 310/3/4 325/3/4
f 324/13/4 309/13/4 325/13/4
f 311/9/4 312/9/4 326/9/4
f 325/3/4 310/3/4 326/3/4
f 310/9/4 311/9/4 326/9/4
f 312/10/4 313/10/4 327/10/4
f 326/9/4 312/9/4 327/9/4
f 313/12/4 314/12/4 328/12/4
f 327/10/4 313/10/4 328/10/4
f 314/12/4 297/12/4 329/12/4
f 328/12/4 314/12/4 329/12/4
f 297/3/4 315/3/4 330/3/4
f 329/12/4 297/12/4 330/12/4
f 316/8/4 300/8/4 331/8/4
f 315/8/4 316/8/4 331/8/4
f 317/9/4 318/9/4 332/9/4
f 331/8/4 300/8/4 332/8/4
f 300/9/4 317/9/4 332/9/4
f 318/10/4 319/10/4 333/10/4
f 332/9/4 318/9/4 333/9/4
f 333/10/4 319/10/4 334/10/4
f 319/9/4 320/9/4 335/9/4
f 334/10/4 319/10/4 335/10/4
f 320/13/4 321/13/4 336/13/4
f 335/9/4 320/9/4 336/9/4
f 336/13/4 321/13/4 337/13/4
f 323/13/4 324/13/4 338/13/4
f 324/3/4 325/3/4 339/3/4
f 338/13/4 324/13/4 339/13/4
f 325/9/4 326/9/4 340/9/4
f 339/3/4 325/3/4 340/3/4
f 327/9/4 328/9/4 340/9/4
f 326/9/4 327/9/4 340/9/4
f 340/9/4 328/9/4 341/9/4
f 328/12/4 329/12/4 342/12/4
f 341/9/4 328/9/4 342/9/4
f 329/3/4 330/3/4 343/3/4
f 342/12/4 329/12/4 343/12/4
f 315/8/4 331/8/4 344/8/4
f 343/3/4 330/3/4 344/3/4
f 330/3/4 315/3/4 344/3/4
f 331/3/4 332/3/4 345/3/4
f 344/8/4 331/8/4 345/8/4
f 332/9/4 333/9/4 346/9/4
f 345/3/4 332/3/4 346/3/4
f 333/3/4 334/3/4 347/3/4
f 346/9/4 333/9/4 347/9/4
f 334/13/4 335/13/4 348/13/4
f 347/3/4 334/3/4 348/3/4
f 335/13/4 336/13/4 348/13/4
f 348/13/4 336/13/4 349/13/4
f 340/13/4 341/13/4 350/13/4
f 339/13/4 340/13/4 350/13/4
f 350/13/4 341/13/4 351/13/4
f 342/4/4 343/4/4 352/4/4
f 343/3/4 344/3/4 352/3/4
f 352/3/4 344/3/4 353/3/4
f 345/9/4 346/9/4 354/9/4
f 353/3/4 344/3/4 354/3/4
f 346/9/4 347/9/4 354/9/4
f 344/9/4 345/9/4 354/9/4
f 351/13/4 341/13/4 356/13/4
f 352/1/4 353/1/4 357/1/4
f 342/4/4 352/4/4 357/4/4
f 353/4/4 354/4/4 358/4/4
f 357/1/4 353/1/4 358/1/4
f 354/9/4 347/9/4 359/9/4
f 358/4/4 354/4/4 359/4/4
f 355/13/4 356/13/4 361/13/4
f 361/13/4 356/13/4 362/13/4
f 341/9/4 342/9/4 363/9/4
f 362/13/4 356/13/4 363/13/4
f 356/13/4 341/13/4 363/13/4
f 342/4/4 357/4/4 364/4/4
f 363/9/4 342/9/4 364/9/4
f 357/3/4 358/3/4 365/3/4
f 364/4/4 357/4/4 365/4/4
f 358/3/4 359/3/4 365/3/4
f 359/9/4 347/9/4 366/9/4
f 365/3/4 359/3/4 366/3/4
f 366/9/4 347/9/4 367/9/4
f 367/9/4 347/9/4 368/9/4
f 347/13/4 348/13/4 369/13/4
f 368/9/4 347/9/4 369/9/4
f 369/13/4 348/13/4 370/13/4
f 360/13/4 361/13/4 372/13/4
f 361/3/4 362/3/4 373/3/4
f 372/13/4 361/13/4 373/13/4
f 362/2/4 363/2/4 374/2/4
f 373/3/4 362/3/4 374/3/4
f 374/2/4 363/2/4 375/2/4
f 363/9/4 364/9/4 376/9/4
f 364/12/4 365/12/4 377/12/4
f 376/9/4 364/9/4 377/9/4
f 365/3/4 366/3/4 378/3/4
f 377/12/4 365/12/4 378/12/4
f 378/3/4 366/3/4 379/3/4
f 367/3/4 368/3/4 380/3/4
f 366/8/4 367/8/4 380/8/4
f 368/9/4 369/9/4 381/9/4
f 380/3/4 368/3/4 381/3/4
f 369/3/4 370/3/4 382/3/4
f 381/9/4 369/9/4 382/9/4
f 370/13/4 371/13/4 383/13/4
f 382/3/4 370/3/4 383/3/4
f 383/13/4 371/13/4 384/13/4
f 384/13/4 371/13/4 385/13/4
f 373/13/4 374/13/4 387/13/4
f 374/3/4 375/3/4 388/3/4
f 387/13/4 374/13/4 388/13/4
f 375/2/4 363/2/4 389/2/4
f 388/3/4 375/3/4 389/3/4
f 363/9/4 376/9/4 390/9/4
f 389/2/4 363/2/4 390/2/4
f 376/10/4 377/10/4 391/10/4
f 390/9/4 376/9/4 391/9/4
f 378/12/4 379/12/4 392/12/4
f 391/10/4 377/10/4 392/10/4
f 377/12/4 378/12/4 392/12/4
f 392/12/4 379/12/4 393/12/4
f 379/3/4 366/3/4 394/3/4
f 366/8/4 380/8/4 394/8/4
f 380/8/4 381/8/4 394/8/4
f 394/8/4 381/8/4 395/8/4
f 381/9/4 382/9/4 396/9/4
f 383/10/4 384/10/4 397/10/4
f 396/9/4 382/9/4 397/9/4
f 382/10/4 383/10/4 397/10/4
f 384/9/4 385/9/4 398/9/4
f 397/10/4 384/10/4 398/10/4
f 385/13/4 386/13/4 399/13/4
f 398/9/4 385/9/4 399/9/4
f 399/13/4 386/13/4 400/13/4
f 388/13/4 389/13/4 402/13/4
f 389/13/4 390/13/4 402/13/4
f 390/3/4 391/3/4 403/3/4
f 402/13/4 390/13/4 403/13/4
f 391/10/4 392/10/4 404/10/4
f 403/3/4 391/3/4 404/3/4
f 392/11/4 393/11/4 405/11/4
f 404/10/4 392/10/4 405/10/4
f 393/12/4 379/12/4 406/12/4
f 405/11/4 393/11/4 406/11/4
f 379/3/4 394/3/4 407/3/4
f 406/12/4 379/12/4 407/12/4
f 394/3/4 395/3/4 407/3/4
f 407/3/4 395/3/4 408/3/4
f 395/8/4 381/8/4 409/8/4
f 408/3/4 395/3/4 409/3/4
f 381/9/4 396/9/4 410/9/4
f 409/8/4 381/8/4 410/8/4
f 410/9/4 396/9/4 411/9/4
f 411/9/4 396/9/4 412/9/4
f 396/10/4 397/10/4 413/10/4
f 412/9/4 396/9/4 413/9/4
f 397/9/4 398/9/4 414/9/4
f 413/10/4 397/10/4 414/10/4
f 398/3/4 399/3/4 415/3/4
f 414/9/4 398/9/4 415/9/4
f 399/9/4 400/9/4 416/9/4
f 415/3/4 399/3/4 416/3/4
f 400/13/4 401/13/4 417/13/4
f 416/9/4 400/9/4 417/9/4
f 404/13/4 405/13/4 418/13/4
f 405/13/4 406/13/4 418/13/4
f 403/13/4 404/13/4 418/13/4
f 406/13/4 407/13/4 418/13/4
f 407/7/4 408/7/4 419/7/4
f 418/13/4 407/13/4 419/13/4
f 410/3/4 411/3/4 420/3/4
f 419/7/4 408/7/4 420/7/4
f 409/3/4 410/3/4 420/3/4
f 408/3/4 409/3/4 420/3/4
f 420/3/4 411/3/4 421/3/4
f 421/3/4 411/3/4 422/3/4
f 411/9/4 412/9/4 423/9/4
f 422/3/4 411/3/4 423/3/4
f 412/10/4 413/10/4 424/10/4
f 423/9/4 412/9/4 424/9/4
f 413/3/4 414/3/4 425/3/4
f 424/10/4 413/10/4 425/10/4
f 414/6/4 415/6/4 426/6/4
f 425/3/4 414/3/4 426/3/4
f 415/6/4 416/6/4 426/6/4
f 416/10/4 417/10/4 427/10/4
f 426/6/4 416/6/4 427/6/4
f 417/13/4 401/13/4 428/13/4
f 427/10/4 417/10/4 428/10/4
f 428/13/4 401/13/4 429/13/4
f 419/13/4 420/13/4 430/13/4
f 420/7/4 421/7/4 431/7/4
f 430/13/4 420/13/4 431/13/4
f 421/5/4 422/5/4 432/5/4
f 431/7/4 421/7/4 432/7/4
f 422/13/4 423/13/4 433/13/4
f 432/5/4 422/5/4 433/5/4
f 424/13/4 425/13/4 433/13/4
f 427/13/4 428/13/4 433/13/4
f 426/13/4 427/13/4 433/13/4
f 423/13/4 424/13/4 433/13/4
f 425/13/4 426/13/4 433/13/4
f 433/13/4 428/13/4 434/13/4
f 431/13/4 432/13/4 435/13/4
f 432/13/4 433/13/4 435/13/4
f 435/13/4 433/13/4 436/13/4
f 441/13/5 438/13/5 437/13/5
f 442/13/5 438/13/5 441/13/5
f 443/13/5 440/13/5 439/13/5
f 444/13/5 440/13/5 443/13/5
f 453/13/5 446/13/5 445/13/5
f 454/13/5 446/13/5 453/13/5
f 455/13/5 448/13/5 447/13/5
f 456/13/5 448/13/5 455/13/5
f 457/13/5 450/13/5 449/13/5
f 458/13/5 450/13/5 457/13/5
f 459/13/5 452/13/5 451/13/5
f 460/13/5 452/13/5 459/13/5
f 465/13/5 462/13/5 461/13/5
f 466/13/5 462/13/5 465/13/5
f 467/13/5 464/13/5 463/13/5
f 468/13/5 464/13/5 467/13/5
f 471/13/5 470/13/5 469/13/5
f 472/13/5 470/13/5 471/13/5
f 477/13/5 474/13/5 473/13/5
f 478/13/5 474/13/5 477/13/5
f 479/13/5 476/13/5 475/13/5
f 480/13/5 476/13/5 479/13/5
f 485/13/5 482/13/5 481/13/5
f 486/13/5 482/13/5 485/13/5
f 487/13/5 484/13/5 483/13/5
f 488/13/5 484/13/5 487/13/5
f 493/13/5 490/13/5 489/13/5
f 494/13/5 490/13/5 493/13/5
f 495/13/5 492/13/5 491/13/5
f 496/13/5 492/13/5 495/13/5
f 497/13/6 498/13/6 501/13/6
f 501/13/6 498/13/6 502/13/6
f 499/13/6 500/13/6 503/13/6
f 503/13/6 500/13/6 504/13/6
f 505/13/6 506/13/6 507/13/6
f 507/13/6 506/13/6 508/13/6
f 509/13/6 510/13/6 513/13/6
f 513/13/6 510/13/6 514/13/6
f 511/13/6 512/13/6 515/13/6
f 515/13/6 512/13/6 516/13/6
f 517/13/6 518/13/6 525/13/6
f 525/13/6 518/13/6 526/13/6
f 519/13/6 520/13/6 527/13/6
f 527/13/6 520/13/6 528/13/6
f 521/13/6 522/13/6 529/13/6
f 529/13/6 522/13/6 530/13/6
f 523/13/6 524/13/6 531/13/6
f 531/13/6 524/13/6 532/13/6
f 533/13/6 534/13/6 537/13/6
f 537/13/6 534/13/6 538/13/6
f 535/13/6 536/13/6 539/13/6
f 539/13/6 536/13/6 540/13/6
