# MagicaVoxel @ Ephtracy

# group
o 

# material
mtllib glider.mtl
usemtl palette

# normals
vn -1 0 0
vn 1 0 0
vn 0 0 1
vn 0 0 -1
vn 0 -1 0
vn 0 1 0

# texcoords
vt 0.00976562 0.5
vt 0.958984 0.5
vt 0.994141 0.5

# verts
v -1.1 1.2 0.4
v -1.1 1.2 -0.2
v -1.1 1.3 0.4
v -1.1 1.3 -0.2
v -1 1.2 0.5
v -1 1.2 0.4
v -1 1.2 -0.2
v -1 1.2 -0.3
v -1 1.3 0.5
v -1 1.3 0.4
v -1 1.3 -0.2
v -1 1.3 -0.3
v -0.9 1.2 -0.3
v -0.9 1.2 -0.5
v -0.9 1.3 -0.3
v -0.9 1.3 -0.5
v -0.8 1.2 -0.5
v -0.8 1.2 -0.6
v -0.8 1.3 -0.5
v -0.8 1.3 -0.6
v -0.7 1.2 -0.6
v -0.7 1.2 -0.7
v -0.7 1.3 -0.6
v -0.7 1.3 -0.7
v -0.6 1.2 -0.7
v -0.6 1.2 -0.8
v -0.6 1.3 -0.7
v -0.6 1.3 -0.8
v -0.5 1.2 -0.8
v -0.5 1.2 -0.9
v -0.5 1.3 -0.8
v -0.5 1.3 -0.9
v -0.3 1.2 -0.9
v -0.3 1.2 -1
v -0.3 1.3 -0.9
v -0.3 1.3 -1
v -0.2 1.2 -1
v -0.2 1.2 -1.1
v -0.2 1.3 -1
v -0.2 1.3 -1.1
v 0.5 1.2 0.3
v 0.5 1.2 0.2
v 0.5 1.3 0.3
v 0.5 1.3 0.2
v 0.6 1.2 0.4
v 0.6 1.2 0.3
v 0.6 1.3 0.4
v 0.6 1.3 0.3
v 0.8 1.2 0.5
v 0.8 1.2 0.4
v 0.8 1.3 0.5
v 0.8 1.3 0.4
v -0.9 1.2 0.5
v -0.9 1.2 0.4
v -0.9 1.3 0.5
v -0.9 1.3 0.4
v -0.7 1.2 0.4
v -0.7 1.2 0.3
v -0.7 1.3 0.4
v -0.7 1.3 0.3
v -0.6 1.2 0.3
v -0.6 1.2 0.2
v -0.6 1.3 0.3
v -0.6 1.3 0.2
v 0.1 1.2 -1
v 0.1 1.2 -1.1
v 0.1 1.3 -1
v 0.1 1.3 -1.1
v 0.2 1.2 -0.9
v 0.2 1.2 -1
v 0.2 1.3 -0.9
v 0.2 1.3 -1
v 0.4 1.2 -0.8
v 0.4 1.2 -0.9
v 0.4 1.3 -0.8
v 0.4 1.3 -0.9
v 0.5 1.2 -0.7
v 0.5 1.2 -0.8
v 0.5 1.3 -0.7
v 0.5 1.3 -0.8
v 0.6 1.2 -0.6
v 0.6 1.2 -0.7
v 0.6 1.3 -0.6
v 0.6 1.3 -0.7
v 0.7 1.2 -0.5
v 0.7 1.2 -0.6
v 0.7 1.3 -0.5
v 0.7 1.3 -0.6
v 0.8 1.2 -0.3
v 0.8 1.2 -0.5
v 0.8 1.3 -0.3
v 0.8 1.3 -0.5
v 0.9 1.2 0.5
v 0.9 1.2 0.4
v 0.9 1.2 -0.2
v 0.9 1.2 -0.3
v 0.9 1.3 0.5
v 0.9 1.3 0.4
v 0.9 1.3 -0.2
v 0.9 1.3 -0.3
v 1 1.2 0.4
v 1 1.2 -0.2
v 1 1.3 0.4
v 1 1.3 -0.2
v -1 1.2 0.5
v -1 1.3 0.5
v -0.9 1.2 0.5
v -0.9 1.3 0.5
v 0.8 1.2 0.5
v 0.8 1.3 0.5
v 0.9 1.2 0.5
v 0.9 1.3 0.5
v -1.1 1.2 0.4
v -1.1 1.3 0.4
v -1 1.2 0.4
v -1 1.3 0.4
v -0.9 1.2 0.4
v -0.9 1.3 0.4
v -0.7 1.2 0.4
v -0.7 1.3 0.4
v 0.6 1.2 0.4
v 0.6 1.3 0.4
v 0.8 1.2 0.4
v 0.8 1.3 0.4
v 0.9 1.2 0.4
v 0.9 1.3 0.4
v 1 1.2 0.4
v 1 1.3 0.4
v -0.7 1.2 0.3
v -0.7 1.3 0.3
v -0.6 1.2 0.3
v -0.6 1.3 0.3
v 0.5 1.2 0.3
v 0.5 1.3 0.3
v 0.6 1.2 0.3
v 0.6 1.3 0.3
v -0.6 1.2 0.2
v -0.6 1.3 0.2
v 0.5 1.2 0.2
v 0.5 1.3 0.2
v -1.1 1.2 -0.2
v -1.1 1.3 -0.2
v -1 1.2 -0.2
v -1 1.3 -0.2
v 0.9 1.2 -0.2
v 0.9 1.3 -0.2
v 1 1.2 -0.2
v 1 1.3 -0.2
v -1 1.2 -0.3
v -1 1.3 -0.3
v -0.9 1.2 -0.3
v -0.9 1.3 -0.3
v 0.8 1.2 -0.3
v 0.8 1.3 -0.3
v 0.9 1.2 -0.3
v 0.9 1.3 -0.3
v -0.9 1.2 -0.5
v -0.9 1.3 -0.5
v -0.8 1.2 -0.5
v -0.8 1.3 -0.5
v 0.7 1.2 -0.5
v 0.7 1.3 -0.5
v 0.8 1.2 -0.5
v 0.8 1.3 -0.5
v -0.8 1.2 -0.6
v -0.8 1.3 -0.6
v -0.7 1.2 -0.6
v -0.7 1.3 -0.6
v 0.6 1.2 -0.6
v 0.6 1.3 -0.6
v 0.7 1.2 -0.6
v 0.7 1.3 -0.6
v -0.7 1.2 -0.7
v -0.7 1.3 -0.7
v -0.6 1.2 -0.7
v -0.6 1.3 -0.7
v 0.5 1.2 -0.7
v 0.5 1.3 -0.7
v 0.6 1.2 -0.7
v 0.6 1.3 -0.7
v -0.6 1.2 -0.8
v -0.6 1.3 -0.8
v -0.5 1.2 -0.8
v -0.5 1.3 -0.8
v 0.4 1.2 -0.8
v 0.4 1.3 -0.8
v 0.5 1.2 -0.8
v 0.5 1.3 -0.8
v -0.5 1.2 -0.9
v -0.5 1.3 -0.9
v -0.3 1.2 -0.9
v -0.3 1.3 -0.9
v 0.2 1.2 -0.9
v 0.2 1.3 -0.9
v 0.4 1.2 -0.9
v 0.4 1.3 -0.9
v -0.3 1.2 -1
v -0.3 1.3 -1
v -0.2 1.2 -1
v -0.2 1.3 -1
v 0.1 1.2 -1
v 0.1 1.3 -1
v 0.2 1.2 -1
v 0.2 1.3 -1
v -0.2 1.2 -1.1
v -0.2 1.3 -1.1
v 0.1 1.2 -1.1
v 0.1 1.3 -1.1
v -1 1.2 0.5
v -0.9 1.2 0.5
v 0.8 1.2 0.5
v 0.9 1.2 0.5
v -1.1 1.2 0.4
v -1 1.2 0.4
v -0.9 1.2 0.4
v -0.7 1.2 0.4
v 0.6 1.2 0.4
v 0.8 1.2 0.4
v 0.9 1.2 0.4
v 1 1.2 0.4
v -0.9 1.2 0.3
v -0.8 1.2 0.3
v -0.7 1.2 0.3
v -0.6 1.2 0.3
v 0.5 1.2 0.3
v 0.6 1.2 0.3
v 0.7 1.2 0.3
v 0.8 1.2 0.3
v -0.7 1.2 0.2
v -0.6 1.2 0.2
v 0.5 1.2 0.2
v 0.6 1.2 0.2
v -0.6 1.2 0.1
v -0.5 1.2 0.1
v -0.4 1.2 0.1
v -0.2 1.2 0.1
v -0.1 1.2 0.1
v 0 1.2 0.1
v 0.1 1.2 0.1
v 0.3 1.2 0.1
v 0.4 1.2 0.1
v 0.5 1.2 0.1
v -1.1 1.2 -0.2
v -1 1.2 -0.2
v -0.9 1.2 -0.2
v 0.8 1.2 -0.2
v 0.9 1.2 -0.2
v 1 1.2 -0.2
v -1 1.2 -0.3
v -0.9 1.2 -0.3
v -0.8 1.2 -0.3
v 0.7 1.2 -0.3
v 0.8 1.2 -0.3
v 0.9 1.2 -0.3
v -0.9 1.2 -0.5
v -0.8 1.2 -0.5
v -0.7 1.2 -0.5
v 0.6 1.2 -0.5
v 0.7 1.2 -0.5
v 0.8 1.2 -0.5
v -0.8 1.2 -0.6
v -0.7 1.2 -0.6
v -0.6 1.2 -0.6
v 0.5 1.2 -0.6
v 0.6 1.2 -0.6
v 0.7 1.2 -0.6
v -0.7 1.2 -0.7
v -0.6 1.2 -0.7
v -0.5 1.2 -0.7
v 0.4 1.2 -0.7
v 0.5 1.2 -0.7
v 0.6 1.2 -0.7
v -0.6 1.2 -0.8
v -0.5 1.2 -0.8
v -0.4 1.2 -0.8
v -0.3 1.2 -0.8
v 0.2 1.2 -0.8
v 0.3 1.2 -0.8
v 0.4 1.2 -0.8
v 0.5 1.2 -0.8
v -0.5 1.2 -0.9
v -0.3 1.2 -0.9
v -0.2 1.2 -0.9
v 0.1 1.2 -0.9
v 0.2 1.2 -0.9
v 0.4 1.2 -0.9
v -0.3 1.2 -1
v -0.2 1.2 -1
v -0.1 1.2 -1
v 0 1.2 -1
v 0.1 1.2 -1
v 0.2 1.2 -1
v -0.2 1.2 -1.1
v 0.1 1.2 -1.1
v -1 1.3 0.5
v -0.9 1.3 0.5
v 0.8 1.3 0.5
v 0.9 1.3 0.5
v -1.1 1.3 0.4
v -1 1.3 0.4
v -0.9 1.3 0.4
v -0.7 1.3 0.4
v 0.6 1.3 0.4
v 0.8 1.3 0.4
v 0.9 1.3 0.4
v 1 1.3 0.4
v -0.9 1.3 0.3
v -0.8 1.3 0.3
v -0.7 1.3 0.3
v -0.6 1.3 0.3
v 0.5 1.3 0.3
v 0.6 1.3 0.3
v 0.7 1.3 0.3
v 0.8 1.3 0.3
v -0.7 1.3 0.2
v -0.6 1.3 0.2
v 0.5 1.3 0.2
v 0.6 1.3 0.2
v -0.6 1.3 0.1
v -0.5 1.3 0.1
v -0.4 1.3 0.1
v -0.2 1.3 0.1
v -0.1 1.3 0.1
v 0 1.3 0.1
v 0.1 1.3 0.1
v 0.3 1.3 0.1
v 0.4 1.3 0.1
v 0.5 1.3 0.1
v -1.1 1.3 -0.2
v -1 1.3 -0.2
v -0.9 1.3 -0.2
v 0.8 1.3 -0.2
v 0.9 1.3 -0.2
v 1 1.3 -0.2
v -1 1.3 -0.3
v -0.9 1.3 -0.3
v -0.8 1.3 -0.3
v 0.7 1.3 -0.3
v 0.8 1.3 -0.3
v 0.9 1.3 -0.3
v -0.9 1.3 -0.5
v -0.8 1.3 -0.5
v -0.7 1.3 -0.5
v 0.6 1.3 -0.5
v 0.7 1.3 -0.5
v 0.8 1.3 -0.5
v -0.8 1.3 -0.6
v -0.7 1.3 -0.6
v -0.6 1.3 -0.6
v 0.5 1.3 -0.6
v 0.6 1.3 -0.6
v 0.7 1.3 -0.6
v -0.7 1.3 -0.7
v -0.6 1.3 -0.7
v -0.5 1.3 -0.7
v 0.4 1.3 -0.7
v 0.5 1.3 -0.7
v 0.6 1.3 -0.7
v -0.6 1.3 -0.8
v -0.5 1.3 -0.8
v -0.4 1.3 -0.8
v -0.3 1.3 -0.8
v 0.2 1.3 -0.8
v 0.3 1.3 -0.8
v 0.4 1.3 -0.8
v 0.5 1.3 -0.8
v -0.5 1.3 -0.9
v -0.3 1.3 -0.9
v -0.2 1.3 -0.9
v 0.1 1.3 -0.9
v 0.2 1.3 -0.9
v 0.4 1.3 -0.9
v -0.3 1.3 -1
v -0.2 1.3 -1
v -0.1 1.3 -1
v 0 1.3 -1
v 0.1 1.3 -1
v 0.2 1.3 -1
v -0.2 1.3 -1.1
v 0.1 1.3 -1.1

# faces
f 3/3/1 2/3/1 1/3/1
f 4/3/1 2/3/1 3/3/1
f 9/3/1 6/3/1 5/3/1
f 10/3/1 6/3/1 9/3/1
f 11/3/1 8/3/1 7/3/1
f 12/3/1 8/3/1 11/3/1
f 15/3/1 14/3/1 13/3/1
f 16/3/1 14/3/1 15/3/1
f 19/3/1 18/3/1 17/3/1
f 20/3/1 18/3/1 19/3/1
f 23/3/1 22/3/1 21/3/1
f 24/3/1 22/3/1 23/3/1
f 27/3/1 26/3/1 25/3/1
f 28/3/1 26/3/1 27/3/1
f 31/3/1 30/3/1 29/3/1
f 32/3/1 30/3/1 31/3/1
f 35/3/1 34/3/1 33/3/1
f 36/3/1 34/3/1 35/3/1
f 39/3/1 38/3/1 37/3/1
f 40/3/1 38/3/1 39/3/1
f 43/3/1 42/3/1 41/3/1
f 44/3/1 42/3/1 43/3/1
f 47/3/1 46/3/1 45/3/1
f 48/3/1 46/3/1 47/3/1
f 51/3/1 50/3/1 49/3/1
f 52/3/1 50/3/1 51/3/1
f 53/3/2 54/3/2 55/3/2
f 55/3/2 54/3/2 56/3/2
f 57/3/2 58/3/2 59/3/2
f 59/3/2 58/3/2 60/3/2
f 61/3/2 62/3/2 63/3/2
f 63/3/2 62/3/2 64/3/2
f 65/3/2 66/3/2 67/3/2
f 67/3/2 66/3/2 68/3/2
f 69/3/2 70/3/2 71/3/2
f 71/3/2 70/3/2 72/3/2
f 73/3/2 74/3/2 75/3/2
f 75/3/2 74/3/2 76/3/2
f 77/3/2 78/3/2 79/3/2
f 79/3/2 78/3/2 80/3/2
f 81/3/2 82/3/2 83/3/2
f 83/3/2 82/3/2 84/3/2
f 85/3/2 86/3/2 87/3/2
f 87/3/2 86/3/2 88/3/2
f 89/3/2 90/3/2 91/3/2
f 91/3/2 90/3/2 92/3/2
f 93/3/2 94/3/2 97/3/2
f 97/3/2 94/3/2 98/3/2
f 95/3/2 96/3/2 99/3/2
f 99/3/2 96/3/2 100/3/2
f 101/3/2 102/3/2 103/3/2
f 103/3/2 102/3/2 104/3/2
f 107/3/3 106/3/3 105/3/3
f 108/3/3 106/3/3 107/3/3
f 111/3/3 110/3/3 109/3/3
f 112/3/3 110/3/3 111/3/3
f 115/3/3 114/3/3 113/3/3
f 116/3/3 114/3/3 115/3/3
f 119/3/3 118/3/3 117/3/3
f 120/3/3 118/3/3 119/3/3
f 123/3/3 122/3/3 121/3/3
f 124/3/3 122/3/3 123/3/3
f 127/3/3 126/3/3 125/3/3
f 128/3/3 126/3/3 127/3/3
f 131/3/3 130/3/3 129/3/3
f 132/3/3 130/3/3 131/3/3
f 135/3/3 134/3/3 133/3/3
f 136/3/3 134/3/3 135/3/3
f 139/3/3 138/3/3 137/3/3
f 140/3/3 138/3/3 139/3/3
f 141/3/4 142/3/4 143/3/4
f 143/3/4 142/3/4 144/3/4
f 145/3/4 146/3/4 147/3/4
f 147/3/4 146/3/4 148/3/4
f 149/3/4 150/3/4 151/3/4
f 151/3/4 150/3/4 152/3/4
f 153/3/4 154/3/4 155/3/4
f 155/3/4 154/3/4 156/3/4
f 157/3/4 158/3/4 159/3/4
f 159/3/4 158/3/4 160/3/4
f 161/3/4 162/3/4 163/3/4
f 163/3/4 162/3/4 164/3/4
f 165/3/4 166/3/4 167/3/4
f 167/3/4 166/3/4 168/3/4
f 169/3/4 170/3/4 171/3/4
f 171/3/4 170/3/4 172/3/4
f 173/3/4 174/3/4 175/3/4
f 175/3/4 174/3/4 176/3/4
f 177/3/4 178/3/4 179/3/4
f 179/3/4 178/3/4 180/3/4
f 181/3/4 182/3/4 183/3/4
f 183/3/4 182/3/4 184/3/4
f 185/3/4 186/3/4 187/3/4
f 187/3/4 186/3/4 188/3/4
f 189/3/4 190/3/4 191/3/4
f 191/3/4 190/3/4 192/3/4
f 193/3/4 194/3/4 195/3/4
f 195/3/4 194/3/4 196/3/4
f 197/3/4 198/3/4 199/3/4
f 199/3/4 198/3/4 200/3/4
f 201/3/4 202/3/4 203/3/4
f 203/3/4 202/3/4 204/3/4
f 205/3/4 206/3/4 207/3/4
f 207/3/4 206/3/4 208/3/4
f 214/3/5 210/3/5 209/3/5
f 215/3/5 210/3/5 214/3/5
f 218/3/5 212/3/5 211/3/5
f 219/3/5 212/3/5 218/3/5
f 221/3/5 216/3/5 215/3/5
f 221/1/5 215/1/5 214/1/5
f 222/3/5 216/3/5 221/3/5
f 223/3/5 216/3/5 222/3/5
f 226/3/5 218/3/5 217/3/5
f 227/3/5 218/3/5 226/3/5
f 228/1/5 219/1/5 218/1/5
f 228/3/5 218/3/5 227/3/5
f 229/3/5 224/3/5 223/3/5
f 229/2/5 223/2/5 222/2/5
f 230/3/5 224/3/5 229/3/5
f 231/3/5 226/3/5 225/3/5
f 232/2/5 227/2/5 226/2/5
f 232/3/5 226/3/5 231/3/5
f 233/3/5 231/3/5 230/3/5
f 233/1/5 230/1/5 229/1/5
f 234/3/5 231/3/5 233/3/5
f 235/3/5 231/3/5 234/3/5
f 236/3/5 231/3/5 235/3/5
f 237/3/5 231/3/5 236/3/5
f 238/3/5 231/3/5 237/3/5
f 239/3/5 231/3/5 238/3/5
f 240/3/5 231/3/5 239/3/5
f 241/3/5 231/3/5 240/3/5
f 242/1/5 232/1/5 231/1/5
f 242/3/5 231/3/5 241/3/5
f 243/3/5 214/3/5 213/3/5
f 244/1/5 221/1/5 214/1/5
f 244/3/5 214/3/5 243/3/5
f 244/1/5 222/1/5 221/1/5
f 245/1/5 222/1/5 244/1/5
f 246/1/5 219/1/5 228/1/5
f 246/1/5 228/1/5 227/1/5
f 247/3/5 220/3/5 219/3/5
f 247/1/5 219/1/5 246/1/5
f 248/3/5 220/3/5 247/3/5
f 249/3/5 245/3/5 244/3/5
f 250/1/5 222/1/5 245/1/5
f 250/3/5 245/3/5 249/3/5
f 251/2/5 229/2/5 222/2/5
f 251/1/5 222/1/5 250/1/5
f 252/1/5 246/1/5 227/1/5
f 252/2/5 227/2/5 232/2/5
f 253/3/5 247/3/5 246/3/5
f 253/1/5 246/1/5 252/1/5
f 254/3/5 247/3/5 253/3/5
f 255/3/5 251/3/5 250/3/5
f 256/2/5 229/2/5 251/2/5
f 256/3/5 251/3/5 255/3/5
f 257/1/5 233/1/5 229/1/5
f 257/2/5 229/2/5 256/2/5
f 257/1/5 234/1/5 233/1/5
f 258/1/5 232/1/5 242/1/5
f 258/1/5 242/1/5 241/1/5
f 258/2/5 252/2/5 232/2/5
f 259/3/5 253/3/5 252/3/5
f 259/2/5 252/2/5 258/2/5
f 260/3/5 253/3/5 259/3/5
f 261/3/5 257/3/5 256/3/5
f 262/1/5 234/1/5 257/1/5
f 262/3/5 257/3/5 261/3/5
f 263/1/5 234/1/5 262/1/5
f 264/1/5 258/1/5 241/1/5
f 265/3/5 259/3/5 258/3/5
f 265/1/5 258/1/5 264/1/5
f 266/3/5 259/3/5 265/3/5
f 267/3/5 263/3/5 262/3/5
f 268/1/5 234/1/5 263/1/5
f 268/3/5 263/3/5 267/3/5
f 269/2/5 235/2/5 234/2/5
f 269/1/5 234/1/5 268/1/5
f 270/2/5 241/2/5 240/2/5
f 270/1/5 264/1/5 241/1/5
f 271/3/5 265/3/5 264/3/5
f 271/1/5 264/1/5 270/1/5
f 272/3/5 265/3/5 271/3/5
f 273/3/5 269/3/5 268/3/5
f 274/2/5 235/2/5 269/2/5
f 274/3/5 269/3/5 273/3/5
f 275/1/5 236/1/5 235/1/5
f 275/2/5 235/2/5 274/2/5
f 276/1/5 236/1/5 275/1/5
f 277/1/5 240/1/5 239/1/5
f 278/2/5 270/2/5 240/2/5
f 278/1/5 240/1/5 277/1/5
f 279/3/5 271/3/5 270/3/5
f 279/2/5 270/2/5 278/2/5
f 280/3/5 271/3/5 279/3/5
f 281/3/5 275/3/5 274/3/5
f 281/3/5 276/3/5 275/3/5
f 282/1/5 236/1/5 276/1/5
f 282/3/5 276/3/5 281/3/5
f 283/2/5 237/2/5 236/2/5
f 283/1/5 236/1/5 282/1/5
f 284/2/5 239/2/5 238/2/5
f 284/1/5 277/1/5 239/1/5
f 285/3/5 278/3/5 277/3/5
f 285/1/5 277/1/5 284/1/5
f 285/3/5 279/3/5 278/3/5
f 286/3/5 279/3/5 285/3/5
f 287/3/5 283/3/5 282/3/5
f 288/2/5 237/2/5 283/2/5
f 288/3/5 283/3/5 287/3/5
f 289/1/5 238/1/5 237/1/5
f 289/2/5 237/2/5 288/2/5
f 290/2/5 284/2/5 238/2/5
f 290/1/5 238/1/5 289/1/5
f 291/3/5 285/3/5 284/3/5
f 291/2/5 284/2/5 290/2/5
f 292/3/5 285/3/5 291/3/5
f 293/3/5 289/3/5 288/3/5
f 293/3/5 291/3/5 290/3/5
f 293/3/5 290/3/5 289/3/5
f 294/3/5 291/3/5 293/3/5
f 295/3/6 296/3/6 300/3/6
f 300/3/6 296/3/6 301/3/6
f 297/3/6 298/3/6 304/3/6
f 304/3/6 298/3/6 305/3/6
f 301/3/6 302/3/6 307/3/6
f 300/1/6 301/1/6 307/1/6
f 307/3/6 302/3/6 308/3/6
f 308/3/6 302/3/6 309/3/6
f 303/3/6 304/3/6 312/3/6
f 312/3/6 304/3/6 313/3/6
f 304/1/6 305/1/6 314/1/6
f 313/3/6 304/3/6 314/3/6
f 309/3/6 310/3/6 315/3/6
f 308/2/6 309/2/6 315/2/6
f 315/3/6 310/3/6 316/3/6
f 311/3/6 312/3/6 317/3/6
f 312/2/6 313/2/6 318/2/6
f 317/3/6 312/3/6 318/3/6
f 316/3/6 317/3/6 319/3/6
f 315/1/6 316/1/6 319/1/6
f 319/3/6 317/3/6 320/3/6
f 320/3/6 317/3/6 321/3/6
f 321/3/6 317/3/6 322/3/6
f 322/3/6 317/3/6 323/3/6
f 323/3/6 317/3/6 324/3/6
f 324/3/6 317/3/6 325/3/6
f 325/3/6 317/3/6 326/3/6
f 326/3/6 317/3/6 327/3/6
f 317/1/6 318/1/6 328/1/6
f 327/3/6 317/3/6 328/3/6
f 299/3/6 300/3/6 329/3/6
f 300/1/6 307/1/6 330/1/6
f 329/3/6 300/3/6 330/3/6
f 307/1/6 308/1/6 330/1/6
f 330/1/6 308/1/6 331/1/6
f 314/1/6 305/1/6 332/1/6
f 313/1/6 314/1/6 332/1/6
f 305/3/6 306/3/6 333/3/6
f 332/1/6 305/1/6 333/1/6
f 333/3/6 306/3/6 334/3/6
f 330/3/6 331/3/6 335/3/6
f 331/1/6 308/1/6 336/1/6
f 335/3/6 331/3/6 336/3/6
f 308/2/6 315/2/6 337/2/6
f 336/1/6 308/1/6 337/1/6
f 313/1/6 332/1/6 338/1/6
f 318/2/6 313/2/6 338/2/6
f 332/3/6 333/3/6 339/3/6
f 338/1/6 332/1/6 339/1/6
f 339/3/6 333/3/6 340/3/6
f 336/3/6 337/3/6 341/3/6
f 337/2/6 315/2/6 342/2/6
f 341/3/6 337/3/6 342/3/6
f 315/1/6 319/1/6 343/1/6
f 342/2/6 315/2/6 343/2/6
f 319/1/6 320/1/6 343/1/6
f 328/1/6 318/1/6 344/1/6
f 327/1/6 328/1/6 344/1/6
f 318/2/6 338/2/6 344/2/6
f 338/3/6 339/3/6 345/3/6
f 344/2/6 338/2/6 345/2/6
f 345/3/6 339/3/6 346/3/6
f 342/3/6 343/3/6 347/3/6
f 343/1/6 320/1/6 348/1/6
f 347/3/6 343/3/6 348/3/6
f 348/1/6 320/1/6 349/1/6
f 327/1/6 344/1/6 350/1/6
f 344/3/6 345/3/6 351/3/6
f 350/1/6 344/1/6 351/1/6
f 351/3/6 345/3/6 352/3/6
f 348/3/6 349/3/6 353/3/6
f 349/1/6 320/1/6 354/1/6
f 353/3/6 349/3/6 354/3/6
f 320/2/6 321/2/6 355/2/6
f 354/1/6 320/1/6 355/1/6
f 326/2/6 327/2/6 356/2/6
f 327/1/6 350/1/6 356/1/6
f 350/3/6 351/3/6 357/3/6
f 356/1/6 350/1/6 357/1/6
f 357/3/6 351/3/6 358/3/6
f 354/3/6 355/3/6 359/3/6
f 355/2/6 321/2/6 360/2/6
f 359/3/6 355/3/6 360/3/6
f 321/1/6 322/1/6 361/1/6
f 360/2/6 321/2/6 361/2/6
f 361/1/6 322/1/6 362/1/6
f 325/1/6 326/1/6 363/1/6
f 326/2/6 356/2/6 364/2/6
f 363/1/6 326/1/6 364/1/6
f 356/3/6 357/3/6 365/3/6
f 364/2/6 356/2/6 365/2/6
f 365/3/6 357/3/6 366/3/6
f 360/3/6 361/3/6 367/3/6
f 361/3/6 362/3/6 367/3/6
f 362/1/6 322/1/6 368/1/6
f 367/3/6 362/3/6 368/3/6
f 322/2/6 323/2/6 369/2/6
f 368/1/6 322/1/6 369/1/6
f 324/2/6 325/2/6 370/2/6
f 325/1/6 363/1/6 370/1/6
f 363/3/6 364/3/6 371/3/6
f 370/1/6 363/1/6 371/1/6
f 364/3/6 365/3/6 371/3/6
f 371/3/6 365/3/6 372/3/6
f 368/3/6 369/3/6 373/3/6
f 369/2/6 323/2/6 374/2/6
f 373/3/6 369/3/6 374/3/6
f 323/1/6 324/1/6 375/1/6
f 374/2/6 323/2/6 375/2/6
f 324/2/6 370/2/6 376/2/6
f 375/1/6 324/1/6 376/1/6
f 370/3/6 371/3/6 377/3/6
f 376/2/6 370/2/6 377/2/6
f 377/3/6 371/3/6 378/3/6
f 374/3/6 375/3/6 379/3/6
f 376/3/6 377/3/6 379/3/6
f 375/3/6 376/3/6 379/3/6
f 379/3/6 377/3/6 380/3/6
